<svg width="24" height="24" viewBox="0 0 24 24" fill="none" xmlns="http://www.w3.org/2000/svg">
<mask id="mask0_172_17498" style="mask-type:alpha" maskUnits="userSpaceOnUse" x="0" y="0" width="24" height="24">
<rect width="24" height="24" fill="#D9D9D9"/>
</mask>
<g mask="url(#mask0_172_17498)">
<path d="M12 20.325L10.9 19.325C9.23333 17.825 7.85833 16.5333 6.775 15.45C5.69167 14.3667 4.83333 13.404 4.2 12.562C3.56667 11.7207 3.125 10.954 2.875 10.262C2.625 9.57067 2.5 8.86667 2.5 8.15C2.5 6.73333 2.97933 5.54567 3.938 4.587C4.896 3.629 6.08333 3.15 7.5 3.15C8.36667 3.15 9.19167 3.354 9.975 3.762C10.7583 4.17067 11.4333 4.75833 12 5.525C12.5667 4.75833 13.2417 4.17067 14.025 3.762C14.8083 3.354 15.6333 3.15 16.5 3.15C17.9167 3.15 19.104 3.629 20.062 4.587C21.0207 5.54567 21.5 6.73333 21.5 8.15C21.5 8.86667 21.375 9.57067 21.125 10.262C20.875 10.954 20.4333 11.7207 19.8 12.562C19.1667 13.404 18.3083 14.3667 17.225 15.45C16.1417 16.5333 14.7667 17.825 13.1 19.325L12 20.325ZM12 18.3C13.6 16.8667 14.9167 15.6333 15.95 14.6C16.9833 13.5667 17.8 12.6707 18.4 11.912C19 11.154 19.4167 10.4833 19.65 9.9C19.8833 9.31667 20 8.73333 20 8.15C20 7.15 19.6667 6.31667 19 5.65C18.3333 4.98333 17.5 4.65 16.5 4.65C15.7167 4.65 14.9873 4.875 14.312 5.325C13.6373 5.775 13.1083 6.4 12.725 7.2H11.275C10.875 6.38333 10.3417 5.754 9.675 5.312C9.00833 4.87067 8.28333 4.65 7.5 4.65C6.5 4.65 5.66667 4.98333 5 5.65C4.33333 6.31667 4 7.15 4 8.15C4 8.73333 4.11667 9.31667 4.35 9.9C4.58333 10.4833 5 11.154 5.6 11.912C6.2 12.6707 7.01667 13.5623 8.05 14.587C9.08333 15.6123 10.4 16.85 12 18.3Z" fill="#00DFFE"/>
</g>
</svg>
