<svg width="24" height="24" viewBox="0 0 24 24" fill="none" xmlns="http://www.w3.org/2000/svg">
<mask id="mask0_167_11500" style="mask-type:alpha" maskUnits="userSpaceOnUse" x="0" y="0" width="24" height="24">
<rect width="24" height="24" fill="#D9D9D9"/>
</mask>
<g mask="url(#mask0_167_11500)">
<path d="M1.80005 19.3V17.075C1.80005 16.5583 1.93338 16.1 2.20005 15.7C2.46672 15.3 2.82505 14.9833 3.27505 14.75C4.22505 14.3 5.17938 13.946 6.13805 13.688C7.09605 13.4293 8.15005 13.3 9.30005 13.3C10.45 13.3 11.5044 13.4293 12.463 13.688C13.421 13.946 14.375 14.3 15.325 14.75C15.775 14.9833 16.1334 15.3 16.4 15.7C16.6667 16.1 16.8 16.5583 16.8 17.075V19.3H1.80005ZM18.8 19.3V16.95C18.8 16.3 18.6374 15.679 18.312 15.087C17.9874 14.4957 17.5334 13.9833 16.95 13.55C17.6167 13.65 18.25 13.804 18.85 14.012C19.4501 14.2207 20.0251 14.4667 20.5751 14.75C21.0917 15.0333 21.4917 15.3627 21.775 15.738C22.0584 16.1127 22.2001 16.5167 22.2001 16.95V19.3H18.8ZM9.30005 11.7C8.33338 11.7 7.50838 11.354 6.82505 10.662C6.14172 9.97066 5.80005 9.15 5.80005 8.2C5.80005 7.23333 6.14172 6.40833 6.82505 5.725C7.50838 5.04166 8.33338 4.7 9.30005 4.7C10.2667 4.7 11.0917 5.04166 11.775 5.725C12.4584 6.40833 12.8 7.23333 12.8 8.2C12.8 9.15 12.4584 9.97066 11.775 10.662C11.0917 11.354 10.2667 11.7 9.30005 11.7ZM17.925 8.2C17.925 9.15 17.5834 9.97066 16.9 10.662C16.2167 11.354 15.3917 11.7 14.425 11.7C14.325 11.7 14.1874 11.6873 14.012 11.662C13.8374 11.6373 13.6917 11.6083 13.575 11.575C13.975 11.0917 14.2794 10.5627 14.488 9.988C14.696 9.41266 14.8 8.81666 14.8 8.2C14.8 7.56666 14.6917 6.96666 14.475 6.4C14.2584 5.83333 13.9584 5.30833 13.575 4.825C13.7084 4.775 13.85 4.74166 14 4.725C14.15 4.70833 14.2917 4.7 14.425 4.7C15.3917 4.7 16.2167 5.04166 16.9 5.725C17.5834 6.40833 17.925 7.23333 17.925 8.2ZM3.30005 17.8H15.3V17.075C15.3 16.875 15.246 16.6917 15.138 16.525C15.0294 16.3583 14.8667 16.2167 14.65 16.1C13.8167 15.6833 12.9667 15.3623 12.1 15.137C11.2334 14.9123 10.3 14.8 9.30005 14.8C8.30005 14.8 7.36272 14.9123 6.48805 15.137C5.61272 15.3623 4.76672 15.6833 3.95005 16.1C3.71672 16.2167 3.55005 16.3583 3.45005 16.525C3.35005 16.6917 3.30005 16.875 3.30005 17.075V17.8ZM9.30005 10.2C9.85005 10.2 10.321 10.004 10.713 9.612C11.1044 9.22066 11.3 8.75 11.3 8.2C11.3 7.65 11.1044 7.179 10.713 6.787C10.321 6.39566 9.85005 6.2 9.30005 6.2C8.75005 6.2 8.27938 6.39566 7.88805 6.787C7.49605 7.179 7.30005 7.65 7.30005 8.2C7.30005 8.75 7.49605 9.22066 7.88805 9.612C8.27938 10.004 8.75005 10.2 9.30005 10.2Z" fill="#00DFFE"/>
</g>
</svg>
