<svg width="71" height="70" viewBox="0 0 71 70" fill="none" xmlns="http://www.w3.org/2000/svg">
<path d="M70.6858 35.161C70.6858 54.4021 55.086 70 35.8425 70C16.5991 70 0.999268 54.4021 0.999268 35.161C0.999268 15.92 16.5991 0.322052 35.8425 0.322052C55.086 0.322052 70.6858 15.92 70.6858 35.161Z" fill="url(#paint0_radial_153_9794)"/>
<g opacity="0.22">
<path fill-rule="evenodd" clip-rule="evenodd" d="M48.4407 22.4209C41.495 22.4209 35.8644 28.0508 35.8644 34.9956C35.8644 41.9404 41.495 47.5703 48.4407 47.5703C55.3863 47.5703 61.0169 41.9404 61.0169 34.9956C61.0169 28.0508 55.3863 22.4209 48.4407 22.4209ZM35.7245 34.9956C35.7245 27.9735 41.4177 22.281 48.4407 22.281C55.4636 22.281 61.1569 27.9735 61.1569 34.9956C61.1569 42.0177 55.4636 47.7102 48.4407 47.7102C41.4177 47.7102 35.7245 42.0177 35.7245 34.9956Z" fill="white"/>
<path fill-rule="evenodd" clip-rule="evenodd" d="M47.9987 19.1541C41.053 19.1541 35.4224 24.784 35.4224 31.7288C35.4224 38.6736 41.053 44.3035 47.9987 44.3035C54.9443 44.3035 60.5749 38.6736 60.5749 31.7288C60.5749 24.784 54.9443 19.1541 47.9987 19.1541ZM35.2825 31.7288C35.2825 24.7067 40.9757 19.0142 47.9987 19.0142C55.0216 19.0142 60.7149 24.7067 60.7149 31.7288C60.7149 38.7509 55.0216 44.4434 47.9987 44.4434C40.9757 44.4434 35.2825 38.7509 35.2825 31.7288Z" fill="white"/>
<path fill-rule="evenodd" clip-rule="evenodd" d="M34.5705 25.5696C32.8528 32.2991 36.9164 39.1468 43.6468 40.8642C50.3771 42.5817 57.2256 38.5186 58.9432 31.789C60.6609 25.0595 56.5973 18.2119 49.867 16.4944C43.1366 14.777 36.2881 18.8401 34.5705 25.5696ZM43.6121 40.9998C36.8069 39.2632 32.6981 32.3394 34.4349 25.535C36.1717 18.7306 43.0963 14.6223 49.9016 16.3589C56.7068 18.0954 60.8156 25.0192 59.0788 31.8237C57.3421 38.6281 50.4174 42.7364 43.6121 40.9998Z" fill="white"/>
<path fill-rule="evenodd" clip-rule="evenodd" d="M44.7314 13.4852C37.7858 13.4852 32.1552 19.1151 32.1552 26.0599C32.1552 33.0047 37.7858 38.6346 44.7314 38.6346C51.6771 38.6346 57.3077 33.0047 57.3077 26.0599C57.3077 19.1151 51.6771 13.4852 44.7314 13.4852ZM32.0153 26.0599C32.0153 19.0378 37.7085 13.3453 44.7314 13.3453C51.7544 13.3453 57.4476 19.0378 57.4476 26.0599C57.4476 33.082 51.7544 38.7745 44.7314 38.7745C37.7085 38.7745 32.0153 33.082 32.0153 26.0599Z" fill="white"/>
<path fill-rule="evenodd" clip-rule="evenodd" d="M33.227 15.1675C28.3158 20.0782 28.3158 28.04 33.227 32.9506C38.1383 37.8613 46.1011 37.8613 51.0124 32.9506C55.9237 28.04 55.9237 20.0782 51.0124 15.1675C46.1011 10.2568 38.1383 10.2568 33.227 15.1675ZM33.1281 33.0496C28.1622 28.0843 28.1622 20.0339 33.1281 15.0686C38.094 10.1033 46.1454 10.1033 51.1113 15.0686C56.0773 20.0339 56.0773 28.0843 51.1113 33.0496C46.1454 38.0149 38.094 38.0149 33.1281 33.0496Z" fill="white"/>
<path fill-rule="evenodd" clip-rule="evenodd" d="M39.0618 10.2183C32.1161 10.2183 26.4855 15.8482 26.4855 22.793C26.4855 29.7378 32.1161 35.3677 39.0618 35.3677C46.0074 35.3677 51.638 29.7378 51.638 22.793C51.638 15.8482 46.0074 10.2183 39.0618 10.2183ZM26.3456 22.793C26.3456 15.7709 32.0388 10.0784 39.0618 10.0784C46.0847 10.0784 51.778 15.7709 51.778 22.793C51.778 29.8151 46.0847 35.5076 39.0618 35.5076C32.0388 35.5076 26.3456 29.8151 26.3456 22.793Z" fill="white"/>
<path fill-rule="evenodd" clip-rule="evenodd" d="M35.7946 9.79553C28.8489 9.79553 23.2183 15.4254 23.2183 22.3702C23.2183 29.315 28.8489 34.9449 35.7946 34.9449C42.7402 34.9449 48.3708 29.315 48.3708 22.3702C48.3708 15.4254 42.7402 9.79553 35.7946 9.79553ZM23.0784 22.3702C23.0784 15.3481 28.7716 9.65561 35.7946 9.65561C42.8175 9.65561 48.5107 15.3481 48.5107 22.3702C48.5107 29.3923 42.8175 35.0848 35.7946 35.0848C28.7716 35.0848 23.0784 29.3923 23.0784 22.3702Z" fill="white"/>
<path fill-rule="evenodd" clip-rule="evenodd" d="M32.5273 10.2183C25.5817 10.2183 19.9511 15.8482 19.9511 22.793C19.9511 29.7378 25.5817 35.3677 32.5273 35.3677C39.473 35.3677 45.1036 29.7378 45.1036 22.793C45.1036 15.8482 39.473 10.2183 32.5273 10.2183ZM19.8112 22.793C19.8112 15.7709 25.5044 10.0784 32.5273 10.0784C39.5503 10.0784 45.2435 15.7709 45.2435 22.793C45.2435 29.8151 39.5503 35.5076 32.5273 35.5076C25.5044 35.5076 19.8112 29.8151 19.8112 22.793Z" fill="white"/>
<path fill-rule="evenodd" clip-rule="evenodd" d="M17.1281 21.6905C15.8188 28.511 20.2872 35.1013 27.1086 36.4104C33.9299 37.7195 40.5211 33.2517 41.8303 26.4312C43.1396 19.6107 38.6712 13.0203 31.8498 11.7112C25.0285 10.4021 18.4373 14.87 17.1281 21.6905ZM27.0822 36.5479C20.185 35.2242 15.6668 28.5605 16.9906 21.6641C18.3145 14.7677 24.979 10.2501 31.8762 11.5738C38.7734 12.8975 43.2916 19.5611 41.9678 26.4575C40.6439 33.3539 33.9794 37.8715 27.0822 36.5479Z" fill="white"/>
<path fill-rule="evenodd" clip-rule="evenodd" d="M26.8575 13.4852C19.9119 13.4852 14.2813 19.1151 14.2813 26.0599C14.2813 33.0047 19.9119 38.6346 26.8575 38.6346C33.8032 38.6346 39.4338 33.0047 39.4338 26.0599C39.4338 19.1151 33.8032 13.4852 26.8575 13.4852ZM14.1414 26.0599C14.1414 19.0378 19.8346 13.3453 26.8575 13.3453C33.8805 13.3453 39.5737 19.0378 39.5737 26.0599C39.5737 33.082 33.8805 38.7745 26.8575 38.7745C19.8346 38.7745 14.1414 33.082 14.1414 26.0599Z" fill="white"/>
<path fill-rule="evenodd" clip-rule="evenodd" d="M24.6743 16.1189C17.7293 16.21 12.1732 21.9133 12.2644 28.8574C12.3556 35.8015 18.0595 41.3569 25.0045 41.2657C31.9495 41.1746 37.5056 35.4713 37.4144 28.5272C37.3232 21.5831 31.6192 16.0277 24.6743 16.1189ZM12.1245 28.8592C12.0323 21.8378 17.6502 16.0711 24.6724 15.9789C31.6947 15.8868 37.4621 21.504 37.5543 28.5254C37.6465 35.5468 32.0286 41.3134 25.0063 41.4056C17.9841 41.4978 12.2167 35.8806 12.1245 28.8592Z" fill="white"/>
<path fill-rule="evenodd" clip-rule="evenodd" d="M23.5903 19.1541C16.6447 19.1541 11.0141 24.784 11.0141 31.7288C11.0141 38.6736 16.6447 44.3035 23.5903 44.3035C30.536 44.3035 36.1666 38.6736 36.1666 31.7288C36.1666 24.784 30.536 19.1541 23.5903 19.1541ZM10.8741 31.7288C10.8741 24.7067 16.5674 19.0142 23.5903 19.0142C30.6133 19.0142 36.3065 24.7067 36.3065 31.7288C36.3065 38.7509 30.6133 44.4434 23.5903 44.4434C16.5674 44.4434 10.8741 38.7509 10.8741 31.7288Z" fill="white"/>
<path fill-rule="evenodd" clip-rule="evenodd" d="M23.1482 22.4209C16.2025 22.4209 10.5719 28.0508 10.5719 34.9956C10.5719 41.9404 16.2025 47.5703 23.1482 47.5703C30.0939 47.5703 35.7244 41.9404 35.7244 34.9956C35.7244 28.0508 30.0939 22.4209 23.1482 22.4209ZM10.432 34.9956C10.432 27.9735 16.1252 22.281 23.1482 22.281C30.1712 22.281 35.8644 27.9735 35.8644 34.9956C35.8644 42.0177 30.1712 47.7102 23.1482 47.7102C16.1252 47.7102 10.432 42.0177 10.432 34.9956Z" fill="white"/>
<path fill-rule="evenodd" clip-rule="evenodd" d="M23.5903 25.7071C16.6447 25.7071 11.0141 31.3369 11.0141 38.2818C11.0141 45.2266 16.6447 50.8564 23.5903 50.8564C30.536 50.8564 36.1666 45.2266 36.1666 38.2818C36.1666 31.3369 30.536 25.7071 23.5903 25.7071ZM10.8741 38.2818C10.8741 31.2597 16.5674 25.5671 23.5903 25.5671C30.6133 25.5671 36.3065 31.2597 36.3065 38.2818C36.3065 45.3038 30.6133 50.9964 23.5903 50.9964C16.5674 50.9964 10.8741 45.3038 10.8741 38.2818Z" fill="white"/>
<path fill-rule="evenodd" clip-rule="evenodd" d="M23.4327 28.8213C16.5308 29.5985 11.5658 35.8229 12.343 42.7239C13.1202 49.625 19.3454 54.5894 26.2473 53.8123C33.1492 53.0352 38.1143 46.8108 37.337 39.9097C36.5598 33.0087 30.3347 28.0442 23.4327 28.8213ZM12.2039 42.7396C11.4181 35.7617 16.4384 29.4681 23.4171 28.6823C30.3958 27.8965 36.6902 32.9162 37.4761 39.8941C38.262 46.8719 33.2417 53.1656 26.263 53.9513C19.2843 54.7371 12.9898 49.7174 12.2039 42.7396Z" fill="white"/>
<path fill-rule="evenodd" clip-rule="evenodd" d="M26.8575 31.376C19.9119 31.376 14.2813 37.0059 14.2813 43.9507C14.2813 50.8955 19.9119 56.5254 26.8575 56.5254C33.8032 56.5254 39.4338 50.8955 39.4338 43.9507C39.4338 37.0059 33.8032 31.376 26.8575 31.376ZM14.1414 43.9507C14.1414 36.9286 19.8346 31.2361 26.8575 31.2361C33.8805 31.2361 39.5737 36.9286 39.5737 43.9507C39.5737 50.9728 33.8805 56.6653 26.8575 56.6653C19.8346 56.6653 14.1414 50.9728 14.1414 43.9507Z" fill="white"/>
<path fill-rule="evenodd" clip-rule="evenodd" d="M20.5774 37.0599C15.6661 41.9706 15.6661 49.9323 20.5774 54.843C25.4887 59.7537 33.4514 59.7537 38.3627 54.843C43.274 49.9323 43.274 41.9706 38.3627 37.0599C33.4514 32.1492 25.4887 32.1492 20.5774 37.0599ZM20.4784 54.942C15.5125 49.9766 15.5125 41.9263 20.4784 36.9609C25.4444 31.9956 33.4957 31.9956 38.4617 36.9609C43.4276 41.9263 43.4276 49.9766 38.4617 54.942C33.4957 59.9073 25.4444 59.9073 20.4784 54.942Z" fill="white"/>
<path fill-rule="evenodd" clip-rule="evenodd" d="M32.5273 34.6429C25.5817 34.6429 19.9511 40.2728 19.9511 47.2176C19.9511 54.1624 25.5817 59.7923 32.5273 59.7923C39.473 59.7923 45.1036 54.1624 45.1036 47.2176C45.1036 40.2728 39.473 34.6429 32.5273 34.6429ZM19.8112 47.2176C19.8112 40.1955 25.5044 34.503 32.5273 34.503C39.5503 34.503 45.2435 40.1955 45.2435 47.2176C45.2435 54.2397 39.5503 59.9322 32.5273 59.9322C25.5044 59.9322 19.8112 54.2397 19.8112 47.2176Z" fill="white"/>
<path fill-rule="evenodd" clip-rule="evenodd" d="M35.7946 35.0656C28.8489 35.0656 23.2183 40.6955 23.2183 47.6403C23.2183 54.5851 28.8489 60.215 35.7946 60.215C42.7402 60.215 48.3708 54.5851 48.3708 47.6403C48.3708 40.6955 42.7402 35.0656 35.7946 35.0656ZM23.0784 47.6403C23.0784 40.6182 28.7716 34.9257 35.7946 34.9257C42.8175 34.9257 48.5107 40.6182 48.5107 47.6403C48.5107 54.6624 42.8175 60.3549 35.7946 60.3549C28.7716 60.3549 23.0784 54.6624 23.0784 47.6403Z" fill="white"/>
<path fill-rule="evenodd" clip-rule="evenodd" d="M39.0618 34.6429C32.1161 34.6429 26.4855 40.2728 26.4855 47.2176C26.4855 54.1624 32.1161 59.7923 39.0618 59.7923C46.0074 59.7923 51.638 54.1624 51.638 47.2176C51.638 40.2728 46.0074 34.6429 39.0618 34.6429ZM26.3456 47.2176C26.3456 40.1955 32.0388 34.503 39.0618 34.503C46.0847 34.503 51.778 40.1955 51.778 47.2176C51.778 54.2397 46.0847 59.9322 39.0618 59.9322C32.0388 59.9322 26.3456 54.2397 26.3456 47.2176Z" fill="white"/>
<path fill-rule="evenodd" clip-rule="evenodd" d="M33.2224 37.0572C28.3111 41.9678 28.3111 49.9296 33.2224 54.8403C38.1337 59.751 46.0965 59.751 51.0077 54.8403C55.919 49.9296 55.919 41.9678 51.0077 37.0572C46.0964 32.1465 38.1337 32.1465 33.2224 37.0572ZM33.1235 54.9392C28.1575 49.9739 28.1575 41.9235 33.1235 36.9582C38.0894 31.9929 46.1407 31.9929 51.1067 36.9582C56.0726 41.9235 56.0726 49.9739 51.1067 54.9392C46.1408 59.9046 38.0894 59.9046 33.1235 54.9392Z" fill="white"/>
<path fill-rule="evenodd" clip-rule="evenodd" d="M44.7314 31.376C37.7858 31.376 32.1552 37.0059 32.1552 43.9507C32.1552 50.8955 37.7858 56.5254 44.7314 56.5254C51.6771 56.5254 57.3077 50.8955 57.3077 43.9507C57.3077 37.0059 51.6771 31.376 44.7314 31.376ZM32.0153 43.9507C32.0153 36.9286 37.7085 31.2361 44.7314 31.2361C51.7544 31.2361 57.4476 36.9286 57.4476 43.9507C57.4476 50.9728 51.7544 56.6653 44.7314 56.6653C37.7085 56.6653 32.0153 50.9728 32.0153 43.9507Z" fill="white"/>
<path fill-rule="evenodd" clip-rule="evenodd" d="M37.8498 32.4241C32.9386 37.3348 32.9386 45.2966 37.8498 50.2072C42.7611 55.1179 50.7239 55.1179 55.6352 50.2072C60.5465 45.2966 60.5465 37.3348 55.6352 32.4241C50.7239 27.5134 42.7611 27.5134 37.8498 32.4241ZM37.7509 50.3062C32.785 45.3409 32.785 37.2905 37.7509 32.3252C42.7168 27.3598 50.7682 27.3598 55.7341 32.3252C60.7001 37.2905 60.7001 45.3409 55.7341 50.3062C50.7682 55.2715 42.7168 55.2715 37.7509 50.3062Z" fill="white"/>
<path fill-rule="evenodd" clip-rule="evenodd" d="M47.9987 25.7071C41.053 25.7071 35.4224 31.3369 35.4224 38.2818C35.4224 45.2266 41.053 50.8564 47.9987 50.8564C54.9443 50.8564 60.5749 45.2266 60.5749 38.2818C60.5749 31.3369 54.9443 25.7071 47.9987 25.7071ZM35.2825 38.2818C35.2825 31.2597 40.9757 25.5671 47.9987 25.5671C55.0216 25.5671 60.7149 31.2597 60.7149 38.2818C60.7149 45.3038 55.0216 50.9964 47.9987 50.9964C40.9757 50.9964 35.2825 45.3038 35.2825 38.2818Z" fill="white"/>
</g>
<path fill-rule="evenodd" clip-rule="evenodd" d="M35.8331 20.3762C27.7579 20.3762 21.2118 26.9215 21.2118 34.9957C21.2118 43.0698 27.7579 49.6152 35.8331 49.6152C43.9082 49.6152 50.4544 43.0698 50.4544 34.9957C50.4544 26.9215 43.9082 20.3762 35.8331 20.3762ZM21.0491 34.9957C21.0491 26.8317 27.6681 20.2135 35.8331 20.2135C43.9981 20.2135 50.6171 26.8317 50.6171 34.9957C50.6171 43.1597 43.9981 49.7779 35.8331 49.7779C27.6681 49.7779 21.0491 43.1597 21.0491 34.9957Z" fill="white"/>
<path fill-rule="evenodd" clip-rule="evenodd" d="M35.8327 5.6535C19.6254 5.6535 6.48687 18.7904 6.48687 34.9957C6.48687 51.2009 19.6254 64.3378 35.8327 64.3378C52.0399 64.3378 65.1785 51.2009 65.1785 34.9957C65.1785 18.7904 52.0399 5.6535 35.8327 5.6535ZM6.32935 34.9957C6.32935 18.7035 19.5384 5.496 35.8327 5.496C52.1269 5.496 65.336 18.7035 65.336 34.9957C65.336 51.2879 52.1269 64.4953 35.8327 64.4953C19.5384 64.4953 6.32935 51.2879 6.32935 34.9957Z" fill="white"/>
<path fill-rule="evenodd" clip-rule="evenodd" d="M35.8329 0.1575C16.5899 0.1575 0.990405 15.7551 0.990405 34.9957C0.990405 54.2363 16.5899 69.8338 35.8329 69.8338C55.0759 69.8338 70.6754 54.2363 70.6754 34.9957C70.6754 15.7551 55.0759 0.1575 35.8329 0.1575ZM0.832886 34.9957C0.832886 15.6681 16.5029 0 35.8329 0C55.1629 0 70.8329 15.6681 70.8329 34.9957C70.8329 54.3232 55.1629 69.9913 35.8329 69.9913C16.5029 69.9913 0.832886 54.3232 0.832886 34.9957Z" fill="white"/>
<path fill-rule="evenodd" clip-rule="evenodd" d="M35.833 1.00325C17.0572 1.00325 1.83636 16.2222 1.83636 34.9957C1.83636 53.7692 17.0572 68.9881 35.833 68.9881C54.6088 68.9881 69.8297 53.7692 69.8297 34.9957C69.8297 16.2222 54.6088 1.00325 35.833 1.00325ZM1.67847 34.9957C1.67847 16.135 16.97 0.845367 35.833 0.845367C54.696 0.845367 69.9876 16.135 69.9876 34.9957C69.9876 53.8564 54.696 69.146 35.833 69.146C16.97 69.146 1.67847 53.8564 1.67847 34.9957Z" fill="white"/>
<path fill-rule="evenodd" clip-rule="evenodd" d="M40.2444 1.15363C40.2875 1.15927 40.3179 1.1988 40.3122 1.24193L39.7164 5.79631C39.7108 5.83943 39.6713 5.86982 39.6281 5.86418C39.585 5.85854 39.5546 5.81901 39.5602 5.77588L40.156 1.2215C40.1617 1.17837 40.2012 1.14799 40.2444 1.15363ZM31.3447 1.15363C31.3878 1.14799 31.4273 1.17837 31.433 1.2215L32.0288 5.77588C32.0344 5.81901 32.004 5.85854 31.9609 5.86418C31.9178 5.86982 31.8782 5.83943 31.8726 5.79631L31.2768 1.24193C31.2711 1.1988 31.3015 1.15927 31.3447 1.15363ZM44.6365 2.02041C44.6785 2.03169 44.7035 2.07488 44.6922 2.11688L43.5006 6.55596C43.4893 6.59797 43.4461 6.62288 43.4041 6.61161C43.3621 6.60033 43.3372 6.55714 43.3485 6.51514L44.54 2.07606C44.5513 2.03405 44.5945 2.00914 44.6365 2.02041ZM26.9525 2.03963C26.9945 2.02835 27.0377 2.05327 27.049 2.09527L28.2406 6.53435C28.2518 6.57636 28.2269 6.61955 28.1849 6.63083C28.1429 6.6421 28.0997 6.61719 28.0884 6.57518L26.8968 2.1361C26.8856 2.09409 26.9105 2.0509 26.9525 2.03963ZM48.8552 3.44574C48.8954 3.46237 48.9145 3.50842 48.8979 3.54861L47.1489 7.77631C47.1323 7.8165 47.0863 7.8356 47.0461 7.81898C47.0059 7.80235 46.9868 7.7563 47.0034 7.71611L48.7523 3.48841C48.769 3.44822 48.815 3.42912 48.8552 3.44574ZM22.7338 3.48418C22.774 3.46755 22.8201 3.48666 22.8367 3.52685L24.5856 7.75454C24.6023 7.79473 24.5832 7.84079 24.543 7.85741C24.5028 7.87404 24.4567 7.85493 24.4401 7.81474L22.6911 3.58705C22.6745 3.54686 22.6936 3.5008 22.7338 3.48418ZM56.5799 7.89511C56.6144 7.92159 56.621 7.97102 56.5945 8.00553L53.8077 11.6375C53.7812 11.672 53.7318 11.6785 53.6973 11.652C53.6628 11.6256 53.6562 11.5761 53.6827 11.5416L56.4695 7.90966C56.496 7.87515 56.5454 7.86864 56.5799 7.89511ZM15.0089 7.95292C15.0433 7.92633 15.0928 7.93268 15.1193 7.9671L17.9253 11.5991C17.9519 11.6335 17.9456 11.683 17.9112 11.7095C17.8767 11.7361 17.8273 11.7298 17.8007 11.6954L14.9947 8.06339C14.9681 8.02897 14.9744 7.97951 15.0089 7.95292ZM59.951 10.8229C59.9818 10.8536 59.9818 10.9035 59.951 10.9342L56.703 14.1819C56.6722 14.2126 56.6224 14.2126 56.5916 14.1819C56.5609 14.1511 56.5609 14.1013 56.5916 14.0705L59.8397 10.8229C59.8704 10.7921 59.9203 10.7921 59.951 10.8229ZM11.6572 10.8997C11.6879 10.869 11.7378 10.869 11.7686 10.8997L15.0166 14.1474C15.0474 14.1781 15.0474 14.228 15.0166 14.2587C14.9859 14.2895 14.936 14.2895 14.9052 14.2587L11.6572 11.0111C11.6264 10.9803 11.6264 10.9305 11.6572 10.8997ZM62.8984 14.1743C62.9249 14.2088 62.9183 14.2583 62.8838 14.2848L59.2514 17.0712C59.2169 17.0977 59.1674 17.0911 59.141 17.0566C59.1145 17.0221 59.121 16.9727 59.1555 16.9462L62.7879 14.1598C62.8225 14.1333 62.8719 14.1398 62.8984 14.1743ZM8.72908 14.2512C8.75555 14.2167 8.80499 14.2102 8.83951 14.2367L12.4719 17.0231C12.5064 17.0496 12.513 17.099 12.4865 17.1335C12.46 17.168 12.4106 17.1745 12.376 17.1481L8.74362 14.3616C8.70911 14.3351 8.7026 14.2857 8.72908 14.2512ZM67.3675 21.8981C67.3841 21.9383 67.365 21.9844 67.3248 22.001L63.0966 23.7497C63.0564 23.7663 63.0104 23.7472 62.9937 23.707C62.9771 23.6668 62.9962 23.6208 63.0364 23.6042L67.2646 21.8554C67.3048 21.8388 67.3509 21.8579 67.3675 21.8981ZM4.27916 21.9942C4.29578 21.954 4.34184 21.9349 4.38204 21.9515L8.61026 23.7003C8.65045 23.7169 8.66956 23.7629 8.65293 23.8031C8.63631 23.8433 8.59024 23.8624 8.55005 23.8458L4.32183 22.0971C4.28164 22.0804 4.26253 22.0344 4.27916 21.9942ZM68.8122 26.1163C68.8235 26.1583 68.7986 26.2015 68.7566 26.2127L64.317 27.4042C64.2749 27.4155 64.2317 27.3906 64.2205 27.3485C64.2092 27.3065 64.2341 27.2633 64.2761 27.2521L68.7158 26.0606C68.7578 26.0494 68.801 26.0743 68.8122 26.1163ZM2.83443 26.2124C2.8457 26.1704 2.8889 26.1454 2.93091 26.1567L7.37054 27.3482C7.41255 27.3594 7.43747 27.4026 7.42619 27.4446C7.41492 27.4866 7.37172 27.5115 7.32971 27.5003L2.89008 26.3088C2.84807 26.2976 2.82315 26.2544 2.83443 26.2124ZM69.6791 30.5079C69.6848 30.551 69.6544 30.5906 69.6113 30.5962L65.0563 31.1919C65.0132 31.1976 64.9736 31.1672 64.968 31.1241C64.9624 31.0809 64.9927 31.0414 65.0359 31.0358L69.5908 30.44C69.6339 30.4344 69.6735 30.4648 69.6791 30.5079ZM1.98676 30.604C1.9924 30.5609 2.03194 30.5305 2.07507 30.5361L6.63001 31.1318C6.67314 31.1375 6.70353 31.177 6.69789 31.2201C6.69225 31.2633 6.65271 31.2936 6.60958 31.288L2.05464 30.6923C2.01151 30.6866 1.98112 30.6471 1.98676 30.604ZM64.9872 38.7903C64.9929 38.7472 65.0324 38.7168 65.0755 38.7225L69.6305 39.3182C69.6736 39.3238 69.704 39.3634 69.6983 39.4065C69.6927 39.4496 69.6532 39.48 69.61 39.4744L65.0551 38.8786C65.012 38.873 64.9816 38.8335 64.9872 38.7903ZM6.69789 38.8864C6.70353 38.9296 6.67314 38.9691 6.63001 38.9747L2.07507 39.5704C2.03194 39.5761 1.9924 39.5457 1.98676 39.5026C1.98112 39.4595 2.01151 39.4199 2.05464 39.4143L6.60958 38.8186C6.65271 38.8129 6.69225 38.8433 6.69789 38.8864ZM64.2397 42.5659C64.251 42.5238 64.2942 42.4989 64.3362 42.5102L68.7758 43.7017C68.8178 43.7129 68.8427 43.7561 68.8315 43.7981C68.8202 43.8401 68.777 43.865 68.735 43.8538L64.2953 42.6623C64.2533 42.6511 64.2284 42.6079 64.2397 42.5659ZM7.46463 42.6619C7.47591 42.7039 7.45099 42.7471 7.40898 42.7584L2.96935 43.9499C2.92734 43.9611 2.88414 43.9362 2.87287 43.8942C2.86159 43.8522 2.88651 43.809 2.92852 43.7977L7.36815 42.6063C7.41016 42.595 7.45336 42.6199 7.46463 42.6619ZM63.0322 46.2074C63.0488 46.1672 63.0949 46.1481 63.1351 46.1647L67.3633 47.9134C67.4035 47.93 67.4226 47.9761 67.406 48.0163C67.3893 48.0565 67.3433 48.0756 67.3031 48.059L63.0748 46.3102C63.0347 46.2936 63.0155 46.2476 63.0322 46.2074ZM8.69137 46.3034C8.708 46.3436 8.68889 46.3897 8.6487 46.4063L4.42048 48.155C4.38028 48.1717 4.33422 48.1526 4.31759 48.1124C4.30097 48.0722 4.32007 48.0261 4.36027 48.0095L8.58849 46.2608C8.62868 46.2441 8.67474 46.2633 8.69137 46.3034ZM59.1986 52.8578C59.2251 52.8232 59.2745 52.8167 59.3091 52.8432L62.9415 55.6296C62.976 55.6561 62.9825 55.7056 62.956 55.7401C62.9296 55.7746 62.8801 55.7811 62.8456 55.7546L59.2132 52.9682C59.1787 52.9417 59.1721 52.8923 59.1986 52.8578ZM12.5441 52.9538C12.5706 52.9883 12.5641 53.0378 12.5296 53.0643L8.89716 55.8507C8.86265 55.8772 8.81321 55.8707 8.78673 55.8361C8.76026 55.8016 8.76677 55.7522 8.80128 55.7257L12.4337 52.9393C12.4682 52.9128 12.5177 52.9193 12.5441 52.9538ZM56.6685 55.7517C56.6993 55.721 56.7491 55.721 56.7799 55.7517L60.0279 58.9994C60.0587 59.0301 60.0587 59.08 60.0279 59.1108C59.9972 59.1415 59.9473 59.1415 59.9165 59.1108L56.6685 55.8631C56.6377 55.8324 56.6377 55.7825 56.6685 55.7517ZM15.0935 55.8286C15.1242 55.8594 15.1242 55.9092 15.0935 55.94L11.8454 59.1876C11.8147 59.2184 11.7648 59.2184 11.7341 59.1876C11.7033 59.1569 11.7033 59.107 11.7341 59.0762L14.9821 55.8286C15.0129 55.7979 15.0627 55.7979 15.0935 55.8286ZM53.7934 58.3008C53.8279 58.2743 53.8773 58.2808 53.9038 58.3153L56.6906 61.9473C56.7171 61.9818 56.7105 62.0312 56.676 62.0577C56.6415 62.0842 56.5921 62.0777 56.5656 62.0432L53.7788 58.4112C53.7523 58.3767 53.7589 58.3273 53.7934 58.3008ZM17.9686 58.3584C18.0031 58.3849 18.0096 58.4343 17.9832 58.4688L15.1964 62.1008C15.1699 62.1353 15.1205 62.1418 15.086 62.1154C15.0514 62.0889 15.0449 62.0395 15.0714 62.005L17.8582 58.373C17.8847 58.3385 17.9341 58.332 17.9686 58.3584ZM47.1422 62.1531C47.1823 62.1364 47.2284 62.1555 47.245 62.1957L48.994 66.4234C49.0106 66.4636 48.9915 66.5097 48.9513 66.5263C48.9111 66.5429 48.8651 66.5238 48.8484 66.4836L47.0995 62.2559C47.0829 62.2157 47.102 62.1697 47.1422 62.1531ZM24.6391 62.1915C24.6792 62.2081 24.6984 62.2542 24.6817 62.2944L22.9328 66.5221C22.9162 66.5623 22.8701 66.5814 22.8299 66.5647C22.7897 66.5481 22.7706 66.5021 22.7872 66.4619L24.5362 62.2342C24.5528 62.194 24.5989 62.1749 24.6391 62.1915ZM43.5002 63.3797C43.5422 63.3684 43.5854 63.3933 43.5967 63.4353L44.7883 67.8744C44.7996 67.9164 44.7746 67.9596 44.7326 67.9709C44.6906 67.9821 44.6474 67.9572 44.6361 67.9152L43.4445 63.4761C43.4333 63.4341 43.4582 63.3909 43.5002 63.3797ZM28.281 63.3989C28.323 63.4101 28.3479 63.4533 28.3367 63.4953L27.1451 67.9344C27.1338 67.9764 27.0906 68.0013 27.0486 67.9901C27.0066 67.9788 26.9817 67.9356 26.9929 67.8936L28.1845 63.4545C28.1958 63.4125 28.239 63.3876 28.281 63.3989ZM39.7242 64.1271C39.7674 64.1214 39.8069 64.1518 39.8125 64.195L40.4083 68.7493C40.414 68.7925 40.3836 68.832 40.3405 68.8376C40.2973 68.8433 40.2578 68.8129 40.2521 68.7698L39.6563 64.2154C39.6507 64.1723 39.6811 64.1327 39.7242 64.1271ZM32.057 64.1463C32.1001 64.1519 32.1305 64.1915 32.1249 64.2346L31.5291 68.789C31.5234 68.8321 31.4839 68.8625 31.4408 68.8568C31.3976 68.8512 31.3672 68.8117 31.3729 68.7686L31.9687 64.2142C31.9743 64.1711 32.0139 64.1407 32.057 64.1463Z" fill="white"/>
<g opacity="0.68">
<path fill-rule="evenodd" clip-rule="evenodd" d="M35.8331 0.0395813C35.855 0.0395813 35.8727 0.0572101 35.8727 0.0789563V69.9128C35.8727 69.9346 35.855 69.9522 35.8331 69.9522C35.8113 69.9522 35.7936 69.9346 35.7936 69.9128V0.0789563C35.7936 0.0572101 35.8113 0.0395813 35.8331 0.0395813Z" fill="white"/>
<path fill-rule="evenodd" clip-rule="evenodd" d="M18.3621 4.73355C18.3809 4.72268 18.405 4.72913 18.4159 4.74796L53.3371 65.2232C53.348 65.2421 53.3416 65.2661 53.3227 65.277C53.3039 65.2879 53.2798 65.2814 53.2689 65.2626L18.3477 4.78734C18.3368 4.76851 18.3433 4.74443 18.3621 4.73355Z" fill="white"/>
<path fill-rule="evenodd" clip-rule="evenodd" d="M5.56705 17.5271C5.57793 17.5083 5.60201 17.5018 5.62084 17.5127L66.1036 52.4296C66.1224 52.4405 66.1289 52.4646 66.118 52.4834C66.1071 52.5022 66.083 52.5087 66.0642 52.4978L5.58146 17.5809C5.56263 17.57 5.55618 17.5459 5.56705 17.5271Z" fill="white"/>
<path fill-rule="evenodd" clip-rule="evenodd" d="M0.872559 34.9959C0.872559 34.974 0.89019 34.9563 0.911938 34.9563H70.7544C70.7762 34.9563 70.7938 34.974 70.7938 34.9959C70.7938 35.0177 70.7762 35.0354 70.7544 35.0354H0.911938C0.89019 35.0354 0.872559 35.0177 0.872559 34.9959Z" fill="white"/>
<path fill-rule="evenodd" clip-rule="evenodd" d="M66.118 17.5271C66.1289 17.5459 66.1224 17.57 66.1036 17.5809L5.62084 52.4978C5.60201 52.5087 5.57793 52.5022 5.56705 52.4834C5.55618 52.4646 5.56263 52.4405 5.58146 52.4296L66.0642 17.5127C66.083 17.5018 66.1071 17.5083 66.118 17.5271Z" fill="white"/>
<path fill-rule="evenodd" clip-rule="evenodd" d="M53.3227 4.73355C53.3416 4.74443 53.348 4.76851 53.3371 4.78734L18.4159 65.2626C18.405 65.2814 18.3809 65.2879 18.3621 65.277C18.3433 65.2661 18.3368 65.2421 18.3477 65.2232L53.2689 4.74796C53.2798 4.72913 53.3039 4.72268 53.3227 4.73355Z" fill="white"/>
</g>
<path fill-rule="evenodd" clip-rule="evenodd" d="M35.8523 20.2353C35.8906 20.2353 35.9234 20.2629 35.9298 20.3007L37.871 31.6002C37.8741 31.6184 37.8708 31.6371 37.8615 31.653L35.9011 35.0352C35.887 35.0595 35.861 35.0745 35.8328 35.0744C35.8047 35.0744 35.7787 35.0593 35.7647 35.0349L33.8236 31.6527C33.8144 31.6368 33.8111 31.6182 33.8143 31.6001L35.7746 20.3006C35.7812 20.2628 35.814 20.2353 35.8523 20.2353ZM33.9743 31.599L35.8333 34.838L37.7109 31.5987L35.8518 20.777L33.9743 31.599Z" fill="#00DFFE"/>
<path d="M35.8329 34.9957V20.314L37.7932 31.6135L35.8329 34.9957Z" fill="#00DFFE"/>
<path fill-rule="evenodd" clip-rule="evenodd" d="M35.8327 34.9169C35.8609 34.9168 35.887 34.9318 35.9011 34.9562L37.8615 38.3384C37.8707 38.3543 37.8741 38.373 37.871 38.3911L35.9299 49.7098C35.9234 49.7476 35.8906 49.7752 35.8523 49.7753C35.814 49.7753 35.7812 49.7478 35.7746 49.71L33.8143 38.4105C33.8111 38.3925 33.8144 38.3739 33.8235 38.358L35.7646 34.9567C35.7786 34.9322 35.8046 34.917 35.8327 34.9169ZM35.8335 35.1536L33.9743 38.4115L35.8518 49.2332L37.7109 38.3926L35.8335 35.1536Z" fill="#00DFFE"/>
<path d="M35.8329 34.9957V49.6966L37.7932 38.3779L35.8329 34.9957Z" fill="#00DFFE"/>
<path fill-rule="evenodd" clip-rule="evenodd" d="M39.1957 32.9864C39.2115 32.9773 39.23 32.9741 39.248 32.9772L50.5489 34.9181C50.5867 34.9246 50.6143 34.9573 50.6143 34.9956C50.6144 35.0339 50.5868 35.0667 50.549 35.0733L39.2482 37.0334C39.23 37.0365 39.2113 37.0332 39.1954 37.024L35.7936 35.0639C35.7691 35.0498 35.7541 35.0237 35.7542 34.9955C35.7542 34.9673 35.7694 34.9413 35.7939 34.9273L39.1957 32.9864ZM39.2492 33.1372L35.9912 34.996L39.2493 36.8733L50.0726 34.9961L39.2492 33.1372Z" fill="#00DFFE"/>
<path d="M35.8329 34.9957H50.5356L39.2347 36.9558L35.8329 34.9957Z" fill="#00DFFE"/>
<path fill-rule="evenodd" clip-rule="evenodd" d="M32.4369 32.9772C32.4549 32.9741 32.4734 32.9773 32.4892 32.9864L35.891 34.9273C35.9155 34.9413 35.9307 34.9673 35.9307 34.9955C35.9308 35.0237 35.9158 35.0498 35.8913 35.0639L32.4895 37.024C32.4736 37.0332 32.4549 37.0365 32.4367 37.0334L21.1359 35.0733C21.0981 35.0667 21.0705 35.0339 21.0706 34.9956C21.0706 34.9573 21.0982 34.9246 21.136 34.9181L32.4369 32.9772ZM21.6123 34.9961L32.4356 36.8733L35.6937 34.996L32.4357 33.1372L21.6123 34.9961Z" fill="#00DFFE"/>
<path d="M35.8521 34.9957H21.1494L32.4503 36.9558L35.8521 34.9957Z" fill="#00DFFE"/>
<path fill-rule="evenodd" clip-rule="evenodd" d="M29.0505 28.2141C29.0775 28.1871 29.12 28.1833 29.1513 28.2052L33.9369 31.5489C33.9464 31.5556 33.9543 31.5642 33.9601 31.5743L35.9012 34.9564C35.919 34.9873 35.9138 35.0262 35.8886 35.0513C35.8635 35.0765 35.8246 35.0816 35.7937 35.0639L32.4112 33.123C32.4011 33.1173 32.3924 33.1094 32.3858 33.0999L29.0417 28.3149C29.0198 28.2836 29.0235 28.2411 29.0505 28.2141ZM29.4252 28.5887L32.5048 32.9952L35.6198 34.7826L33.8323 31.668L29.4252 28.5887Z" fill="#00DFFE"/>
<path d="M35.833 34.9957L33.8919 31.6135L29.1063 28.2698L35.833 34.9957Z" fill="#00DFFE"/>
<path fill-rule="evenodd" clip-rule="evenodd" d="M35.8884 34.9398C35.9137 34.9649 35.919 35.0038 35.9013 35.0347L33.9602 38.4361C33.9544 38.4462 33.9465 38.4549 33.9369 38.4616L29.1513 41.8053C29.12 41.8272 29.0775 41.8235 29.0505 41.7965C29.0235 41.7695 29.0198 41.727 29.0417 41.6957L32.3858 36.9107C32.3924 36.9013 32.4009 36.8934 32.4109 36.8877L35.7934 34.9275C35.8242 34.9097 35.8632 34.9147 35.8884 34.9398ZM32.5049 37.0152L29.4252 41.4218L33.8322 38.3427L35.6198 35.2102L32.5049 37.0152Z" fill="#00DFFE"/>
<path d="M35.833 34.9957L33.8919 38.3971L29.1063 41.7408L35.833 34.9957Z" fill="#00DFFE"/>
<path fill-rule="evenodd" clip-rule="evenodd" d="M42.6731 28.2141C42.7001 28.2411 42.7039 28.2836 42.682 28.3149L39.3378 33.0999C39.3312 33.1094 39.3224 33.1174 39.3123 33.1231L35.9105 35.064C35.8796 35.0817 35.8407 35.0764 35.8156 35.0511C35.7905 35.0259 35.7855 34.9869 35.8033 34.9562L37.7637 31.574C37.7695 31.5641 37.7773 31.5555 37.7867 31.5489L42.5723 28.2052C42.6036 28.1833 42.6461 28.1871 42.6731 28.2141ZM37.8912 31.6681L36.086 34.7826L39.2189 32.9951L42.2984 28.5887L37.8912 31.6681Z" fill="#00DFFE"/>
<path d="M35.8713 34.9957L37.8317 31.6135L42.6173 28.2698L35.8713 34.9957Z" fill="#00DFFE"/>
<path fill-rule="evenodd" clip-rule="evenodd" d="M35.8158 34.94C35.841 34.9148 35.8799 34.9097 35.9108 34.9275L39.3126 36.8876C39.3226 36.8933 39.3312 36.9012 39.3378 36.9107L42.682 41.6957C42.7039 41.727 42.7001 41.7695 42.6731 41.7965C42.6461 41.8235 42.6036 41.8272 42.5723 41.8053L37.7867 38.4616C37.7773 38.455 37.7694 38.4464 37.7636 38.4364L35.8032 35.035C35.7855 35.0041 35.7906 34.9652 35.8158 34.94ZM36.086 35.2102L37.8913 38.3425L42.2984 41.4218L39.2188 37.0153L36.086 35.2102Z" fill="#00DFFE"/>
<path d="M35.8713 34.9957L37.8317 38.3971L42.6173 41.7408L35.8713 34.9957Z" fill="#00DFFE"/>
<path d="M14.6149 32.017C14.5573 32.017 14.4804 31.9786 14.4227 31.9402C14.3651 31.9017 14.3074 31.8633 14.269 31.8249C14.1729 31.7288 14.0768 31.6327 13.9999 31.5174C13.923 31.4021 13.8462 31.2868 13.8077 31.1523C13.7501 31.0178 13.7308 30.8833 13.7308 30.7295C13.7308 30.5758 13.7885 30.4028 13.8846 30.2683C13.9807 30.1338 14.1152 30.0377 14.2305 29.9609C14.4996 29.8263 14.7879 29.7687 15.057 29.7495C15.5951 29.711 16.1332 29.7879 16.6329 29.9032C17.1518 30.0185 17.6323 30.1722 18.1128 30.3836C17.5939 30.3452 17.0942 30.2683 16.5753 30.2107C16.0756 30.153 15.5567 30.1146 15.0762 30.153C14.9609 30.153 14.8455 30.1722 14.7302 30.1915C14.6149 30.2107 14.4996 30.2491 14.4035 30.2875C14.3074 30.326 14.2305 30.3836 14.1729 30.4605C14.1152 30.5374 14.0768 30.6142 14.0576 30.7295C14.0191 30.9409 14.096 31.1715 14.1921 31.4021C14.2498 31.5174 14.3074 31.6327 14.3651 31.7288C14.4035 31.7864 14.4419 31.8249 14.4804 31.8825C14.5188 31.9402 14.5573 31.9978 14.6149 32.017Z" fill="#66ECFE"/>
<path d="M15.6913 27.3858C15.6336 27.3858 15.5568 27.4051 15.4991 27.4243C15.4414 27.4435 15.3838 27.4819 15.3261 27.5011C15.2108 27.5588 15.1147 27.6357 15.0186 27.7125C14.8264 27.8663 14.6727 28.0584 14.615 28.2506C14.5766 28.3467 14.5766 28.4428 14.5958 28.5388C14.615 28.6349 14.6727 28.7118 14.7303 28.8079C14.8072 28.8847 14.8841 28.9616 14.9802 29.0385C15.0763 29.1153 15.1724 29.173 15.2685 29.2306C15.6913 29.4805 16.1526 29.6534 16.633 29.8264C17.1135 29.9993 17.594 30.1531 18.0937 30.3452C17.5748 30.326 17.0559 30.2491 16.5562 30.1338C16.0565 30.0185 15.5375 29.8456 15.0763 29.5766C14.8456 29.442 14.615 29.2691 14.442 29.0193C14.3459 28.904 14.2883 28.7502 14.2499 28.5965C14.2306 28.4428 14.2499 28.2698 14.3267 28.1161C14.3844 27.9816 14.4805 27.8663 14.5958 27.7702C14.6919 27.6741 14.8072 27.5972 14.9225 27.5204C15.0378 27.4627 15.1724 27.4051 15.2877 27.3666C15.3453 27.3474 15.4222 27.3282 15.4799 27.3282C15.5568 27.3666 15.6144 27.3666 15.6913 27.3858Z" fill="#66ECFE"/>
<path d="M21.284 20.9866C21.5339 20.7368 21.8798 20.5638 22.2642 20.5446C22.6294 20.5254 23.0138 20.6407 23.3213 20.9097C23.475 21.0443 23.5903 21.198 23.6864 21.3709C23.7825 21.5439 23.821 21.7553 23.8402 21.9475C23.8594 22.1588 23.821 22.351 23.7441 22.5432C23.6672 22.7353 23.5519 22.9083 23.4174 23.062C23.2636 23.2158 23.0906 23.3311 22.8984 23.4079C22.7062 23.4848 22.4948 23.5232 22.3026 23.504C22.0912 23.504 21.899 23.4464 21.7261 23.3503C21.5531 23.2542 21.3801 23.1389 21.2648 22.9852C21.015 22.6969 20.8804 22.3126 20.8996 21.9282C20.8612 21.6015 21.015 21.2364 21.284 20.9866ZM21.284 20.9866C21.0342 21.2364 20.8804 21.6015 20.9189 21.9667C20.9381 22.1396 20.9765 22.3126 21.0534 22.4663C21.1303 22.62 21.2456 22.7546 21.3609 22.8699C21.6108 23.0812 21.9567 23.1773 22.2642 23.1581C22.5717 23.1389 22.8792 23.0044 23.0906 22.793C23.302 22.5816 23.4366 22.2741 23.4558 21.9667C23.475 21.6592 23.3789 21.3133 23.1483 21.0635C23.033 20.929 22.8984 20.8329 22.7447 20.756C22.5909 20.6791 22.418 20.6407 22.245 20.6215C21.899 20.5831 21.5339 20.7368 21.284 20.9866Z" fill="#66ECFE"/>
<path d="M18.2474 21.8898C18.1706 21.8706 18.0745 21.813 18.0168 21.7361C17.9591 21.6592 17.9207 21.5632 17.9015 21.4479C17.9015 21.3326 17.9207 21.2173 17.9784 21.1404C18.036 21.0443 18.1129 20.9674 18.209 20.9098C18.4012 20.7945 18.6318 20.7753 18.824 20.7945C19.0162 20.8137 19.2084 20.8714 19.3814 20.9482C19.7273 21.0635 20.0156 21.2173 20.3231 21.2557C20.4 21.2749 20.4769 21.2749 20.5537 21.2749C20.5922 21.2749 20.6306 21.2749 20.6691 21.2557C20.7075 21.2557 20.7459 21.2365 20.7844 21.2365L20.842 21.2173L20.8997 21.198C20.9381 21.1788 20.9766 21.1596 21.015 21.1404C21.0534 21.1212 21.0919 21.102 21.1303 21.0827C21.1687 21.0635 21.2072 21.0443 21.2456 21.0059C21.1687 21.1596 21.0342 21.3133 20.8612 21.4094C20.6883 21.5247 20.4961 21.5632 20.3039 21.5632C20.1117 21.5632 19.9195 21.5247 19.7273 21.4863C19.5543 21.4286 19.3814 21.371 19.2276 21.3133C19.1507 21.2749 19.0739 21.2557 18.997 21.2365C18.9201 21.2173 18.8432 21.198 18.7664 21.1788C18.6126 21.1404 18.4781 21.1404 18.3627 21.198C18.3051 21.2173 18.2474 21.2557 18.1898 21.2941C18.1513 21.3326 18.1129 21.3902 18.0937 21.4671C18.0745 21.5247 18.0745 21.6016 18.0937 21.6785C18.1321 21.7361 18.1898 21.813 18.2474 21.8898Z" fill="#66ECFE"/>
<path d="M22.1489 17.9504C22.072 17.8927 22.0144 17.8351 21.9375 17.8158C21.8606 17.7966 21.7838 17.7966 21.7261 17.8158C21.6684 17.8351 21.5916 17.8735 21.5531 17.9119C21.5147 17.9504 21.4762 18.008 21.457 18.0849C21.4186 18.2194 21.4186 18.3539 21.4378 18.4884C21.457 18.5653 21.4762 18.6422 21.4955 18.719C21.5147 18.7959 21.5531 18.8728 21.5723 18.9496C21.63 19.1034 21.7069 19.2763 21.7453 19.4493C21.803 19.6222 21.8414 19.8144 21.8222 20.0258C21.8222 20.2179 21.7645 20.4293 21.6684 20.5831C21.5723 20.756 21.4186 20.8713 21.2648 20.9674C21.2841 20.929 21.3033 20.8905 21.3417 20.8521C21.3609 20.8137 21.3801 20.7752 21.3994 20.7368C21.4186 20.6984 21.4378 20.6599 21.457 20.6215L21.4762 20.5638L21.4955 20.5062C21.5147 20.4678 21.5147 20.4293 21.5147 20.3909C21.5147 20.3525 21.5339 20.314 21.5339 20.2756C21.5339 20.1987 21.5339 20.1219 21.5147 20.045C21.4762 19.7375 21.3225 19.4301 21.188 19.1034C21.1303 18.9304 21.0726 18.7575 21.0342 18.5461C21.015 18.3539 21.0342 18.1041 21.1495 17.9311C21.2072 17.8351 21.2841 17.7582 21.3801 17.7005C21.4762 17.6429 21.5916 17.6045 21.6877 17.6045C21.803 17.6045 21.8991 17.6429 21.9759 17.7005C22.072 17.7774 22.1297 17.8735 22.1489 17.9504Z" fill="#66ECFE"/>
<path d="M27.7224 13.934C28.0876 13.8187 28.4527 13.7227 28.8179 13.6266C29.1831 13.5305 29.529 13.4344 29.8942 13.3383C30.2593 13.2422 30.6053 13.1269 30.9705 13.0309C31.3356 12.9348 31.6816 12.8195 32.0659 12.7234C31.7584 12.9732 31.4317 13.1654 31.0858 13.3383C30.7398 13.5113 30.3747 13.6458 30.0095 13.7419C29.6443 13.838 29.2599 13.9148 28.8756 13.9533C28.4912 13.9725 28.1068 13.9917 27.7224 13.934Z" fill="#66ECFE"/>
<path d="M28.9141 18.1233C29.2216 17.8735 29.5483 17.6813 29.8942 17.5084C30.2402 17.3354 30.6054 17.2009 30.9705 17.1048C31.3357 17.0087 31.7201 16.9319 32.1044 16.8934C32.4888 16.855 32.8732 16.855 33.2576 16.8934C32.8924 17.0087 32.5273 17.1048 32.1621 17.2009C31.7969 17.297 31.451 17.3931 31.0858 17.4891C30.7207 17.5852 30.3747 17.7005 30.0096 17.7966C29.6444 17.9119 29.2792 18.0272 28.9141 18.1233Z" fill="#66ECFE"/>
<path d="M29.2406 13.7035C29.452 13.9725 29.6058 14.28 29.7403 14.5874C29.8748 14.8949 29.9901 15.2024 30.0862 15.5291C30.1823 15.8557 30.2592 16.1824 30.2977 16.5091C30.3361 16.8358 30.3553 17.1817 30.3169 17.5276C30.1823 17.2009 30.0862 16.8935 29.9901 16.586C29.8941 16.2785 29.798 15.9518 29.7019 15.6444C29.6058 15.3369 29.5289 15.0102 29.4328 14.7027C29.3559 14.376 29.279 14.0494 29.2406 13.7035Z" fill="#66ECFE"/>
<path d="M30.7397 13.2807C30.8742 13.5881 30.9896 13.9148 31.0856 14.2223C31.1817 14.5298 31.2778 14.8564 31.3547 15.1639C31.4508 15.4714 31.5277 15.7981 31.6046 16.1248C31.6814 16.4514 31.7583 16.7589 31.816 17.1048C31.6046 16.8358 31.4316 16.5475 31.2971 16.2401C31.1625 15.9326 31.0472 15.6059 30.9511 15.2984C30.855 14.9717 30.7974 14.6451 30.7589 14.3184C30.7205 13.9533 30.7013 13.6266 30.7397 13.2807Z" fill="#66ECFE"/>
<path d="M41.0606 16.7397C40.9837 17.0279 40.8107 17.2777 40.5801 17.4699C40.3303 17.6429 40.0228 17.7389 39.696 17.6813C39.5423 17.6621 39.3693 17.5852 39.2348 17.5083C39.1002 17.4123 38.9849 17.297 38.8888 17.1432C38.7159 16.855 38.6582 16.4899 38.7351 16.1439C38.8119 15.8173 39.0426 15.5098 39.3501 15.3368C39.5038 15.26 39.6576 15.2023 39.8306 15.1831C40.0035 15.1639 40.1573 15.1831 40.311 15.2408C40.6185 15.3561 40.8492 15.5867 40.9837 15.8557C41.1182 16.1632 41.1375 16.4706 41.0606 16.7397ZM41.0606 16.7397C41.1375 16.4514 41.0798 16.1439 40.9261 15.8941C40.8492 15.7788 40.7531 15.6635 40.6378 15.5867C40.5225 15.5098 40.3879 15.4714 40.2534 15.4521C39.9843 15.4137 39.7345 15.4906 39.5231 15.6443C39.3309 15.798 39.1771 16.0094 39.1195 16.24C39.0618 16.4706 39.081 16.7397 39.1771 16.9511C39.2732 17.1817 39.4654 17.3738 39.7152 17.4699C39.8498 17.5083 39.9843 17.5468 40.1189 17.5276C40.2534 17.5083 40.3879 17.4699 40.5225 17.4123C40.7915 17.2777 40.9837 17.0279 41.0606 16.7397Z" fill="#66ECFE"/>
<path d="M42.1561 13.4344C41.6372 13.5113 41.1375 13.6266 40.6955 13.838C40.2534 14.0494 39.8883 14.376 39.5808 14.7604C39.5423 14.818 39.5039 14.8565 39.4654 14.9141L39.4078 14.991C39.3886 15.0102 39.3694 15.0486 39.3694 15.0678C39.3117 15.1639 39.254 15.2792 39.1964 15.3945C39.1003 15.6251 39.0234 15.8557 38.9657 16.0863C38.9081 16.3169 38.8889 16.5668 38.9273 16.7974C38.9465 16.9127 38.985 17.028 39.0426 17.1433C39.1003 17.2586 39.1964 17.3354 39.2925 17.4315C39.1579 17.3931 39.0426 17.3162 38.9465 17.2201C38.8504 17.124 38.7736 16.9895 38.7351 16.8742C38.639 16.6052 38.6198 16.3362 38.639 16.0479C38.6582 15.7789 38.7351 15.5098 38.8312 15.26C38.8889 15.1255 38.9465 15.0102 39.0042 14.8757C39.0234 14.8372 39.0426 14.818 39.0618 14.7796C39.0811 14.7412 39.1003 14.7219 39.1195 14.7027C39.1579 14.6451 39.1964 14.5874 39.2348 14.5298C39.3117 14.4145 39.4078 14.3184 39.5039 14.2223C39.6 14.1262 39.6961 14.0301 39.8114 13.9533C40.042 13.7803 40.2727 13.6458 40.5417 13.5689C41.0991 13.3383 41.6564 13.3191 42.1561 13.4344Z" fill="#66ECFE"/>
<path d="M41.618 14.4721C41.6949 14.1839 41.8678 13.934 42.0985 13.7419C42.3483 13.5689 42.6558 13.4728 42.9826 13.5305C43.1363 13.5497 43.3093 13.6266 43.4438 13.7034C43.5784 13.7995 43.6937 13.9148 43.7898 14.0686C43.9627 14.3568 44.0204 14.7219 43.9435 15.0678C43.8666 15.3945 43.636 15.702 43.3285 15.8749C43.1748 15.9518 43.021 16.0095 42.848 16.0287C42.6751 16.0479 42.5213 16.0287 42.3675 15.971C42.06 15.8557 41.8294 15.6251 41.6949 15.3561C41.5796 15.0678 41.5411 14.7604 41.618 14.4721ZM41.618 14.4721C41.5411 14.7604 41.5988 15.0678 41.7525 15.3177C41.8294 15.433 41.9255 15.5483 42.0408 15.6251C42.1561 15.702 42.2907 15.7404 42.4252 15.7596C42.6943 15.7981 42.9441 15.7212 43.1555 15.5675C43.3477 15.4137 43.5015 15.2024 43.5591 14.9718C43.6168 14.7412 43.5976 14.4721 43.5015 14.2607C43.4054 14.0301 43.2132 13.838 42.9633 13.7419C42.8288 13.7034 42.6943 13.665 42.5597 13.6842C42.4252 13.7034 42.2907 13.7419 42.1561 13.7995C41.8871 13.934 41.6949 14.2031 41.618 14.4721Z" fill="#66ECFE"/>
<path d="M40.5225 17.7966C41.0414 17.7198 41.5411 17.6045 41.9831 17.3931C42.4252 17.1817 42.7903 16.855 43.0978 16.4707C43.1363 16.413 43.1747 16.3746 43.2131 16.3169L43.2708 16.2401C43.29 16.2208 43.3092 16.1824 43.3092 16.1632C43.3669 16.0671 43.4246 15.9518 43.4822 15.8365C43.5783 15.6059 43.6552 15.3753 43.7128 15.1447C43.7705 14.9141 43.7897 14.6643 43.7513 14.4337C43.7321 14.3184 43.6936 14.2031 43.636 14.0878C43.5783 13.9725 43.4822 13.8956 43.3861 13.7995C43.5207 13.838 43.636 13.9148 43.7321 14.0109C43.8282 14.107 43.905 14.2415 43.9435 14.3568C44.0396 14.6259 44.0588 14.8949 44.0396 15.1831C44.0204 15.4522 43.9435 15.7212 43.8474 15.971C43.7897 16.1055 43.7321 16.2208 43.6744 16.3554C43.6552 16.3938 43.636 16.413 43.6167 16.4514C43.5975 16.4899 43.5783 16.5091 43.5591 16.5283C43.5207 16.586 43.4822 16.6436 43.4438 16.7013C43.3669 16.8166 43.2708 16.9127 43.1747 17.0087C43.0786 17.1048 42.9825 17.2009 42.8672 17.2778C42.6366 17.4507 42.4059 17.5852 42.1369 17.6621C41.5795 17.8927 41.0222 17.9119 40.5225 17.7966Z" fill="#66ECFE"/>
<path d="M49.5554 21.909C49.3439 22.1012 49.0557 22.2165 48.7481 22.2357C48.4406 22.2357 48.1331 22.1396 47.9025 21.909C47.7872 21.7937 47.6911 21.6592 47.6142 21.5247C47.5373 21.3709 47.4989 21.198 47.4989 21.0443C47.4989 20.6984 47.6334 20.3525 47.9025 20.1219C48.037 20.0066 48.1908 19.9105 48.3445 19.8528C48.4983 19.7952 48.6905 19.776 48.8442 19.7952C49.0172 19.8144 49.171 19.872 49.3247 19.9489C49.4593 20.0258 49.5938 20.1411 49.6899 20.2756C49.8821 20.5254 49.959 20.8521 49.9397 21.1403C49.9013 21.4478 49.7668 21.7169 49.5554 21.909ZM49.5554 21.909C49.7668 21.7169 49.9013 21.4286 49.8821 21.1403C49.8821 21.0058 49.8436 20.8521 49.786 20.7368C49.7283 20.6215 49.6514 20.5062 49.5361 20.4101C49.3439 20.2372 49.0749 20.1603 48.825 20.1603C48.5752 20.1603 48.3445 20.2564 48.1716 20.4293C47.9986 20.5831 47.8833 20.8137 47.8448 21.0635C47.8064 21.3133 47.8833 21.5631 48.037 21.7937C48.1139 21.909 48.21 21.9859 48.3445 22.0628C48.4599 22.1396 48.5944 22.1781 48.7481 22.1973C49.0364 22.2165 49.3247 22.1204 49.5554 21.909Z" fill="#66ECFE"/>
<path d="M50.4202 24.2343C50.3433 24.0613 50.2857 23.8692 50.2857 23.677C50.2857 23.4848 50.3626 23.2735 50.4779 23.1197C50.5932 22.9468 50.7277 22.8123 50.8815 22.697C51.016 22.5817 51.1698 22.4664 51.2851 22.3318C51.5541 22.082 51.804 21.813 51.9962 21.5247C52.1884 21.2365 52.3421 20.929 52.3421 20.6023C52.3613 20.2949 52.2076 19.9874 51.977 19.7568C51.8617 19.6415 51.7271 19.5262 51.5926 19.4685C51.5157 19.4301 51.4388 19.4109 51.362 19.3917C51.2851 19.3724 51.2082 19.3724 51.1313 19.3724C50.9776 19.3724 50.8046 19.4109 50.6508 19.4685C50.4971 19.5262 50.3433 19.6223 50.2088 19.7376C50.0743 19.8529 49.959 19.9874 49.8821 20.1411C49.8436 20.218 49.8052 20.2949 49.786 20.3909C49.7668 20.487 49.7668 20.5639 49.8052 20.66C49.7475 20.5831 49.7283 20.487 49.7091 20.3909C49.7091 20.2949 49.7283 20.1988 49.7475 20.1027C49.8052 19.9105 49.9205 19.7376 50.0358 19.603C50.1704 19.4493 50.3241 19.334 50.4971 19.2379C50.6701 19.1418 50.8815 19.065 51.0929 19.0458C51.3043 19.0265 51.5157 19.065 51.7271 19.1418C51.9193 19.2187 52.0923 19.3532 52.246 19.4877C52.3998 19.6223 52.5151 19.7952 52.6112 19.9874C52.7073 20.1796 52.7457 20.4102 52.7457 20.6215C52.7457 20.8329 52.6881 21.0443 52.592 21.2365C52.5151 21.4286 52.3998 21.6016 52.2845 21.7553C52.0538 22.0628 51.7656 22.3318 51.4581 22.5624C51.3043 22.6777 51.1505 22.793 50.9968 22.8891C50.843 22.9852 50.7085 23.1005 50.5932 23.235C50.4779 23.3695 50.401 23.5233 50.3626 23.6962C50.3626 23.85 50.3818 24.0421 50.4202 24.2343Z" fill="#66ECFE"/>
<path d="M56.3206 27.0976C56.4167 27.136 56.5128 27.1936 56.6089 27.2321C56.705 27.2897 56.7818 27.3474 56.8779 27.4242C56.9548 27.5011 57.0509 27.578 57.1086 27.6549C57.147 27.6933 57.1854 27.7509 57.2047 27.8086C57.2239 27.8662 57.2623 27.9431 57.2623 28.02C57.2623 28.0968 57.2431 28.1929 57.2047 28.2698C57.1662 28.3467 57.0893 28.4043 57.0317 28.4235C56.974 28.462 56.9164 28.4812 56.8587 28.5004C56.8011 28.5196 56.7626 28.5388 56.705 28.558C56.5128 28.6349 56.3014 28.6926 56.1092 28.7502C55.7056 28.8655 55.302 28.9616 54.8984 29.0385C54.4948 29.1153 54.0719 29.173 53.6683 29.1922C54.0527 29 54.4371 28.8655 54.8215 28.731C55.2059 28.5965 55.6095 28.4812 55.9939 28.3659L56.5704 28.1929C56.6089 28.1737 56.6665 28.1737 56.705 28.1545C56.7434 28.1353 56.8011 28.1161 56.8203 28.1161C56.8587 28.0968 56.8779 28.0968 56.8779 28.0776C56.8972 28.0584 56.8972 28.0584 56.8972 28.0392C56.8972 27.9815 56.8779 27.9047 56.8395 27.8278C56.8011 27.7509 56.7434 27.6741 56.6857 27.578C56.5896 27.405 56.4551 27.2513 56.3206 27.0976Z" fill="#66ECFE"/>
<path d="M56.7818 28.3658C56.8779 28.4042 56.974 28.4619 57.07 28.5003C57.1661 28.558 57.243 28.6156 57.3391 28.6925C57.416 28.7694 57.5121 28.8462 57.5697 28.9231C57.6082 28.9615 57.6466 29.0192 57.6658 29.0768C57.6851 29.1345 57.7235 29.2114 57.7235 29.2882C57.7235 29.3651 57.7043 29.4612 57.6658 29.538C57.6274 29.6149 57.5505 29.6726 57.4929 29.6918C57.4352 29.7302 57.3776 29.7494 57.3199 29.7686C57.2622 29.7879 57.2238 29.8071 57.1661 29.8263C56.974 29.9032 56.7625 29.9608 56.5703 30.0185C56.1667 30.1338 55.7631 30.2298 55.3595 30.3067C54.9559 30.3836 54.5331 30.4412 54.1295 30.4604C54.5139 30.2683 54.8983 30.1338 55.2827 29.9992C55.6671 29.8647 56.0707 29.7494 56.455 29.6341L57.0316 29.4612C57.0701 29.442 57.1277 29.442 57.1661 29.4227C57.2046 29.4035 57.2622 29.3843 57.2815 29.3843C57.3199 29.3651 57.3391 29.3651 57.3391 29.3459C57.3583 29.3267 57.3583 29.3267 57.3583 29.3074C57.3583 29.2498 57.3391 29.1729 57.3007 29.0961C57.2622 29.0192 57.2046 28.9423 57.1469 28.8462C57.0508 28.6733 56.9163 28.5195 56.7818 28.3658Z" fill="#66ECFE"/>
<path d="M57.1276 29.6534C57.2237 29.6918 57.3198 29.7495 57.4159 29.7879C57.512 29.8455 57.5889 29.9032 57.6849 29.9801C57.7618 30.0569 57.8579 30.1338 57.9156 30.2107C57.954 30.2491 57.9924 30.3068 58.0117 30.3644C58.0309 30.4221 58.0693 30.4989 58.0693 30.5758C58.0693 30.6527 58.0501 30.7487 58.0117 30.8256C57.9732 30.9025 57.8964 30.9601 57.8387 30.9793C57.781 31.0178 57.7234 31.037 57.6657 31.0562C57.6081 31.0754 57.5696 31.0946 57.512 31.1139C57.3198 31.1907 57.1084 31.2484 56.9162 31.306C56.5126 31.4213 56.109 31.5174 55.7054 31.5943C55.3018 31.6711 54.8789 31.7288 54.4753 31.748C54.8597 31.5558 55.2441 31.4213 55.6285 31.2868C56.0129 31.1523 56.4165 31.037 56.8009 30.9217L57.3774 30.7487C57.4159 30.7295 57.4735 30.7295 57.512 30.7103C57.5504 30.6911 57.6081 30.6719 57.6273 30.6719C57.6657 30.6527 57.6849 30.6527 57.6849 30.6334C57.7042 30.6142 57.7042 30.6142 57.7042 30.595C57.7042 30.5374 57.6849 30.4605 57.6465 30.3836C57.6081 30.3068 57.5504 30.2299 57.4928 30.1338C57.4159 29.9609 57.2813 29.8071 57.1276 29.6534Z" fill="#66ECFE"/>
<path d="M57.4929 30.9409C57.6274 31.0562 57.7427 31.1715 57.8388 31.306C57.9349 31.4406 58.0118 31.6135 58.0502 31.7865C58.0887 31.9594 58.0502 32.1708 57.9541 32.3438C57.8581 32.5167 57.7235 32.6512 57.589 32.7665C57.4352 32.8818 57.2623 32.9587 57.0893 32.9971C56.9163 33.0548 56.7241 33.074 56.5512 33.074C56.3782 33.074 56.186 33.0548 56.013 33.0163C55.84 32.9779 55.6671 32.9203 55.5133 32.8434C55.3596 32.7665 55.2058 32.6897 55.0521 32.5936C54.8983 32.4975 54.7638 32.3822 54.6484 32.2861C54.3986 32.0555 54.1488 31.8249 53.9373 31.5943C53.7067 31.3637 53.4761 31.1331 53.207 30.9601C53.0725 30.8833 52.9379 30.8064 52.7842 30.7488C52.6304 30.6911 52.4767 30.6719 52.3037 30.6719C52.6304 30.595 52.9956 30.6335 53.3031 30.7872C53.6298 30.9217 53.8989 31.1523 54.1488 31.3637C54.3986 31.5751 54.6485 31.8057 54.8983 31.9978C55.1481 32.19 55.4172 32.363 55.6863 32.4975C55.8208 32.5551 55.9746 32.6128 56.1091 32.6512C56.2629 32.6897 56.3974 32.7089 56.5512 32.7089C56.8394 32.7089 57.1469 32.6512 57.3968 32.5167C57.5313 32.4398 57.6274 32.3437 57.7043 32.2284C57.7812 32.1131 57.8196 31.9786 57.8196 31.8249C57.8196 31.6712 57.7812 31.5174 57.7235 31.3829C57.6659 31.21 57.589 31.0754 57.4929 30.9409Z" fill="#66ECFE"/>
<path d="M53.1685 48.3129C53.1877 48.409 53.1877 48.5243 53.1685 48.6204C53.1685 48.7357 53.1493 48.8318 53.1301 48.9471C53.1108 49.0624 53.0724 49.1584 53.034 49.2737C53.0147 49.3314 52.9763 49.389 52.9379 49.4275C52.8994 49.4851 52.861 49.5236 52.7841 49.5812C52.7265 49.6196 52.6304 49.6581 52.5343 49.6389C52.4382 49.6389 52.3805 49.6004 52.3036 49.562C52.246 49.5236 52.2075 49.4851 52.1499 49.4467C52.1114 49.4083 52.073 49.3698 52.0346 49.3506C51.8808 49.2161 51.7271 49.0624 51.5733 48.9278C51.285 48.6396 51.0159 48.3321 50.7469 48.0054C50.497 47.6787 50.2472 47.3521 50.0358 46.9869C50.3817 47.2368 50.6892 47.5058 50.9967 47.7748C51.3042 48.0439 51.5925 48.3321 51.8808 48.6396L52.3036 49.0816C52.3421 49.12 52.3805 49.1584 52.3997 49.1777C52.4382 49.2161 52.4766 49.2545 52.4958 49.2545C52.515 49.2737 52.5535 49.293 52.5535 49.293C52.5727 49.293 52.5919 49.293 52.6111 49.293C52.6496 49.2737 52.7265 49.2161 52.7649 49.1392C52.8225 49.0624 52.861 48.9855 52.8994 48.8894C53.034 48.7164 53.1108 48.5243 53.1685 48.3129Z" fill="#66ECFE"/>
<path d="M52.2846 49.3121C52.3038 49.4082 52.3038 49.5235 52.2846 49.6196C52.2846 49.7349 52.2654 49.831 52.2461 49.9463C52.2269 50.0616 52.1885 50.1577 52.15 50.273C52.1308 50.3306 52.0924 50.3883 52.0539 50.4267C52.0155 50.4844 51.9771 50.5228 51.9002 50.5804C51.8425 50.6189 51.7464 50.6573 51.6504 50.6381C51.5543 50.6381 51.4966 50.5997 51.4197 50.5612C51.3621 50.5228 51.3236 50.4844 51.266 50.4459C51.2275 50.4075 51.1891 50.3691 51.1507 50.3498C50.9969 50.2153 50.8431 50.0616 50.6894 49.9271C50.4011 49.6388 50.132 49.3314 49.863 49.0047C49.6131 48.678 49.3633 48.3513 49.1519 47.9862C49.4978 48.236 49.8053 48.505 50.1128 48.7741C50.4203 49.0431 50.7086 49.3314 50.9969 49.6388L51.4197 50.0808C51.4582 50.1192 51.4966 50.1577 51.5158 50.1769C51.5543 50.2153 51.5927 50.2538 51.6119 50.2538C51.6311 50.273 51.6696 50.2922 51.6696 50.2922C51.6888 50.2922 51.708 50.2922 51.7272 50.2922C51.7657 50.273 51.8425 50.2153 51.881 50.1385C51.9386 50.0616 51.9771 49.9847 52.0155 49.8886C52.15 49.7157 52.2077 49.5235 52.2846 49.3121Z" fill="#66ECFE"/>
<path d="M51.3235 50.2538C51.3235 50.446 51.3042 50.6189 51.285 50.8111C51.2658 50.9072 51.2466 51.0032 51.2082 51.0801C51.1697 51.1762 51.1313 51.2531 51.0736 51.3491C51.0352 51.3876 50.9967 51.426 50.9583 51.4644C50.9006 51.5029 50.843 51.5221 50.7661 51.5221C50.6316 51.5221 50.5163 51.4644 50.4394 51.4068C50.2856 51.2915 50.1511 51.1762 50.0166 51.0417C49.4784 50.542 48.9787 50.0232 48.479 49.4851L48.1139 49.0816C47.9986 48.9663 47.8832 48.851 47.7487 48.7549C47.6142 48.6588 47.4796 48.5819 47.3259 48.5627C47.2874 48.5435 47.249 48.5435 47.2106 48.5435C47.1721 48.5435 47.1337 48.5435 47.1145 48.5435C47.0376 48.5435 46.9799 48.5627 46.9223 48.6011C46.8646 48.6396 46.807 48.678 46.7685 48.7357C46.7301 48.7933 46.6916 48.8702 46.6532 48.9278C46.5956 49.0816 46.5763 49.2545 46.5763 49.4275C46.5763 49.6004 46.5956 49.7734 46.634 49.9463C46.6724 50.1193 46.7301 50.2922 46.7685 50.4652C46.5763 50.1577 46.4226 49.8118 46.3649 49.4275C46.3457 49.2353 46.3265 49.0431 46.3841 48.8317C46.4034 48.7357 46.4418 48.6396 46.4995 48.5435C46.5571 48.4474 46.634 48.3705 46.7301 48.2937C46.9223 48.1592 47.1721 48.1399 47.3835 48.1784C47.5949 48.2168 47.7871 48.2937 47.9601 48.409C48.1331 48.5243 48.2868 48.6396 48.4214 48.7933L48.7865 49.1969C49.2862 49.7349 49.7667 50.273 50.2472 50.7919C50.3625 50.9264 50.497 51.0609 50.6124 51.1762C50.67 51.2338 50.7277 51.2723 50.7661 51.2723C50.8046 51.2723 50.8622 51.2531 50.9199 51.1954C50.9775 51.1378 51.016 51.0801 51.0544 51.0032C51.0928 50.9264 51.1313 50.8495 51.1697 50.7726C51.2274 50.5997 51.285 50.4267 51.3235 50.2538Z" fill="#66ECFE"/>
<path d="M55.9361 36.9557C55.9361 37.5515 55.8593 38.128 55.7439 38.7045C55.6286 39.281 55.4941 39.8575 55.3019 40.4148C55.1289 40.9721 54.9175 41.5293 54.6677 42.0674C54.4178 42.6055 54.1487 43.1243 53.822 43.624C53.995 43.0667 54.168 42.5094 54.3602 41.9521C54.5523 41.3948 54.7253 40.8568 54.8983 40.2995C55.0713 39.7422 55.2442 39.2041 55.4172 38.6468C55.5902 38.0703 55.7632 37.513 55.9361 36.9557Z" fill="#66ECFE"/>
<path d="M54.9562 43.9699C54.9946 43.8162 55.0523 43.6625 55.1099 43.5087L55.2637 43.0475L55.5712 42.1443L55.6096 42.0482H55.7249C56.0325 42.029 56.34 41.9137 56.5706 41.7216C56.8204 41.5294 56.9934 41.2796 57.0895 40.9913C57.1856 40.7031 57.1856 40.3956 57.1087 40.0881C57.0319 39.7999 56.8397 39.5308 56.609 39.3195L56.5129 39.2426L56.5514 39.1465C56.6475 38.839 56.7436 38.5316 56.8204 38.2241L56.955 37.7629C56.9934 37.6092 57.0511 37.4554 57.0895 37.3017C57.0895 37.4554 57.0703 37.6284 57.0703 37.7821C57.0511 37.9359 57.0319 38.1088 57.0126 38.2625C56.9742 38.5892 56.9165 38.8967 56.8589 39.2234L56.8012 39.0504C57.1087 39.2618 57.3586 39.5885 57.4931 39.9536C57.5508 40.1266 57.5892 40.338 57.5892 40.5301C57.5892 40.7223 57.57 40.9145 57.4931 41.1066C57.3778 41.4717 57.1279 41.7984 56.8204 42.029C56.5129 42.2596 56.1285 42.3749 55.7442 42.3557L55.8979 42.2596C55.7634 42.5479 55.6289 42.8361 55.4751 43.1244C55.3982 43.2589 55.3213 43.4126 55.2445 43.5472C55.1291 43.7009 55.0523 43.8354 54.9562 43.9699Z" fill="#66ECFE"/>
<path d="M43.0593 52.1947C42.7518 52.4637 42.3866 52.6751 42.0215 52.848C41.6563 53.021 41.2719 53.1747 40.8683 53.2708C40.4647 53.3861 40.0611 53.4438 39.6575 53.4822C39.2539 53.5014 38.8311 53.5014 38.4275 53.4245C38.8311 53.3285 39.2155 53.2324 39.5999 53.1555C39.9842 53.0594 40.3686 52.9826 40.753 52.8673C41.1374 52.7712 41.5218 52.6559 41.8869 52.5406C42.2905 52.4253 42.6557 52.31 43.0593 52.1947Z" fill="#66ECFE"/>
<path d="M41.7333 56.5185C41.5218 56.0957 41.3681 55.6537 41.2143 55.2117C41.0606 54.7698 40.9261 54.3278 40.8107 53.8666C40.6954 53.4246 40.5801 52.9634 40.5032 52.5022C40.4071 52.041 40.3303 51.5798 40.311 51.1186C40.5224 51.5413 40.6762 51.9833 40.83 52.4253C40.9837 52.8673 41.1182 53.3093 41.2336 53.7705C41.3489 54.2125 41.4642 54.6737 41.5411 55.1349C41.6179 55.5769 41.6948 56.0381 41.7333 56.5185Z" fill="#66ECFE"/>
<path d="M42.2522 55.327C42.2522 55.4423 42.233 55.5576 42.2138 55.6729C42.1946 55.7882 42.1754 55.8843 42.1369 55.9996C42.0985 56.0957 42.0793 56.211 42.0408 56.3071C42.0024 56.4032 41.964 56.4992 41.9255 56.6145L41.8294 56.8644L41.618 56.7106L41.4835 56.6145C41.445 56.5761 41.4066 56.5569 41.3489 56.5185C41.2721 56.4416 41.176 56.3839 41.0991 56.3071C41.0222 56.2302 40.9453 56.1533 40.8685 56.0765C40.7916 55.9996 40.7339 55.9035 40.6763 55.8074C40.7916 55.8267 40.8877 55.8651 41.003 55.9227C41.0991 55.9612 41.1952 56.0188 41.2913 56.0573C41.3874 56.1149 41.4835 56.1726 41.5796 56.2302C41.618 56.2494 41.6757 56.2879 41.7141 56.3263L41.8486 56.4224L41.5411 56.4992C41.5796 56.4032 41.6372 56.3071 41.6757 56.211C41.7333 56.1149 41.7718 56.0188 41.8294 55.9227C41.8871 55.8267 41.9447 55.7498 42.0216 55.6537C42.0985 55.5 42.1754 55.4039 42.2522 55.327Z" fill="#66ECFE"/>
<path d="M33.4496 57.4217C33.2766 57.4025 33.1037 57.4025 32.9307 57.3832C32.8538 57.364 32.7577 57.3448 32.6808 57.3064C32.604 57.2679 32.5271 57.1911 32.4694 57.1334C32.3541 56.9797 32.3157 56.8067 32.2965 56.6338C32.2772 56.4608 32.2772 56.2879 32.2772 56.1149C32.2965 55.769 32.3349 55.4231 32.3926 55.0772C32.4502 54.7313 32.5271 54.4046 32.604 54.0587L32.8538 54.1548C32.7193 54.5007 32.5655 54.8274 32.3926 55.1541C32.2196 55.4808 32.0466 55.8075 31.8352 56.1149C31.7199 56.2687 31.6046 56.4224 31.4893 56.5569C31.4316 56.6338 31.3547 56.6914 31.2778 56.7683C31.201 56.826 31.1049 56.9028 31.0088 56.9413C30.8935 56.9797 30.7589 57.0181 30.6244 56.9797C30.4899 56.9412 30.3745 56.8644 30.2977 56.7683C30.2208 56.653 30.1824 56.5185 30.1631 56.4224C30.1439 56.3071 30.1631 56.211 30.1631 56.1149C30.1824 55.9228 30.2208 55.7306 30.2592 55.5576C30.2977 55.3847 30.3361 55.2117 30.3745 55.0196C30.4514 54.6737 30.4899 54.3278 30.4899 53.9819C30.4899 53.636 30.413 53.3093 30.2977 52.9826C30.1631 52.6751 29.9902 52.3869 29.7403 52.1947C29.4905 52.0025 29.183 51.9641 28.8947 52.0602C28.6064 52.1755 28.3565 52.4253 28.2989 52.7136C28.2604 52.8481 28.2797 53.0018 28.3373 53.1363C28.395 53.2708 28.5103 53.3861 28.6448 53.463C28.7794 53.5399 28.9331 53.5975 29.0869 53.6167C29.2406 53.6167 29.3944 53.5975 29.5289 53.5014C29.6634 53.4246 29.7787 53.3093 29.8748 53.1748C29.8941 53.1363 29.9133 53.0979 29.9517 53.0595L30.0286 52.9442C30.067 52.8673 30.1247 52.7904 30.1824 52.7136C30.3938 52.4061 30.6244 52.0986 30.9319 51.8872C31.0857 51.7719 31.2586 51.6758 31.4316 51.6374C31.5277 51.6182 31.6046 51.599 31.7007 51.5798C31.7968 51.5605 31.8929 51.5605 31.989 51.5605C32.1811 51.5605 32.3733 51.5798 32.5463 51.6374C32.7193 51.6951 32.8923 51.7911 33.0076 51.9257C32.873 51.7911 32.7001 51.7143 32.5271 51.6758C32.3541 51.6374 32.1811 51.6182 31.989 51.6374C31.816 51.6566 31.643 51.6951 31.47 51.7527C31.3163 51.8104 31.1625 51.9064 31.028 52.0217C30.7589 52.2524 30.5475 52.5406 30.3745 52.8481C30.3361 52.9249 30.2784 53.0018 30.24 53.0787L30.1824 53.194C30.1631 53.2324 30.1439 53.2708 30.1055 53.3285C30.0094 53.5014 29.8556 53.6552 29.6827 53.7513C29.5097 53.8666 29.2983 53.9242 29.0869 53.9242C28.8754 53.9242 28.664 53.8473 28.4911 53.7513C28.395 53.6936 28.3181 53.636 28.2412 53.5591C28.1643 53.4822 28.1067 53.4054 28.049 53.3093C27.9337 53.1171 27.9145 52.8673 27.9529 52.6559C27.9914 52.4445 28.1067 52.2523 28.2412 52.0986C28.3181 52.0217 28.395 51.9449 28.4718 51.8872C28.5487 51.8296 28.6448 51.7719 28.7409 51.7335C28.9331 51.6566 29.1637 51.6182 29.3751 51.6566C29.5866 51.6758 29.798 51.7719 29.9709 51.8872C30.1439 52.0025 30.2785 52.1563 30.3938 52.3292C30.5091 52.5022 30.6052 52.6751 30.6821 52.8481C30.8358 53.2132 30.9127 53.5975 30.9127 53.9819C30.9127 54.3662 30.8742 54.7505 30.7974 55.1157C30.7589 55.2886 30.7205 55.4808 30.6821 55.6537C30.6436 55.8267 30.6052 55.9996 30.586 56.1726C30.5667 56.2494 30.5667 56.3263 30.5667 56.4032C30.5667 56.48 30.586 56.5185 30.6052 56.5569C30.6244 56.5953 30.6821 56.6146 30.7205 56.6338C30.7589 56.653 30.8166 56.6338 30.8742 56.6146C30.9896 56.5761 31.1241 56.4608 31.2394 56.3455C31.3547 56.2302 31.47 56.0957 31.5661 55.942C31.7775 55.6537 31.9697 55.3463 32.1427 55.0388C32.3157 54.7313 32.4887 54.4046 32.6424 54.0779L32.8923 54.174C32.7962 54.5007 32.7001 54.8274 32.6232 55.1541C32.5463 55.4808 32.4694 55.8075 32.4502 56.1534C32.431 56.3263 32.431 56.48 32.431 56.653C32.4502 56.826 32.4694 56.9797 32.5463 57.1142C32.5848 57.1911 32.6424 57.2487 32.7193 57.2872C32.7962 57.3256 32.873 57.364 32.9499 57.3832C33.1037 57.3832 33.2959 57.3832 33.4496 57.4217Z" fill="#66ECFE"/>
<path d="M22.9945 52.8865C22.86 52.7904 22.7063 52.6943 22.5525 52.6559C22.3987 52.6175 22.245 52.5983 22.072 52.5983C21.8991 52.5983 21.7069 52.579 21.5339 52.5022C21.3609 52.4445 21.1879 52.3292 21.0534 52.1947C20.9189 52.0602 20.8036 51.9065 20.7267 51.7335C20.6498 51.5605 20.6114 51.3492 20.5921 51.1954C20.5729 51.0225 20.5537 50.888 20.4961 50.7534C20.4384 50.6189 20.3615 50.5036 20.2654 50.4075C20.1501 50.3115 20.054 50.2154 19.9195 50.1577C19.7849 50.1001 19.6504 50.0809 19.4774 50.0616C19.3045 50.0424 19.1123 50.004 18.9393 49.9271C18.7663 49.8503 18.6126 49.7157 18.478 49.5812C18.3627 49.4467 18.2474 49.2737 18.1897 49.1008C18.1321 48.9278 18.1129 48.7357 18.1129 48.5627C18.1129 48.3898 18.0937 48.236 18.0552 48.0823C18.0168 47.9286 17.9207 47.7748 17.8246 47.6403C17.8822 47.698 17.9591 47.7556 18.0168 47.8133C18.036 47.8325 18.0552 47.8517 18.0552 47.8709L18.0937 47.9286C18.1129 47.9478 18.1129 47.967 18.1321 47.9862L18.1705 48.0439C18.2474 48.1976 18.2858 48.3898 18.3243 48.5435C18.3627 48.7165 18.3819 48.8702 18.4588 49.0047C18.5165 49.1392 18.6126 49.2545 18.7279 49.3698C18.8432 49.4659 18.9585 49.562 19.0931 49.6004C19.2276 49.6581 19.3813 49.6773 19.5351 49.6773C19.7081 49.6965 19.9003 49.7157 20.0924 49.7926C20.2846 49.8695 20.4384 49.9848 20.5729 50.1193C20.7075 50.2538 20.8228 50.4268 20.8997 50.6189C20.9765 50.8111 20.9957 51.0033 21.015 51.1762C21.0342 51.3492 21.0534 51.4837 21.0918 51.6182C21.1303 51.7527 21.2264 51.868 21.3225 51.9833C21.4186 52.0986 21.5339 52.1947 21.6684 52.2524C21.803 52.3292 21.9567 52.3484 22.1297 52.3869C22.3027 52.4253 22.4756 52.4637 22.6294 52.5406L22.687 52.579C22.7063 52.5983 22.7255 52.5983 22.7447 52.6175L22.8024 52.6559C22.8216 52.6751 22.8408 52.6751 22.86 52.6943C22.8792 52.752 22.9369 52.8289 22.9945 52.8865Z" fill="#66ECFE"/>
<path d="M23.8018 52.0986C23.6673 52.0025 23.5135 51.9064 23.3598 51.868C23.206 51.8296 23.0522 51.8103 22.8793 51.8103C22.7063 51.8103 22.5141 51.7911 22.3411 51.7143C22.1682 51.6566 21.9952 51.5413 21.8607 51.4068C21.7261 51.2723 21.6108 51.1185 21.5339 50.9456C21.4571 50.7726 21.4186 50.5613 21.3994 50.4075C21.3802 50.2346 21.361 50.1001 21.3033 49.9655C21.2456 49.831 21.1688 49.7157 21.0727 49.6196C20.9574 49.5236 20.8613 49.4275 20.7267 49.3698C20.5922 49.3122 20.4577 49.293 20.2847 49.2737C20.1117 49.2545 19.9195 49.2161 19.7465 49.1392C19.5736 49.0623 19.4198 48.9278 19.2853 48.7933C19.17 48.6588 19.0547 48.4858 18.997 48.3129C18.9393 48.1399 18.9201 47.9478 18.9201 47.7748C18.9201 47.6019 18.9009 47.4481 18.8625 47.2944C18.824 47.1407 18.7279 46.9869 18.6318 46.8524C18.6895 46.9101 18.7664 46.9677 18.824 47.0254C18.8432 47.0446 18.8625 47.0638 18.8625 47.083L18.9009 47.1407C18.9201 47.1599 18.9201 47.1791 18.9393 47.1983L18.9778 47.256C19.0547 47.4097 19.0931 47.6019 19.1315 47.7556C19.17 47.9286 19.1892 48.0823 19.2661 48.2168C19.3237 48.3513 19.4198 48.4666 19.5351 48.5819C19.6505 48.678 19.7658 48.7741 19.9003 48.8125C20.0348 48.8702 20.1886 48.8894 20.3423 48.8894C20.5153 48.9086 20.7075 48.9278 20.8997 49.0047C21.0919 49.0816 21.2456 49.1969 21.3802 49.3314C21.5147 49.4659 21.63 49.6389 21.7069 49.831C21.7838 50.0232 21.803 50.2154 21.8222 50.3883C21.8414 50.5613 21.8607 50.6958 21.8991 50.8303C21.9375 50.9648 22.0336 51.0801 22.1297 51.1954C22.2258 51.3107 22.3411 51.4068 22.4757 51.4644C22.6102 51.5413 22.764 51.5605 22.9369 51.599C23.1099 51.6374 23.2829 51.6758 23.4366 51.7527L23.4943 51.7911C23.5135 51.8103 23.5327 51.8104 23.5519 51.8296L23.6096 51.868C23.6288 51.8872 23.648 51.8872 23.6673 51.9064C23.6865 51.9641 23.7441 52.0217 23.8018 52.0986Z" fill="#66ECFE"/>
<path d="M14.5958 42.6632C14.7688 42.202 15.0379 41.7792 15.3646 41.3948C15.5376 41.2027 15.7298 41.0489 15.9412 40.8952C16.1526 40.7607 16.4024 40.6454 16.6523 40.5877C16.7868 40.5493 16.9021 40.5301 17.0367 40.5301H17.1328H17.2289C17.2865 40.5301 17.3634 40.5301 17.421 40.5301C17.6901 40.5493 17.94 40.607 18.1706 40.703C18.6511 40.876 19.0547 41.1642 19.4198 41.5101C18.9778 41.318 18.5358 41.1258 18.0745 41.0105C17.6325 40.8952 17.1712 40.8952 16.7484 40.9913C16.3256 41.1066 15.9219 41.3372 15.576 41.6254C15.2301 41.9329 14.9226 42.298 14.5958 42.6632Z" fill="#66ECFE"/>
<path d="M13.7308 39.0119C14.1921 39.1849 14.6341 39.3771 15.0762 39.4731C15.5182 39.5885 15.9795 39.6077 16.4215 39.5116C16.8443 39.4155 17.2479 39.2041 17.5939 38.8966C17.9398 38.5892 18.2473 38.2241 18.5548 37.8397C18.4011 38.3009 18.1512 38.7429 17.8053 39.1272C17.6323 39.3194 17.4401 39.4732 17.2095 39.6269C17.1518 39.6653 17.0942 39.6845 17.0365 39.723L16.9404 39.7614L16.8443 39.7998C16.729 39.8575 16.5945 39.8959 16.46 39.9151C16.2101 39.9728 15.941 39.9728 15.672 39.9536C15.4221 39.9344 15.1723 39.8575 14.9224 39.7806C14.5188 39.6077 14.096 39.3386 13.7308 39.0119Z" fill="#66ECFE"/>
<path d="M17.1711 41.5102C17.0366 41.318 16.9405 41.1066 16.8636 40.8952C16.7868 40.6839 16.7099 40.4725 16.6714 40.2419C16.6138 40.0305 16.5753 39.7999 16.5561 39.5693C16.5369 39.3387 16.5177 39.1081 16.5561 38.8775C16.6907 39.0696 16.7868 39.281 16.8636 39.4924C16.9405 39.7038 17.0174 39.9152 17.0558 40.1458C17.1135 40.3572 17.1519 40.5878 17.1711 40.8184C17.1904 41.049 17.1904 41.2796 17.1711 41.5102Z" fill="#66ECFE"/>
<path d="M61.0869 35.0534L60.4335 35.0149C60.4335 30.8449 59.3764 26.6172 57.147 22.7546L57.7235 22.4279C59.9914 26.4058 61.0869 30.7488 61.0869 35.0534Z" fill="#00DFFE"/>
<path d="M48.4984 13.1655L48.1332 13.7228C44.52 11.6281 40.3302 10.4367 35.8522 10.4367V9.78333C40.4648 9.78333 44.7891 11.0132 48.4984 13.1655Z" fill="#00DFFE"/>
<path d="M23.2636 13.127L23.5711 13.7227C19.9579 15.7981 16.8252 18.8343 14.5766 22.6969L14 22.3702C16.3063 18.3924 19.5351 15.26 23.2636 13.127Z" fill="#00DFFE"/>
<path d="M10.5981 34.9572L11.2516 34.9956C11.2516 39.1657 12.3087 43.3934 14.5381 47.256L13.9615 47.5827C11.6744 43.6048 10.5981 39.2426 10.5981 34.9572Z" fill="#00DFFE"/>
<path d="M23.1868 56.826L23.5519 56.2687C27.1651 58.3633 31.3549 59.5548 35.833 59.5548V60.2082C31.2204 60.2274 26.8961 58.9975 23.1868 56.826Z" fill="#00DFFE"/>
<path d="M48.4214 56.8836L48.1139 56.2879C51.7271 54.2125 54.8598 51.1763 57.0892 47.2945L57.6658 47.6212C55.3787 51.6182 52.1499 54.7506 48.4214 56.8836Z" fill="#00DFFE"/>
<path d="M48.5176 13.2999C52.2846 15.4906 55.4173 18.623 57.5891 22.3894L57.1663 22.6008C55.0329 18.9304 51.9579 15.8557 48.2678 13.7227L48.5176 13.2999ZM48.4792 13.1846L48.1525 13.7611C52.0155 15.9903 55.0521 19.1226 57.147 22.7354L57.7428 22.4279C55.5903 18.6998 52.4576 15.4714 48.4792 13.1846Z" fill="white"/>
<path d="M35.7945 9.86009L35.7752 10.3213C31.5278 10.3405 27.338 11.4551 23.6287 13.5689L23.3981 13.1654C27.165 11.0131 31.4509 9.87931 35.7945 9.86009ZM35.8329 9.76401C31.5662 9.76401 27.2227 10.8594 23.2635 13.1462L23.5903 13.7227C27.4533 11.4935 31.6815 10.4366 35.8329 10.4366H35.8521L35.8905 9.78322C35.8713 9.76401 35.8521 9.76401 35.8329 9.76401Z" fill="white"/>
<path d="M14.0384 22.4855L14.442 22.7353C12.3279 26.425 11.2132 30.6142 11.194 34.8804H10.7327C10.7327 30.5182 11.8859 26.2328 14.0384 22.4855ZM14 22.351C11.8475 26.0599 10.6174 30.3836 10.6174 34.9765H11.2709C11.2709 30.4989 12.4625 26.3097 14.5574 22.6969L14 22.351Z" fill="white"/>
<path d="M14.5188 47.4097C16.6521 51.0801 19.7272 54.1548 23.4173 56.2879L23.1866 56.6914C19.4197 54.5007 16.2869 51.3684 14.1152 47.6019L14.5188 47.4097ZM14.5572 47.2752L13.9614 47.5826C16.0948 51.3107 19.2275 54.5391 23.2058 56.8259L23.5326 56.2494C19.6695 54.0203 16.6329 50.8879 14.5572 47.2752Z" fill="white"/>
<path d="M48.0565 56.4224L48.2871 56.8259C44.501 58.9974 40.2151 60.1312 35.8908 60.1504L35.91 59.6892C40.1574 59.67 44.3664 58.5362 48.0565 56.4224ZM48.095 56.2879C44.2319 58.517 40.0037 59.5739 35.8523 59.5739H35.8331L35.7947 60.2273C35.8139 60.2273 35.8331 60.2273 35.8523 60.2273C40.119 60.2273 44.4625 59.132 48.4217 56.8452L48.095 56.2879Z" fill="white"/>
<path d="M60.9718 35.1302C60.9525 39.4924 59.7994 43.7778 57.6468 47.5251L57.2432 47.2753C59.3573 43.5856 60.4721 39.3964 60.4913 35.1302H60.9718ZM61.0679 35.0341H60.4144C60.4144 39.5117 59.2228 43.7009 57.1279 47.3137L57.6853 47.6788C59.8378 43.9507 61.0679 39.627 61.0679 35.0341Z" fill="white"/>
<path fill-rule="evenodd" clip-rule="evenodd" d="M48.5753 26.5604C47.9602 26.5604 47.4616 27.059 47.4616 27.674C47.4616 28.2891 47.9602 28.7877 48.5753 28.7877C49.1905 28.7877 49.6891 28.2891 49.6891 27.674C49.6891 27.059 49.1905 26.5604 48.5753 26.5604ZM47.3828 27.674C47.3828 27.0155 47.9167 26.4817 48.5753 26.4817C49.234 26.4817 49.7679 27.0155 49.7679 27.674C49.7679 28.3326 49.234 28.8664 48.5753 28.8664C47.9167 28.8664 47.3828 28.3326 47.3828 27.674Z" fill="white"/>
<path fill-rule="evenodd" clip-rule="evenodd" d="M44.159 21.7176C43.843 21.1784 43.1749 20.9935 42.637 21.3089C42.0977 21.6249 41.9128 22.2928 42.2282 22.8308C42.5443 23.3699 43.2123 23.5548 43.7503 23.2395C44.2895 22.9234 44.4744 22.2555 44.159 21.7176ZM42.5971 21.2409C43.1739 20.9029 43.8896 21.1023 44.227 21.6777C44.5651 22.2544 44.3656 22.9701 43.7901 23.3074C43.2134 23.6454 42.4976 23.446 42.1603 22.8706C41.8222 22.2939 42.0216 21.5782 42.5971 21.2409Z" fill="white"/>
<path fill-rule="evenodd" clip-rule="evenodd" d="M36.4089 19.3295C35.8709 19.0142 35.2029 19.1991 34.8868 19.7382C34.5714 20.2761 34.7563 20.9441 35.2955 21.2601C35.8335 21.5755 36.5015 21.3906 36.8176 20.8514C37.133 20.3135 36.9481 19.6456 36.4089 19.3295ZM34.8188 19.6984C35.1562 19.123 35.8719 18.9235 36.4487 19.2616C37.0242 19.5989 37.2236 20.3146 36.8856 20.8912C36.5482 21.4667 35.8324 21.6661 35.2557 21.3281C34.6802 20.9907 34.4807 20.2751 34.8188 19.6984Z" fill="white"/>
<path fill-rule="evenodd" clip-rule="evenodd" d="M28.4912 21.1413C27.8788 21.1413 27.3775 21.6425 27.3775 22.2549C27.3775 22.8673 27.8788 23.3685 28.4912 23.3685C29.1037 23.3685 29.605 22.8673 29.605 22.2549C29.605 21.6425 29.1037 21.1413 28.4912 21.1413ZM27.2987 22.2549C27.2987 21.599 27.8353 21.0625 28.4912 21.0625C29.1472 21.0625 29.6838 21.599 29.6838 22.2549C29.6838 22.9108 29.1472 23.4473 28.4912 23.4473C27.8353 23.4473 27.2987 22.9108 27.2987 22.2549Z" fill="white"/>
<path fill-rule="evenodd" clip-rule="evenodd" d="M23.0639 26.5218C22.449 26.5364 21.9623 27.0466 21.9768 27.6614C21.9913 28.2763 22.5016 28.763 23.1166 28.7484C23.7315 28.7339 24.2182 28.2236 24.2037 27.6088C24.1891 26.9939 23.6788 26.5073 23.0639 26.5218ZM21.8981 27.6633C21.8825 27.005 22.4036 26.4587 23.062 26.4431C23.7205 26.4275 24.2668 26.9486 24.2824 27.6069C24.298 28.2653 23.7769 28.8116 23.1184 28.8271C22.46 28.8427 21.9136 28.3216 21.8981 27.6633Z" fill="white"/>
<path fill-rule="evenodd" clip-rule="evenodd" d="M21.6676 34.0112C21.1297 33.6958 20.4616 33.8807 20.1456 34.4199C19.8302 34.9578 20.0151 35.6257 20.5543 35.9418C21.0923 36.2571 21.7603 36.0722 22.0764 35.5331C22.3918 34.9951 22.2069 34.3272 21.6676 34.0112ZM20.0776 34.38C20.415 33.8046 21.1307 33.6052 21.7075 33.9432C22.283 34.2805 22.4824 34.9962 22.1444 35.5729C21.807 36.1483 21.0912 36.3477 20.5145 36.0097C19.939 35.6724 19.7395 34.9567 20.0776 34.38Z" fill="white"/>
<path fill-rule="evenodd" clip-rule="evenodd" d="M23.0713 41.2229C22.4562 41.2229 21.9575 41.7214 21.9575 42.3365C21.9575 42.9515 22.4562 43.4501 23.0713 43.4501C23.6864 43.4501 24.1851 42.9515 24.1851 42.3365C24.1851 41.7214 23.6864 41.2229 23.0713 41.2229ZM21.8788 42.3365C21.8788 41.678 22.4127 41.1441 23.0713 41.1441C23.7299 41.1441 24.2638 41.678 24.2638 42.3365C24.2638 42.995 23.7299 43.5289 23.0713 43.5289C22.4127 43.5289 21.8788 42.995 21.8788 42.3365Z" fill="white"/>
<path fill-rule="evenodd" clip-rule="evenodd" d="M29.4181 47.1798C29.102 46.6407 28.434 46.4558 27.896 46.7711C27.3568 47.0872 27.1719 47.7551 27.4872 48.293L27.4875 48.2934L27.4875 48.2934C27.7838 48.8119 28.4706 48.9986 29.0098 48.7015C29.5486 48.3853 29.7334 47.7176 29.4181 47.1798ZM27.8562 46.7032C28.4329 46.3651 29.1487 46.5646 29.486 47.14C29.8241 47.7167 29.6246 48.4323 29.0491 48.7697L29.0483 48.7702L29.0483 48.7702C28.4728 49.0876 27.7378 48.89 27.4192 48.3326C27.0812 47.756 27.2807 47.0405 27.8562 46.7032Z" fill="white"/>
<path fill-rule="evenodd" clip-rule="evenodd" d="M34.9897 48.9518C34.5678 49.3994 34.5888 50.1043 35.0364 50.526C35.4841 50.9478 36.189 50.9269 36.6109 50.4793C37.0327 50.0316 37.0118 49.3268 36.5641 48.905C36.1164 48.4832 35.4115 48.5042 34.9897 48.9518ZM34.9824 50.5834C34.5031 50.1317 34.4807 49.3771 34.9323 48.8978C35.384 48.4185 36.1388 48.3961 36.6181 48.8477C37.0974 49.2994 37.1199 50.054 36.6682 50.5333C36.2165 51.0126 35.4618 51.035 34.9824 50.5834Z" fill="white"/>
<path fill-rule="evenodd" clip-rule="evenodd" d="M43.1554 46.642C42.5403 46.642 42.0417 47.1406 42.0417 47.7556C42.0417 48.3707 42.5403 48.8693 43.1554 48.8693C43.7705 48.8693 44.2692 48.3707 44.2692 47.7556C44.2692 47.1406 43.7705 46.642 43.1554 46.642ZM41.9629 47.7556C41.9629 47.0971 42.4968 46.5633 43.1554 46.5633C43.814 46.5633 44.348 47.0971 44.348 47.7556C44.348 48.4142 43.814 48.948 43.1554 48.948C42.4968 48.948 41.9629 48.4142 41.9629 47.7556Z" fill="white"/>
<path fill-rule="evenodd" clip-rule="evenodd" d="M47.867 41.497C47.383 41.8765 47.2983 42.5765 47.6779 43.0605C48.0575 43.5445 48.7576 43.6291 49.2416 43.2496C49.7257 42.87 49.8103 42.17 49.4307 41.6861C49.0512 41.2021 48.351 41.1174 47.867 41.497ZM47.6159 43.1091C47.2095 42.5909 47.3001 41.8414 47.8184 41.435C48.3367 41.0286 49.0863 41.1193 49.4927 41.6375C49.8992 42.1557 49.8085 42.9052 49.2902 43.3116C48.772 43.7179 48.0223 43.6273 47.6159 43.1091Z" fill="white"/>
<path fill-rule="evenodd" clip-rule="evenodd" d="M49.4258 35.0008C49.4164 35.6158 49.9074 36.1219 50.5225 36.1313C51.1375 36.1407 51.6437 35.6497 51.6531 35.0347C51.6625 34.4198 51.1714 33.9136 50.5564 33.9043C49.9413 33.8949 49.4351 34.3858 49.4258 35.0008ZM50.5213 36.2101C49.8627 36.2 49.337 35.6581 49.347 34.9996C49.357 34.3412 49.899 33.8155 50.5576 33.8255C51.2161 33.8356 51.7419 34.3775 51.7318 35.0359C51.7218 35.6944 51.1798 36.2201 50.5213 36.2101Z" fill="white"/>
<defs>
<radialGradient id="paint0_radial_153_9794" cx="0" cy="0" r="1" gradientUnits="userSpaceOnUse" gradientTransform="translate(35.8425 35.161) rotate(90) scale(34.839 34.8433)">
<stop stop-color="#00DFFE" stop-opacity="0.24"/>
<stop offset="1" stop-color="#00DFFE" stop-opacity="0"/>
</radialGradient>
</defs>
</svg>
