<svg width="316" height="316" viewBox="0 0 316 316" fill="none" xmlns="http://www.w3.org/2000/svg">
<circle cx="158" cy="158" r="158" fill="url(#paint0_radial_153_3583)"/>
<g opacity="0.22">
<path d="M197.989 203.937C220.159 203.937 238.131 185.965 238.131 163.795C238.131 141.625 220.159 123.653 197.989 123.653C175.82 123.653 157.848 141.625 157.848 163.795C157.848 185.965 175.82 203.937 197.989 203.937Z" stroke="white" stroke-width="0.4442" stroke-miterlimit="10" stroke-linecap="round" stroke-linejoin="round"/>
<path d="M196.586 193.566C218.756 193.566 236.728 175.594 236.728 153.424C236.728 131.254 218.756 113.282 196.586 113.282C174.416 113.282 156.444 131.254 156.444 153.424C156.444 175.594 174.416 193.566 196.586 193.566Z" stroke="white" stroke-width="0.4442" stroke-miterlimit="10" stroke-linecap="round" stroke-linejoin="round"/>
<path d="M231.542 153.67C237.025 132.188 224.054 110.328 202.572 104.846C181.089 99.3633 159.23 112.334 153.747 133.816C148.265 155.299 161.235 177.158 182.718 182.641C204.2 188.123 226.059 175.153 231.542 153.67Z" stroke="white" stroke-width="0.4442" stroke-miterlimit="10" stroke-linecap="round" stroke-linejoin="round"/>
<path d="M186.215 175.569C208.385 175.569 226.357 157.597 226.357 135.427C226.357 113.258 208.385 95.2856 186.215 95.2856C164.045 95.2856 146.073 113.258 146.073 135.427C146.073 157.597 164.045 175.569 186.215 175.569Z" stroke="white" stroke-width="0.4442" stroke-miterlimit="10" stroke-linecap="round" stroke-linejoin="round"/>
<path d="M206.309 157.46C221.985 141.784 221.985 116.368 206.309 100.691C190.633 85.0152 165.217 85.0152 149.541 100.691C133.865 116.368 133.865 141.784 149.541 157.46C165.217 173.136 190.633 173.136 206.309 157.46Z" stroke="white" stroke-width="0.4442" stroke-miterlimit="10" stroke-linecap="round" stroke-linejoin="round"/>
<path d="M168.218 165.198C190.388 165.198 208.36 147.226 208.36 125.056C208.36 102.887 190.388 84.9146 168.218 84.9146C146.049 84.9146 128.077 102.887 128.077 125.056C128.077 147.226 146.049 165.198 168.218 165.198Z" stroke="white" stroke-width="0.4442" stroke-miterlimit="10" stroke-linecap="round" stroke-linejoin="round"/>
<path d="M157.847 163.856C180.017 163.856 197.989 145.884 197.989 123.714C197.989 101.545 180.017 83.5724 157.847 83.5724C135.678 83.5724 117.706 101.545 117.706 123.714C117.706 145.884 135.678 163.856 157.847 163.856Z" stroke="white" stroke-width="0.4442" stroke-miterlimit="10" stroke-linecap="round" stroke-linejoin="round"/>
<path d="M147.477 165.198C169.646 165.198 187.618 147.226 187.618 125.056C187.618 102.887 169.646 84.9146 147.477 84.9146C125.307 84.9146 107.335 102.887 107.335 125.056C107.335 147.226 125.307 165.198 147.477 165.198Z" stroke="white" stroke-width="0.4442" stroke-miterlimit="10" stroke-linecap="round" stroke-linejoin="round"/>
<path d="M177.225 136.648C181.404 114.875 167.141 93.837 145.368 89.658C123.596 85.4791 102.557 99.7417 98.3784 121.515C94.1994 143.287 108.462 164.326 130.235 168.505C152.008 172.684 173.046 158.421 177.225 136.648Z" stroke="white" stroke-width="0.4442" stroke-miterlimit="10" stroke-linecap="round" stroke-linejoin="round"/>
<path d="M129.48 175.569C151.65 175.569 169.622 157.597 169.622 135.427C169.622 113.258 151.65 95.2856 129.48 95.2856C107.31 95.2856 89.338 113.258 89.338 135.427C89.338 157.597 107.31 175.569 129.48 175.569Z" stroke="white" stroke-width="0.4442" stroke-miterlimit="10" stroke-linecap="round" stroke-linejoin="round"/>
<path d="M123.6 183.922C145.768 183.631 163.502 165.425 163.211 143.257C162.92 121.09 144.714 103.355 122.546 103.646C100.379 103.937 82.6446 122.144 82.9357 144.311C83.2268 166.479 101.433 184.213 123.6 183.922Z" stroke="white" stroke-width="0.4442" stroke-miterlimit="10" stroke-linecap="round" stroke-linejoin="round"/>
<path d="M119.109 193.566C141.279 193.566 159.251 175.594 159.251 153.424C159.251 131.254 141.279 113.282 119.109 113.282C96.9391 113.282 78.967 131.254 78.967 153.424C78.967 175.594 96.9391 193.566 119.109 193.566Z" stroke="white" stroke-width="0.4442" stroke-miterlimit="10" stroke-linecap="round" stroke-linejoin="round"/>
<path d="M117.706 203.937C139.875 203.937 157.848 185.965 157.848 163.795C157.848 141.625 139.875 123.653 117.706 123.653C95.536 123.653 77.5639 141.625 77.5639 163.795C77.5639 185.965 95.536 203.937 117.706 203.937Z" stroke="white" stroke-width="0.4442" stroke-miterlimit="10" stroke-linecap="round" stroke-linejoin="round"/>
<path d="M119.109 214.369C141.279 214.369 159.251 196.397 159.251 174.227C159.251 152.057 141.279 134.085 119.109 134.085C96.9391 134.085 78.967 152.057 78.967 174.227C78.967 196.397 96.9391 214.369 119.109 214.369Z" stroke="white" stroke-width="0.4442" stroke-miterlimit="10" stroke-linecap="round" stroke-linejoin="round"/>
<path d="M127.567 223.751C149.597 221.27 165.445 201.4 162.965 179.37C160.484 157.34 140.614 141.492 118.584 143.973C96.5537 146.454 80.7059 166.324 83.1867 188.354C85.6675 210.384 105.537 226.232 127.567 223.751Z" stroke="white" stroke-width="0.4442" stroke-miterlimit="10" stroke-linecap="round" stroke-linejoin="round"/>
<path d="M129.48 232.366C151.65 232.366 169.622 214.393 169.622 192.224C169.622 170.054 151.65 152.082 129.48 152.082C107.31 152.082 89.338 170.054 89.338 192.224C89.338 214.393 107.31 232.366 129.48 232.366Z" stroke="white" stroke-width="0.4442" stroke-miterlimit="10" stroke-linecap="round" stroke-linejoin="round"/>
<path d="M166.157 226.96C181.833 211.283 181.833 185.867 166.157 170.191C150.481 154.515 125.064 154.515 109.388 170.191C93.7121 185.867 93.7121 211.283 109.388 226.96C125.064 242.636 150.481 242.636 166.157 226.96Z" stroke="white" stroke-width="0.4442" stroke-miterlimit="10" stroke-linecap="round" stroke-linejoin="round"/>
<path d="M147.477 242.737C169.646 242.737 187.618 224.764 187.618 202.595C187.618 180.425 169.646 162.453 147.477 162.453C125.307 162.453 107.335 180.425 107.335 202.595C107.335 224.764 125.307 242.737 147.477 242.737Z" stroke="white" stroke-width="0.4442" stroke-miterlimit="10" stroke-linecap="round" stroke-linejoin="round"/>
<path d="M157.847 244.079C180.017 244.079 197.989 226.107 197.989 203.937C197.989 181.767 180.017 163.795 157.847 163.795C135.678 163.795 117.706 181.767 117.706 203.937C117.706 226.107 135.678 244.079 157.847 244.079Z" stroke="white" stroke-width="0.4442" stroke-miterlimit="10" stroke-linecap="round" stroke-linejoin="round"/>
<path d="M168.218 242.737C190.388 242.737 208.36 224.764 208.36 202.595C208.36 180.425 190.388 162.453 168.218 162.453C146.049 162.453 128.077 180.425 128.077 202.595C128.077 224.764 146.049 242.737 168.218 242.737Z" stroke="white" stroke-width="0.4442" stroke-miterlimit="10" stroke-linecap="round" stroke-linejoin="round"/>
<path d="M206.295 226.951C221.971 211.275 221.971 185.859 206.295 170.182C190.618 154.506 165.202 154.506 149.526 170.182C133.85 185.859 133.85 211.275 149.526 226.951C165.202 242.627 190.618 242.627 206.295 226.951Z" stroke="white" stroke-width="0.4442" stroke-miterlimit="10" stroke-linecap="round" stroke-linejoin="round"/>
<path d="M186.215 232.366C208.385 232.366 226.357 214.393 226.357 192.224C226.357 170.054 208.385 152.082 186.215 152.082C164.045 152.082 146.073 170.054 146.073 192.224C146.073 214.393 164.045 232.366 186.215 232.366Z" stroke="white" stroke-width="0.4442" stroke-miterlimit="10" stroke-linecap="round" stroke-linejoin="round"/>
<path d="M220.983 212.243C236.659 196.567 236.659 171.15 220.983 155.474C205.307 139.798 179.891 139.798 164.214 155.474C148.538 171.15 148.538 196.567 164.214 212.243C179.891 227.919 205.307 227.919 220.983 212.243Z" stroke="white" stroke-width="0.4442" stroke-miterlimit="10" stroke-linecap="round" stroke-linejoin="round"/>
<path d="M196.586 214.369C218.756 214.369 236.728 196.397 236.728 174.227C236.728 152.057 218.756 134.085 196.586 134.085C174.416 134.085 156.444 152.057 156.444 174.227C156.444 196.397 174.416 214.369 196.586 214.369Z" stroke="white" stroke-width="0.4442" stroke-miterlimit="10" stroke-linecap="round" stroke-linejoin="round"/>
</g>
<path d="M157.97 210.464C183.744 210.464 204.639 189.57 204.639 163.795C204.639 138.02 183.744 117.126 157.97 117.126C132.195 117.126 111.3 138.02 111.3 163.795C111.3 189.57 132.195 210.464 157.97 210.464Z" stroke="white" stroke-width="0.5164" stroke-miterlimit="10" stroke-linecap="round" stroke-linejoin="round"/>
<path d="M157.969 257.195C209.553 257.195 251.369 215.378 251.369 163.795C251.369 112.212 209.553 70.3952 157.969 70.3952C106.386 70.3952 64.5696 112.212 64.5696 163.795C64.5696 215.378 106.386 257.195 157.969 257.195Z" stroke="white" stroke-width="0.5" stroke-miterlimit="10" stroke-linecap="round" stroke-linejoin="round"/>
<path d="M157.969 274.643C219.189 274.643 268.817 225.014 268.817 163.795C268.817 102.576 219.189 52.9475 157.969 52.9475C96.7501 52.9475 47.122 102.576 47.122 163.795C47.122 225.014 96.7501 274.643 157.969 274.643Z" stroke="white" stroke-width="0.5" stroke-miterlimit="10" stroke-linecap="round" stroke-linejoin="round"/>
<path d="M157.969 271.958C217.706 271.958 266.133 223.532 266.133 163.795C266.133 104.058 217.706 55.6318 157.969 55.6318C98.2326 55.6318 49.8063 104.058 49.8063 163.795C49.8063 223.532 98.2326 271.958 157.969 271.958Z" stroke="white" stroke-width="0.5012" stroke-miterlimit="10" stroke-linecap="round" stroke-linejoin="round"/>
<path d="M91.7172 97.7868L81.4072 87.4768M72.1344 98.0918L83.6645 106.938M58.042 122.616L71.4633 128.168M67.5589 139.759L53.4666 135.976M50.7823 149.886L65.2407 151.777M50.7823 178.07L65.2407 176.179M53.5886 191.98L67.6809 188.197M58.164 205.34L71.5853 199.788M72.3174 229.803L83.8475 220.957M81.6513 240.418L91.9612 230.108M92.2663 249.691L101.112 238.161M116.791 263.783L122.342 250.362M130.151 268.298L133.933 254.206M144.06 271.043L145.951 256.585M172.245 270.982L170.354 256.524M186.154 268.237L182.372 254.145M193.963 250.24L199.514 263.661M223.978 249.508L215.132 237.978M234.593 240.174L224.283 229.864M243.866 229.498L232.336 220.652M244.537 199.483L257.958 205.035M262.472 191.675L248.38 187.892M265.218 177.765L250.759 175.874M265.157 149.581L250.698 151.472M262.411 135.671L248.319 139.454M257.836 122.311L244.415 127.863M243.683 97.8478L232.152 106.694M234.349 87.2328L224.039 97.5428M214.827 89.49L223.673 77.9599M199.209 63.8676L193.658 77.2888M185.849 59.3532L182.067 73.4455M171.94 56.6079L170.049 71.0663M143.755 56.6079L145.646 71.0663M129.846 59.4142L133.628 73.5065M116.486 63.9896L122.037 77.4109M100.929 89.673L92.0223 78.1429" stroke="white" stroke-width="0.5" stroke-miterlimit="10" stroke-linecap="round" stroke-linejoin="round"/>
<g opacity="0.68">
<path d="M157.969 52.9475V274.643" stroke="white" stroke-width="0.25" stroke-miterlimit="10" stroke-linecap="round" stroke-linejoin="round"/>
<path d="M102.576 67.8329L213.424 259.818" stroke="white" stroke-width="0.25" stroke-miterlimit="10" stroke-linecap="round" stroke-linejoin="round"/>
<path d="M62.0074 108.402L253.993 219.249" stroke="white" stroke-width="0.25" stroke-miterlimit="10" stroke-linecap="round" stroke-linejoin="round"/>
<path d="M47.122 163.795H268.817" stroke="white" stroke-width="0.25" stroke-miterlimit="10" stroke-linecap="round" stroke-linejoin="round"/>
<path d="M62.0074 219.249L253.993 108.402" stroke="white" stroke-width="0.25" stroke-miterlimit="10" stroke-linecap="round" stroke-linejoin="round"/>
<path d="M102.576 259.818L213.424 67.8329" stroke="white" stroke-width="0.25" stroke-miterlimit="10" stroke-linecap="round" stroke-linejoin="round"/>
</g>
<path d="M157.969 163.795L164.192 153.058L158.031 117.187L151.808 153.058L157.969 163.795Z" stroke="#00DFFE" stroke-width="0.5" stroke-miterlimit="10" stroke-linecap="round" stroke-linejoin="round"/>
<path d="M157.969 163.795V117.187L164.192 153.058L157.969 163.795Z" fill="#00DFFE"/>
<path d="M157.969 163.795L164.192 174.532L158.031 210.464L151.808 174.593L157.969 163.795Z" stroke="#00DFFE" stroke-width="0.5" stroke-miterlimit="10" stroke-linecap="round" stroke-linejoin="round"/>
<path d="M157.969 163.795V210.464L164.192 174.532L157.969 163.795Z" fill="#00DFFE"/>
<path d="M157.969 163.795L168.768 170.018L204.639 163.795L168.768 157.633L157.969 163.795Z" stroke="#00DFFE" stroke-width="0.5" stroke-miterlimit="10" stroke-linecap="round" stroke-linejoin="round"/>
<path d="M157.969 163.795H204.639L168.768 170.018L157.969 163.795Z" fill="#00DFFE"/>
<path d="M158.03 163.795L147.232 170.018L111.361 163.795L147.232 157.633L158.03 163.795Z" stroke="#00DFFE" stroke-width="0.5" stroke-miterlimit="10" stroke-linecap="round" stroke-linejoin="round"/>
<path d="M158.03 163.795H111.361L147.232 170.018L158.03 163.795Z" fill="#00DFFE"/>
<path d="M157.97 163.795L151.808 153.058L136.617 142.443L147.233 157.633L157.97 163.795Z" stroke="#00DFFE" stroke-width="0.5" stroke-miterlimit="10" stroke-linecap="round" stroke-linejoin="round"/>
<path d="M157.97 163.795L151.808 153.058L136.617 142.443L157.97 163.795Z" fill="#00DFFE"/>
<path d="M157.97 163.795L151.808 174.593L136.617 185.208L147.233 170.018L157.97 163.795Z" stroke="#00DFFE" stroke-width="0.5" stroke-miterlimit="10" stroke-linecap="round" stroke-linejoin="round"/>
<path d="M157.97 163.795L151.808 174.593L136.617 185.208L157.97 163.795Z" fill="#00DFFE"/>
<path d="M158.091 163.795L164.314 153.058L179.505 142.443L168.89 157.633L158.091 163.795Z" stroke="#00DFFE" stroke-width="0.5" stroke-miterlimit="10" stroke-linecap="round" stroke-linejoin="round"/>
<path d="M158.091 163.795L164.314 153.058L179.505 142.443L158.091 163.795Z" fill="#00DFFE"/>
<path d="M158.091 163.795L164.314 174.593L179.505 185.208L168.89 170.018L158.091 163.795Z" stroke="#00DFFE" stroke-width="0.5" stroke-miterlimit="10" stroke-linecap="round" stroke-linejoin="round"/>
<path d="M158.091 163.795L164.314 174.593L179.505 185.208L158.091 163.795Z" fill="#00DFFE"/>
<path d="M90.6191 154.339C90.4361 154.339 90.1921 154.217 90.0091 154.095C89.8261 153.973 89.643 153.851 89.521 153.729C89.216 153.424 88.911 153.119 88.6669 152.753C88.4229 152.387 88.1789 152.021 88.0569 151.594C87.8739 151.167 87.8129 150.74 87.8129 150.252C87.8129 149.764 87.9959 149.215 88.3009 148.788C88.6059 148.361 89.033 148.056 89.399 147.812C90.2531 147.384 91.1682 147.201 92.0223 147.14C93.7304 147.018 95.4386 147.262 97.0247 147.628C98.6719 147.995 100.197 148.483 101.722 149.154C100.075 149.032 98.4889 148.788 96.8417 148.605C95.2556 148.422 93.6084 148.3 92.0833 148.422C91.7172 148.422 91.3512 148.483 90.9852 148.544C90.6191 148.605 90.2531 148.727 89.9481 148.849C89.643 148.971 89.399 149.154 89.216 149.398C89.033 149.642 88.911 149.886 88.85 150.252C88.728 150.923 88.972 151.655 89.277 152.387C89.46 152.753 89.643 153.119 89.8261 153.424C89.9481 153.607 90.0701 153.729 90.1921 153.912C90.3141 154.095 90.4361 154.278 90.6191 154.339Z" fill="#66ECFE"/>
<path d="M94.0355 139.637C93.8525 139.637 93.6084 139.698 93.4254 139.759C93.2424 139.82 93.0594 139.942 92.8764 140.003C92.5103 140.186 92.2053 140.43 91.9003 140.674C91.2902 141.162 90.8022 141.772 90.6192 142.382C90.4972 142.687 90.4972 142.992 90.5582 143.297C90.6192 143.602 90.8022 143.846 90.9852 144.151C91.2292 144.395 91.4732 144.639 91.7783 144.883C92.0833 145.127 92.3883 145.31 92.6934 145.493C94.0355 146.286 95.4996 146.835 97.0248 147.384C98.5499 147.934 100.075 148.422 101.661 149.032C100.014 148.971 98.3669 148.727 96.7807 148.361C95.1946 147.995 93.5474 147.445 92.0833 146.591C91.3512 146.164 90.6192 145.615 90.0701 144.822C89.7651 144.456 89.5821 143.968 89.4601 143.48C89.399 142.992 89.4601 142.443 89.7041 141.955C89.8871 141.528 90.1921 141.162 90.5582 140.857C90.8632 140.552 91.2292 140.308 91.5953 140.064C91.9613 139.881 92.3883 139.698 92.7544 139.576C92.9374 139.515 93.1814 139.454 93.3644 139.454C93.6084 139.576 93.7915 139.576 94.0355 139.637Z" fill="#66ECFE"/>
<path d="M111.788 119.322C112.581 118.529 113.679 117.98 114.899 117.919C116.059 117.858 117.279 118.224 118.255 119.078C118.743 119.505 119.109 119.993 119.414 120.542C119.719 121.091 119.841 121.762 119.902 122.372C119.963 123.043 119.841 123.653 119.597 124.263C119.353 124.873 118.987 125.422 118.56 125.91C118.072 126.398 117.523 126.765 116.913 127.009C116.303 127.253 115.632 127.375 115.021 127.314C114.35 127.314 113.74 127.131 113.191 126.826C112.642 126.521 112.093 126.154 111.727 125.666C110.934 124.751 110.507 123.531 110.568 122.311C110.446 121.274 110.934 120.115 111.788 119.322ZM111.788 119.322C110.995 120.115 110.507 121.274 110.629 122.433C110.69 122.982 110.812 123.531 111.056 124.019C111.3 124.507 111.666 124.934 112.032 125.3C112.825 125.971 113.923 126.276 114.899 126.215C115.876 126.154 116.852 125.727 117.523 125.056C118.194 124.385 118.621 123.409 118.682 122.433C118.743 121.457 118.438 120.359 117.706 119.566C117.34 119.139 116.913 118.834 116.425 118.59C115.937 118.346 115.388 118.224 114.838 118.163C113.74 118.041 112.581 118.529 111.788 119.322Z" fill="#66ECFE"/>
<path d="M102.149 122.189C101.905 122.128 101.6 121.945 101.417 121.701C101.234 121.457 101.112 121.152 101.051 120.786C101.051 120.42 101.112 120.054 101.295 119.81C101.478 119.505 101.722 119.261 102.027 119.078C102.637 118.712 103.369 118.651 103.979 118.712C104.589 118.773 105.2 118.956 105.749 119.2C106.847 119.566 107.762 120.054 108.738 120.176C108.982 120.237 109.226 120.237 109.47 120.237C109.592 120.237 109.714 120.237 109.836 120.176C109.958 120.176 110.08 120.115 110.202 120.115L110.385 120.054L110.568 119.993C110.69 119.932 110.812 119.871 110.934 119.81C111.056 119.749 111.178 119.688 111.3 119.627C111.422 119.566 111.544 119.505 111.666 119.383C111.422 119.871 110.995 120.359 110.446 120.664C109.897 121.03 109.287 121.152 108.677 121.152C108.067 121.152 107.457 121.03 106.847 120.908C106.298 120.725 105.749 120.542 105.261 120.359C105.017 120.237 104.773 120.176 104.528 120.115C104.284 120.054 104.04 119.993 103.796 119.932C103.308 119.81 102.881 119.81 102.515 119.993C102.332 120.054 102.149 120.176 101.966 120.298C101.844 120.42 101.722 120.603 101.661 120.847C101.6 121.03 101.6 121.274 101.661 121.518C101.783 121.701 101.966 121.945 102.149 122.189Z" fill="#66ECFE"/>
<path d="M114.533 109.683C114.289 109.5 114.106 109.317 113.862 109.256C113.618 109.195 113.374 109.195 113.191 109.256C113.008 109.317 112.764 109.439 112.642 109.561C112.52 109.683 112.398 109.866 112.337 110.11C112.215 110.537 112.215 110.964 112.276 111.391C112.337 111.635 112.398 111.879 112.459 112.123C112.52 112.367 112.642 112.611 112.703 112.855C112.886 113.343 113.13 113.892 113.252 114.441C113.435 114.99 113.557 115.6 113.496 116.272C113.496 116.882 113.313 117.553 113.008 118.041C112.703 118.59 112.215 118.956 111.727 119.261C111.788 119.139 111.849 119.017 111.971 118.895C112.032 118.773 112.093 118.651 112.154 118.529C112.215 118.407 112.276 118.285 112.337 118.163L112.398 117.98L112.459 117.797C112.52 117.675 112.52 117.553 112.52 117.431C112.52 117.309 112.581 117.187 112.581 117.065C112.581 116.821 112.581 116.577 112.52 116.333C112.398 115.356 111.91 114.38 111.483 113.343C111.3 112.794 111.117 112.245 110.995 111.574C110.934 110.964 110.995 110.171 111.361 109.622C111.544 109.317 111.788 109.073 112.093 108.89C112.398 108.707 112.764 108.585 113.069 108.585C113.435 108.585 113.74 108.707 113.984 108.89C114.289 109.134 114.472 109.439 114.533 109.683Z" fill="#66ECFE"/>
<path d="M132.225 96.9327C133.384 96.5667 134.543 96.2616 135.702 95.9566C136.861 95.6516 137.96 95.3466 139.119 95.0415C140.278 94.7365 141.376 94.3705 142.535 94.0654C143.694 93.7604 144.792 93.3944 146.012 93.0893C145.036 93.8824 143.999 94.4925 142.901 95.0415C141.803 95.5906 140.644 96.0176 139.485 96.3226C138.326 96.6277 137.105 96.8717 135.885 96.9937C134.665 97.0547 133.445 97.1157 132.225 96.9327Z" fill="#66ECFE"/>
<path d="M136.007 110.232C136.983 109.439 138.021 108.829 139.119 108.28C140.217 107.731 141.376 107.304 142.535 106.999C143.694 106.694 144.914 106.45 146.134 106.328C147.354 106.206 148.575 106.206 149.795 106.328C148.636 106.694 147.476 106.999 146.317 107.304C145.158 107.609 144.06 107.914 142.901 108.219C141.742 108.524 140.644 108.89 139.485 109.195C138.326 109.561 137.166 109.927 136.007 110.232Z" fill="#66ECFE"/>
<path d="M137.044 96.2006C137.716 97.0547 138.204 98.0308 138.631 99.0069C139.058 99.983 139.424 100.959 139.729 101.996C140.034 103.033 140.278 104.07 140.4 105.107C140.522 106.145 140.583 107.243 140.461 108.341C140.034 107.304 139.729 106.328 139.424 105.352C139.119 104.375 138.814 103.338 138.509 102.362C138.204 101.386 137.96 100.349 137.655 99.3729C137.411 98.3358 137.167 97.2987 137.044 96.2006Z" fill="#66ECFE"/>
<path d="M141.803 94.8585C142.23 95.8346 142.596 96.8717 142.901 97.8478C143.206 98.8239 143.511 99.861 143.755 100.837C144.06 101.813 144.304 102.85 144.548 103.887C144.792 104.924 145.036 105.901 145.219 106.999C144.548 106.145 143.999 105.229 143.572 104.253C143.145 103.277 142.779 102.24 142.474 101.264C142.169 100.227 141.986 99.1899 141.864 98.1528C141.742 96.9937 141.681 95.9566 141.803 94.8585Z" fill="#66ECFE"/>
<path d="M174.563 105.84C174.319 106.755 173.77 107.548 173.038 108.158C172.245 108.707 171.269 109.012 170.232 108.829C169.744 108.768 169.195 108.524 168.768 108.28C168.341 107.975 167.975 107.609 167.669 107.121C167.12 106.206 166.937 105.046 167.181 103.948C167.425 102.911 168.158 101.935 169.134 101.386C169.622 101.142 170.11 100.959 170.659 100.898C171.208 100.837 171.696 100.898 172.184 101.081C173.16 101.447 173.892 102.179 174.319 103.033C174.746 104.009 174.807 104.985 174.563 105.84ZM174.563 105.84C174.807 104.924 174.624 103.948 174.136 103.155C173.892 102.789 173.587 102.423 173.221 102.179C172.855 101.935 172.428 101.813 172.001 101.752C171.147 101.63 170.354 101.874 169.683 102.362C169.073 102.85 168.585 103.521 168.402 104.253C168.219 104.985 168.28 105.84 168.585 106.511C168.89 107.243 169.5 107.853 170.293 108.158C170.72 108.28 171.147 108.402 171.574 108.341C172.001 108.28 172.428 108.158 172.855 107.975C173.709 107.548 174.319 106.755 174.563 105.84Z" fill="#66ECFE"/>
<path d="M178.04 95.3466C176.393 95.5906 174.807 95.9566 173.404 96.6277C172.001 97.2987 170.842 98.3358 169.866 99.556C169.744 99.739 169.622 99.861 169.5 100.044L169.317 100.288C169.256 100.349 169.195 100.471 169.195 100.532C169.012 100.837 168.829 101.203 168.646 101.569C168.34 102.301 168.096 103.033 167.913 103.765C167.73 104.497 167.669 105.291 167.791 106.023C167.852 106.389 167.974 106.755 168.157 107.121C168.341 107.487 168.646 107.731 168.951 108.036C168.524 107.914 168.157 107.67 167.852 107.365C167.547 107.06 167.303 106.633 167.181 106.267C166.876 105.413 166.815 104.558 166.876 103.643C166.937 102.789 167.181 101.935 167.486 101.142C167.669 100.715 167.852 100.349 168.035 99.922C168.096 99.8 168.157 99.739 168.218 99.617C168.279 99.495 168.34 99.434 168.402 99.3729C168.524 99.1899 168.646 99.0069 168.768 98.8239C169.012 98.4579 169.317 98.1528 169.622 97.8478C169.927 97.5428 170.232 97.2377 170.598 96.9937C171.33 96.4447 172.062 96.0176 172.916 95.7736C174.685 95.0415 176.454 94.9805 178.04 95.3466Z" fill="#66ECFE"/>
<path d="M176.332 98.6409C176.576 97.7258 177.125 96.9327 177.857 96.3226C178.65 95.7736 179.627 95.4686 180.664 95.6516C181.152 95.7126 181.701 95.9566 182.128 96.2006C182.555 96.5057 182.921 96.8717 183.226 97.3597C183.775 98.2748 183.958 99.4339 183.714 100.532C183.47 101.569 182.738 102.545 181.762 103.094C181.274 103.338 180.786 103.521 180.237 103.582C179.688 103.643 179.2 103.582 178.712 103.399C177.735 103.033 177.003 102.301 176.576 101.447C176.21 100.532 176.088 99.556 176.332 98.6409ZM176.332 98.6409C176.088 99.556 176.271 100.532 176.759 101.325C177.003 101.691 177.308 102.057 177.674 102.301C178.04 102.545 178.467 102.667 178.895 102.728C179.749 102.85 180.542 102.606 181.213 102.118C181.823 101.63 182.311 100.959 182.494 100.227C182.677 99.4949 182.616 98.6409 182.311 97.9698C182.006 97.2377 181.396 96.6277 180.603 96.3226C180.176 96.2006 179.749 96.0786 179.322 96.1396C178.895 96.2006 178.467 96.3226 178.04 96.5057C177.186 96.9327 176.576 97.7868 176.332 98.6409Z" fill="#66ECFE"/>
<path d="M172.855 109.195C174.502 108.951 176.088 108.585 177.491 107.914C178.894 107.243 180.054 106.206 181.03 104.985C181.152 104.802 181.274 104.68 181.396 104.497L181.579 104.253C181.64 104.192 181.701 104.07 181.701 104.009C181.884 103.704 182.067 103.338 182.25 102.972C182.555 102.24 182.799 101.508 182.982 100.776C183.165 100.044 183.226 99.2509 183.104 98.5189C183.043 98.1528 182.921 97.7868 182.738 97.4207C182.555 97.0547 182.25 96.8107 181.945 96.5057C182.372 96.6277 182.738 96.8717 183.043 97.1767C183.348 97.4818 183.592 97.9088 183.714 98.2748C184.019 99.1289 184.08 99.983 184.019 100.898C183.958 101.752 183.714 102.606 183.409 103.399C183.226 103.826 183.043 104.192 182.86 104.619C182.799 104.741 182.738 104.802 182.677 104.924C182.616 105.046 182.555 105.107 182.494 105.168C182.372 105.352 182.25 105.535 182.128 105.718C181.884 106.084 181.579 106.389 181.274 106.694C180.969 106.999 180.664 107.304 180.298 107.548C179.566 108.097 178.833 108.524 177.979 108.768C176.21 109.5 174.441 109.561 172.855 109.195Z" fill="#66ECFE"/>
<path d="M201.528 122.25C200.857 122.86 199.941 123.226 198.965 123.287C197.989 123.287 197.013 122.982 196.281 122.25C195.915 121.884 195.61 121.457 195.366 121.03C195.122 120.542 195 119.993 195 119.505C195 118.407 195.427 117.309 196.281 116.577C196.708 116.211 197.196 115.906 197.684 115.722C198.172 115.539 198.782 115.478 199.27 115.539C199.819 115.6 200.308 115.783 200.796 116.028C201.223 116.272 201.65 116.638 201.955 117.065C202.565 117.858 202.809 118.895 202.748 119.81C202.626 120.786 202.199 121.64 201.528 122.25ZM201.528 122.25C202.199 121.64 202.626 120.725 202.565 119.81C202.565 119.383 202.443 118.895 202.26 118.529C202.077 118.163 201.833 117.797 201.467 117.492C200.857 116.943 200.002 116.699 199.209 116.699C198.416 116.699 197.684 117.004 197.135 117.553C196.586 118.041 196.22 118.773 196.098 119.566C195.976 120.359 196.22 121.152 196.708 121.884C196.952 122.25 197.257 122.494 197.684 122.738C198.05 122.982 198.477 123.104 198.965 123.165C199.88 123.226 200.796 122.921 201.528 122.25Z" fill="#66ECFE"/>
<path d="M204.273 129.632C204.029 129.083 203.846 128.473 203.846 127.863C203.846 127.253 204.09 126.582 204.456 126.093C204.822 125.544 205.249 125.117 205.737 124.751C206.164 124.385 206.652 124.019 207.018 123.592C207.872 122.799 208.665 121.945 209.275 121.03C209.885 120.115 210.373 119.139 210.373 118.102C210.434 117.126 209.946 116.15 209.214 115.417C208.848 115.051 208.421 114.685 207.994 114.502C207.75 114.38 207.506 114.319 207.262 114.258C207.018 114.197 206.774 114.197 206.53 114.197C206.042 114.197 205.493 114.319 205.005 114.502C204.517 114.685 204.029 114.99 203.602 115.356C203.175 115.722 202.809 116.15 202.565 116.638C202.443 116.882 202.321 117.126 202.26 117.431C202.199 117.736 202.199 117.98 202.321 118.285C202.138 118.041 202.077 117.736 202.016 117.431C202.016 117.126 202.077 116.821 202.138 116.516C202.321 115.906 202.687 115.356 203.053 114.929C203.48 114.441 203.968 114.075 204.517 113.77C205.066 113.465 205.737 113.221 206.408 113.16C207.079 113.099 207.75 113.221 208.421 113.465C209.031 113.709 209.58 114.136 210.068 114.563C210.556 114.99 210.923 115.539 211.228 116.15C211.533 116.76 211.655 117.492 211.655 118.163C211.655 118.834 211.472 119.505 211.167 120.115C210.923 120.725 210.556 121.274 210.19 121.762C209.458 122.738 208.543 123.592 207.567 124.324C207.079 124.69 206.591 125.056 206.103 125.361C205.615 125.666 205.188 126.032 204.822 126.46C204.456 126.887 204.212 127.375 204.09 127.924C204.09 128.412 204.151 129.022 204.273 129.632Z" fill="#66ECFE"/>
<path d="M223.002 138.722C223.307 138.844 223.612 139.027 223.917 139.149C224.222 139.332 224.466 139.515 224.771 139.759C225.015 140.003 225.32 140.247 225.503 140.491C225.625 140.613 225.747 140.796 225.808 140.979C225.869 141.162 225.991 141.406 225.991 141.65C225.991 141.894 225.93 142.199 225.808 142.443C225.686 142.687 225.442 142.87 225.259 142.931C225.076 143.053 224.893 143.114 224.71 143.175C224.527 143.236 224.405 143.297 224.222 143.358C223.612 143.602 222.941 143.785 222.331 143.968C221.049 144.334 219.768 144.639 218.487 144.883C217.206 145.127 215.864 145.31 214.583 145.371C215.803 144.761 217.023 144.334 218.243 143.907C219.463 143.48 220.744 143.114 221.965 142.748L223.795 142.199C223.917 142.138 224.1 142.138 224.222 142.077C224.344 142.016 224.527 141.955 224.588 141.955C224.71 141.894 224.771 141.894 224.771 141.833C224.832 141.772 224.832 141.772 224.832 141.711C224.832 141.528 224.771 141.284 224.649 141.04C224.527 140.796 224.344 140.552 224.161 140.247C223.856 139.698 223.429 139.21 223.002 138.722Z" fill="#66ECFE"/>
<path d="M224.466 142.748C224.771 142.87 225.076 143.053 225.381 143.175C225.686 143.358 225.93 143.541 226.235 143.785C226.479 144.029 226.784 144.273 226.967 144.517C227.089 144.639 227.211 144.822 227.272 145.005C227.333 145.188 227.455 145.432 227.455 145.676C227.455 145.92 227.394 146.225 227.272 146.469C227.15 146.713 226.906 146.896 226.723 146.957C226.54 147.079 226.357 147.14 226.174 147.201C225.991 147.262 225.869 147.323 225.686 147.384C225.076 147.629 224.405 147.812 223.795 147.995C222.514 148.361 221.232 148.666 219.951 148.91C218.67 149.154 217.328 149.337 216.047 149.398C217.267 148.788 218.487 148.361 219.707 147.934C220.927 147.506 222.209 147.14 223.429 146.774L225.259 146.225C225.381 146.164 225.564 146.164 225.686 146.103C225.808 146.042 225.991 145.981 226.052 145.981C226.174 145.92 226.235 145.92 226.235 145.859C226.296 145.798 226.296 145.798 226.296 145.737C226.296 145.554 226.235 145.31 226.113 145.066C225.991 144.822 225.808 144.578 225.625 144.273C225.32 143.724 224.893 143.236 224.466 142.748Z" fill="#66ECFE"/>
<path d="M225.564 146.835C225.869 146.957 226.174 147.14 226.479 147.262C226.784 147.445 227.028 147.629 227.333 147.873C227.577 148.117 227.882 148.361 228.065 148.605C228.187 148.727 228.309 148.91 228.37 149.093C228.431 149.276 228.553 149.52 228.553 149.764C228.553 150.008 228.492 150.313 228.37 150.557C228.248 150.801 228.004 150.984 227.821 151.045C227.638 151.167 227.455 151.228 227.272 151.289C227.089 151.35 226.967 151.411 226.784 151.472C226.174 151.716 225.503 151.899 224.893 152.082C223.612 152.448 222.331 152.753 221.049 152.997C219.768 153.241 218.426 153.424 217.145 153.485C218.365 152.875 219.585 152.448 220.805 152.021C222.026 151.594 223.307 151.228 224.527 150.862L226.357 150.313C226.479 150.252 226.662 150.252 226.784 150.191C226.906 150.13 227.089 150.069 227.15 150.069C227.272 150.008 227.333 150.008 227.333 149.947C227.394 149.886 227.394 149.886 227.394 149.825C227.394 149.642 227.333 149.398 227.211 149.154C227.089 148.91 226.906 148.666 226.723 148.361C226.479 147.812 226.052 147.323 225.564 146.835Z" fill="#66ECFE"/>
<path d="M226.723 150.923C227.15 151.289 227.516 151.655 227.821 152.082C228.126 152.509 228.37 153.058 228.492 153.607C228.614 154.156 228.492 154.827 228.187 155.376C227.882 155.925 227.455 156.352 227.028 156.718C226.54 157.084 225.991 157.328 225.442 157.45C224.893 157.633 224.283 157.694 223.734 157.694C223.185 157.694 222.575 157.633 222.026 157.511C221.477 157.389 220.927 157.206 220.439 156.962C219.951 156.718 219.463 156.474 218.975 156.169C218.487 155.864 218.06 155.498 217.694 155.193C216.901 154.461 216.108 153.729 215.437 152.997C214.705 152.265 213.973 151.533 213.119 150.984C212.692 150.74 212.265 150.496 211.777 150.313C211.289 150.13 210.801 150.069 210.251 150.069C211.289 149.825 212.448 149.947 213.424 150.435C214.461 150.862 215.315 151.594 216.108 152.265C216.901 152.936 217.694 153.668 218.487 154.278C219.28 154.888 220.134 155.437 220.988 155.864C221.416 156.047 221.904 156.23 222.331 156.352C222.819 156.474 223.246 156.535 223.734 156.535C224.649 156.535 225.625 156.352 226.418 155.925C226.845 155.681 227.15 155.376 227.394 155.01C227.638 154.644 227.76 154.217 227.76 153.729C227.76 153.241 227.638 152.753 227.455 152.326C227.272 151.777 227.028 151.35 226.723 150.923Z" fill="#66ECFE"/>
<path d="M212.997 206.072C213.058 206.377 213.058 206.743 212.997 207.048C212.997 207.414 212.936 207.719 212.875 208.085C212.814 208.451 212.692 208.756 212.57 209.122C212.509 209.305 212.387 209.488 212.265 209.61C212.143 209.793 212.021 209.915 211.777 210.098C211.594 210.22 211.289 210.342 210.984 210.281C210.679 210.281 210.496 210.159 210.251 210.037C210.068 209.915 209.946 209.793 209.763 209.671C209.641 209.549 209.519 209.427 209.397 209.366C208.909 208.939 208.421 208.451 207.933 208.024C207.018 207.109 206.164 206.133 205.31 205.096C204.517 204.059 203.724 203.022 203.053 201.863C204.151 202.656 205.127 203.51 206.103 204.364C207.079 205.218 207.994 206.133 208.909 207.109L210.251 208.512C210.373 208.634 210.496 208.756 210.557 208.817C210.679 208.939 210.801 209.061 210.862 209.061C210.923 209.122 211.045 209.183 211.045 209.183C211.106 209.183 211.167 209.183 211.228 209.183C211.35 209.122 211.594 208.939 211.716 208.695C211.899 208.451 212.021 208.207 212.143 207.902C212.57 207.353 212.814 206.743 212.997 206.072Z" fill="#66ECFE"/>
<path d="M210.19 209.244C210.251 209.549 210.251 209.915 210.19 210.22C210.19 210.586 210.129 210.891 210.068 211.258C210.007 211.624 209.885 211.929 209.763 212.295C209.702 212.478 209.58 212.661 209.458 212.783C209.336 212.966 209.214 213.088 208.97 213.271C208.787 213.393 208.482 213.515 208.177 213.454C207.872 213.454 207.689 213.332 207.445 213.21C207.262 213.088 207.14 212.966 206.957 212.844C206.835 212.722 206.713 212.6 206.591 212.539C206.103 212.112 205.615 211.624 205.127 211.197C204.212 210.281 203.358 209.305 202.504 208.268C201.711 207.231 200.918 206.194 200.247 205.035C201.345 205.828 202.321 206.682 203.297 207.536C204.273 208.39 205.188 209.305 206.103 210.281L207.445 211.685C207.567 211.807 207.689 211.929 207.75 211.99C207.872 212.112 207.994 212.234 208.055 212.234C208.116 212.295 208.238 212.356 208.238 212.356C208.299 212.356 208.36 212.356 208.421 212.356C208.543 212.295 208.787 212.112 208.909 211.868C209.092 211.624 209.214 211.38 209.336 211.075C209.763 210.525 209.946 209.915 210.19 209.244Z" fill="#66ECFE"/>
<path d="M207.14 212.234C207.14 212.844 207.079 213.393 207.018 214.003C206.957 214.308 206.896 214.613 206.774 214.857C206.652 215.162 206.53 215.406 206.347 215.711C206.225 215.833 206.103 215.955 205.981 216.077C205.798 216.199 205.615 216.26 205.371 216.26C204.944 216.26 204.578 216.077 204.334 215.894C203.846 215.528 203.419 215.162 202.992 214.735C201.284 213.149 199.697 211.502 198.111 209.793L196.952 208.512C196.586 208.146 196.22 207.78 195.793 207.475C195.366 207.17 194.939 206.926 194.451 206.865C194.329 206.804 194.207 206.804 194.085 206.804C193.963 206.804 193.841 206.804 193.78 206.804C193.536 206.804 193.353 206.865 193.17 206.987C192.987 207.109 192.804 207.231 192.682 207.414C192.56 207.597 192.438 207.841 192.316 208.024C192.133 208.512 192.072 209.061 192.072 209.61C192.072 210.159 192.133 210.708 192.255 211.258C192.377 211.807 192.56 212.356 192.682 212.905C192.072 211.929 191.584 210.83 191.401 209.61C191.34 209 191.279 208.39 191.462 207.719C191.523 207.414 191.645 207.109 191.828 206.804C192.011 206.499 192.255 206.255 192.56 206.011C193.17 205.584 193.963 205.523 194.634 205.645C195.305 205.767 195.915 206.011 196.464 206.377C197.013 206.743 197.501 207.109 197.928 207.597L199.087 208.878C200.674 210.586 202.199 212.295 203.724 213.942C204.09 214.369 204.517 214.796 204.883 215.162C205.066 215.345 205.249 215.467 205.371 215.467C205.493 215.467 205.676 215.406 205.859 215.223C206.042 215.04 206.164 214.857 206.286 214.613C206.408 214.369 206.53 214.125 206.652 213.881C206.835 213.332 207.018 212.783 207.14 212.234Z" fill="#66ECFE"/>
<path d="M221.782 170.018C221.782 171.909 221.538 173.739 221.171 175.569C220.805 177.399 220.378 179.229 219.768 180.999C219.219 182.768 218.548 184.537 217.755 186.245C216.962 187.953 216.108 189.6 215.071 191.187C215.62 189.417 216.169 187.648 216.779 185.879C217.389 184.11 217.938 182.402 218.487 180.633C219.036 178.863 219.585 177.155 220.134 175.386C220.683 173.556 221.233 171.787 221.782 170.018Z" fill="#66ECFE"/>
<path d="M218.67 192.285C218.792 191.797 218.975 191.309 219.158 190.821L219.646 189.356L220.622 186.489L220.744 186.184H221.111C222.087 186.123 223.063 185.757 223.795 185.147C224.588 184.537 225.137 183.744 225.442 182.829C225.747 181.914 225.747 180.938 225.503 179.962C225.259 179.046 224.649 178.192 223.917 177.521L223.612 177.277L223.734 176.972C224.039 175.996 224.344 175.02 224.588 174.044L225.015 172.58C225.137 172.092 225.32 171.604 225.442 171.116C225.442 171.604 225.381 172.153 225.381 172.641C225.32 173.129 225.259 173.678 225.198 174.166C225.076 175.203 224.893 176.179 224.71 177.216L224.527 176.667C225.503 177.338 226.296 178.375 226.723 179.535C226.906 180.084 227.028 180.755 227.028 181.365C227.028 181.975 226.967 182.585 226.723 183.195C226.357 184.354 225.564 185.391 224.588 186.123C223.612 186.855 222.392 187.221 221.172 187.16L221.66 186.855C221.233 187.77 220.805 188.685 220.317 189.6C220.073 190.028 219.829 190.516 219.585 190.943C219.219 191.431 218.975 191.858 218.67 192.285Z" fill="#66ECFE"/>
<path d="M180.908 218.395C179.932 219.249 178.772 219.92 177.613 220.469C176.454 221.018 175.234 221.506 173.953 221.812C172.672 222.178 171.391 222.361 170.11 222.483C168.829 222.544 167.486 222.544 166.205 222.3C167.486 221.995 168.707 221.69 169.927 221.445C171.147 221.14 172.367 220.896 173.587 220.53C174.807 220.225 176.027 219.859 177.186 219.493C178.467 219.127 179.627 218.761 180.908 218.395Z" fill="#66ECFE"/>
<path d="M176.698 232.121C176.027 230.779 175.539 229.376 175.051 227.973C174.563 226.57 174.136 225.167 173.77 223.703C173.404 222.3 173.038 220.835 172.794 219.371C172.489 217.907 172.245 216.443 172.184 214.979C172.855 216.321 173.343 217.724 173.831 219.127C174.319 220.53 174.746 221.934 175.112 223.398C175.478 224.801 175.844 226.265 176.088 227.729C176.332 229.132 176.576 230.596 176.698 232.121Z" fill="#66ECFE"/>
<path d="M178.345 228.339C178.345 228.705 178.284 229.071 178.223 229.437C178.162 229.803 178.101 230.108 177.979 230.474C177.857 230.779 177.796 231.145 177.674 231.45C177.552 231.755 177.43 232.06 177.308 232.427L177.003 233.22L176.332 232.732L175.905 232.427C175.783 232.305 175.661 232.244 175.478 232.121C175.234 231.877 174.929 231.694 174.685 231.45C174.441 231.206 174.197 230.962 173.953 230.718C173.709 230.474 173.526 230.169 173.343 229.864C173.709 229.925 174.014 230.047 174.38 230.23C174.685 230.352 174.99 230.535 175.295 230.657C175.6 230.84 175.905 231.023 176.21 231.206C176.332 231.267 176.515 231.389 176.637 231.511L177.064 231.816L176.088 232.06C176.21 231.755 176.393 231.45 176.515 231.145C176.698 230.84 176.82 230.535 177.003 230.23C177.186 229.925 177.369 229.681 177.613 229.376C177.857 228.888 178.101 228.583 178.345 228.339Z" fill="#66ECFE"/>
<path d="M150.405 234.989C149.856 234.928 149.307 234.928 148.758 234.867C148.514 234.806 148.209 234.745 147.965 234.623C147.721 234.501 147.477 234.257 147.293 234.074C146.927 233.586 146.805 233.037 146.744 232.488C146.683 231.938 146.683 231.389 146.683 230.84C146.744 229.742 146.866 228.644 147.049 227.546C147.232 226.448 147.477 225.411 147.721 224.313L148.514 224.618C148.087 225.716 147.599 226.753 147.049 227.79C146.5 228.827 145.951 229.864 145.28 230.84C144.914 231.328 144.548 231.816 144.182 232.244C143.999 232.488 143.755 232.671 143.511 232.915C143.267 233.098 142.962 233.342 142.657 233.464C142.291 233.586 141.864 233.708 141.437 233.586C141.01 233.464 140.644 233.22 140.4 232.915C140.156 232.549 140.034 232.121 139.973 231.816C139.912 231.45 139.973 231.145 139.973 230.84C140.034 230.23 140.156 229.62 140.278 229.071C140.4 228.522 140.522 227.973 140.644 227.363C140.888 226.265 141.01 225.167 141.01 224.069C141.01 222.971 140.766 221.934 140.4 220.896C139.973 219.92 139.424 219.005 138.631 218.395C137.838 217.785 136.862 217.663 135.946 217.968C135.031 218.334 134.238 219.127 134.055 220.042C133.933 220.469 133.994 220.957 134.177 221.384C134.36 221.812 134.726 222.178 135.153 222.422C135.58 222.666 136.068 222.849 136.556 222.91C137.045 222.91 137.533 222.849 137.96 222.544C138.387 222.3 138.753 221.934 139.058 221.506C139.119 221.384 139.18 221.262 139.302 221.14L139.546 220.774C139.668 220.53 139.851 220.286 140.034 220.042C140.705 219.066 141.437 218.09 142.413 217.419C142.901 217.053 143.45 216.748 143.999 216.626C144.304 216.565 144.548 216.504 144.853 216.443C145.158 216.382 145.463 216.382 145.768 216.382C146.378 216.382 146.988 216.443 147.538 216.626C148.087 216.809 148.636 217.114 149.002 217.541C148.575 217.114 148.026 216.87 147.477 216.748C146.927 216.626 146.378 216.565 145.768 216.626C145.219 216.687 144.67 216.809 144.121 216.992C143.633 217.175 143.145 217.48 142.718 217.846C141.864 218.578 141.193 219.493 140.644 220.469C140.522 220.713 140.339 220.957 140.217 221.201L140.034 221.568C139.973 221.69 139.912 221.812 139.79 221.995C139.485 222.544 138.997 223.032 138.448 223.337C137.899 223.703 137.228 223.886 136.556 223.886C135.885 223.886 135.214 223.642 134.665 223.337C134.36 223.154 134.116 222.971 133.872 222.727C133.628 222.483 133.445 222.239 133.262 221.934C132.896 221.323 132.835 220.53 132.957 219.859C133.079 219.188 133.445 218.578 133.872 218.09C134.116 217.846 134.36 217.602 134.604 217.419C134.848 217.236 135.153 217.053 135.458 216.931C136.068 216.687 136.801 216.565 137.472 216.687C138.143 216.748 138.814 217.053 139.363 217.419C139.912 217.785 140.339 218.273 140.705 218.822C141.071 219.371 141.376 219.92 141.62 220.469C142.108 221.628 142.352 222.849 142.352 224.069C142.352 225.289 142.23 226.509 141.986 227.668C141.864 228.217 141.742 228.827 141.62 229.376C141.498 229.925 141.376 230.474 141.315 231.023C141.254 231.267 141.254 231.511 141.254 231.755C141.254 231.999 141.315 232.122 141.376 232.244C141.437 232.366 141.62 232.427 141.742 232.488C141.864 232.549 142.047 232.488 142.23 232.427C142.596 232.305 143.023 231.938 143.389 231.572C143.755 231.206 144.121 230.779 144.426 230.291C145.097 229.376 145.707 228.4 146.256 227.424C146.805 226.448 147.354 225.411 147.843 224.374L148.636 224.679C148.331 225.716 148.026 226.753 147.782 227.79C147.538 228.827 147.293 229.864 147.232 230.962C147.171 231.511 147.171 231.999 147.171 232.549C147.232 233.098 147.293 233.586 147.538 234.013C147.66 234.257 147.843 234.44 148.087 234.562C148.331 234.684 148.575 234.806 148.819 234.867C149.307 234.867 149.917 234.867 150.405 234.989Z" fill="#66ECFE"/>
<path d="M117.218 220.591C116.791 220.286 116.303 219.981 115.814 219.859C115.326 219.737 114.838 219.676 114.289 219.676C113.74 219.676 113.13 219.615 112.581 219.371C112.032 219.188 111.483 218.822 111.056 218.395C110.629 217.968 110.263 217.48 110.019 216.931C109.775 216.382 109.653 215.711 109.592 215.223C109.531 214.674 109.47 214.247 109.287 213.82C109.104 213.393 108.86 213.027 108.555 212.722C108.189 212.417 107.884 212.112 107.457 211.929C107.03 211.746 106.603 211.685 106.054 211.624C105.505 211.563 104.894 211.441 104.345 211.197C103.796 210.952 103.308 210.525 102.881 210.098C102.515 209.671 102.149 209.122 101.966 208.573C101.783 208.024 101.722 207.414 101.722 206.865C101.722 206.316 101.661 205.828 101.539 205.34C101.417 204.852 101.112 204.364 100.807 203.937C100.99 204.12 101.234 204.303 101.417 204.486C101.478 204.547 101.539 204.608 101.539 204.669L101.661 204.852C101.722 204.913 101.722 204.974 101.783 205.035L101.905 205.218C102.149 205.706 102.271 206.316 102.393 206.804C102.515 207.353 102.576 207.841 102.82 208.268C103.003 208.695 103.308 209.061 103.674 209.427C104.04 209.732 104.406 210.037 104.833 210.159C105.26 210.342 105.749 210.403 106.237 210.403C106.786 210.464 107.396 210.525 108.006 210.769C108.616 211.013 109.104 211.38 109.531 211.807C109.958 212.234 110.324 212.783 110.568 213.393C110.812 214.003 110.873 214.613 110.934 215.162C110.995 215.711 111.056 216.138 111.178 216.565C111.3 216.992 111.605 217.358 111.91 217.724C112.215 218.09 112.581 218.395 113.008 218.578C113.435 218.822 113.923 218.883 114.472 219.005C115.021 219.127 115.57 219.249 116.059 219.493L116.242 219.615C116.303 219.676 116.364 219.676 116.425 219.737L116.608 219.859C116.669 219.92 116.73 219.92 116.791 219.981C116.852 220.164 117.035 220.408 117.218 220.591Z" fill="#66ECFE"/>
<path d="M119.78 218.09C119.353 217.785 118.865 217.48 118.377 217.358C117.889 217.236 117.401 217.175 116.852 217.175C116.303 217.175 115.692 217.114 115.143 216.87C114.594 216.687 114.045 216.321 113.618 215.894C113.191 215.467 112.825 214.979 112.581 214.43C112.337 213.881 112.215 213.21 112.154 212.722C112.093 212.173 112.032 211.746 111.849 211.319C111.666 210.891 111.422 210.525 111.117 210.22C110.751 209.915 110.446 209.61 110.019 209.427C109.592 209.244 109.165 209.183 108.616 209.122C108.067 209.061 107.457 208.939 106.908 208.695C106.359 208.451 105.871 208.024 105.444 207.597C105.077 207.17 104.711 206.621 104.528 206.072C104.345 205.523 104.284 204.913 104.284 204.364C104.284 203.815 104.223 203.327 104.101 202.839C103.979 202.351 103.674 201.863 103.369 201.436C103.552 201.619 103.796 201.802 103.979 201.985C104.04 202.046 104.101 202.107 104.101 202.168L104.223 202.351C104.284 202.412 104.284 202.473 104.345 202.534L104.467 202.717C104.711 203.205 104.833 203.815 104.955 204.303C105.077 204.852 105.138 205.34 105.383 205.767C105.566 206.194 105.871 206.56 106.237 206.926C106.603 207.231 106.969 207.536 107.396 207.658C107.823 207.841 108.311 207.902 108.799 207.902C109.348 207.963 109.958 208.024 110.568 208.268C111.178 208.512 111.666 208.878 112.093 209.305C112.52 209.732 112.886 210.281 113.13 210.891C113.374 211.502 113.435 212.112 113.496 212.661C113.557 213.21 113.618 213.637 113.74 214.064C113.862 214.491 114.167 214.857 114.472 215.223C114.777 215.589 115.143 215.894 115.57 216.077C115.998 216.321 116.486 216.382 117.035 216.504C117.584 216.626 118.133 216.748 118.621 216.992L118.804 217.114C118.865 217.175 118.926 217.175 118.987 217.236L119.17 217.358C119.231 217.419 119.292 217.419 119.353 217.48C119.414 217.663 119.597 217.846 119.78 218.09Z" fill="#66ECFE"/>
<path d="M90.5581 188.136C91.1072 186.672 91.9612 185.33 92.9983 184.11C93.5474 183.5 94.1574 183.012 94.8285 182.524C95.4996 182.097 96.2926 181.731 97.0857 181.548C97.5128 181.426 97.8788 181.365 98.3058 181.365H98.6109H98.9159C99.0989 181.365 99.3429 181.365 99.526 181.365C100.38 181.426 101.173 181.609 101.905 181.914C103.43 182.463 104.711 183.378 105.871 184.476C104.467 183.866 103.064 183.256 101.6 182.89C100.197 182.524 98.7329 182.524 97.3907 182.829C96.0486 183.195 94.7675 183.927 93.6694 184.842C92.5713 185.818 91.5952 186.977 90.5581 188.136Z" fill="#66ECFE"/>
<path d="M87.8129 176.545C89.277 177.094 90.6801 177.704 92.0833 178.009C93.4864 178.375 94.9505 178.436 96.3537 178.131C97.6958 177.826 98.9769 177.155 100.075 176.179C101.173 175.203 102.149 174.044 103.125 172.824C102.637 174.288 101.844 175.691 100.746 176.911C100.197 177.521 99.587 178.009 98.8549 178.497C98.6719 178.619 98.4889 178.68 98.3059 178.802L98.0008 178.924L97.6958 179.046C97.3298 179.229 96.9027 179.352 96.4757 179.413C95.6826 179.596 94.8285 179.596 93.9744 179.535C93.1814 179.474 92.3883 179.229 91.5952 178.985C90.3141 178.436 88.972 177.582 87.8129 176.545Z" fill="#66ECFE"/>
<path d="M98.7329 184.476C98.3059 183.866 98.0008 183.195 97.7568 182.524C97.5128 181.853 97.2688 181.182 97.1467 180.45C96.9637 179.779 96.8417 179.046 96.7807 178.314C96.7197 177.582 96.6587 176.85 96.7807 176.118C97.2077 176.728 97.5128 177.399 97.7568 178.07C98.0008 178.741 98.2448 179.413 98.3669 180.145C98.5499 180.816 98.6719 181.548 98.7329 182.28C98.7939 183.012 98.7939 183.744 98.7329 184.476Z" fill="#66ECFE"/>
<path d="M238.131 163.978L236.057 163.856C236.057 150.618 232.702 137.197 225.625 124.934L227.455 123.897C234.654 136.525 238.131 150.313 238.131 163.978Z" fill="#00DFFE"/>
<path d="M198.172 94.4925L197.013 96.2616C185.544 89.612 172.245 85.8297 158.03 85.8297V83.7555C172.672 83.7555 186.398 87.6598 198.172 94.4925Z" fill="#00DFFE"/>
<path d="M118.072 94.3705L119.048 96.2616C107.579 102.85 97.6348 112.489 90.4971 124.751L88.6669 123.714C95.9876 111.086 106.237 101.142 118.072 94.3705Z" fill="#00DFFE"/>
<path d="M77.8689 163.673L79.9431 163.795C79.9431 177.033 83.2984 190.455 90.3751 202.717L88.5449 203.754C81.2852 191.126 77.8689 177.277 77.8689 163.673Z" fill="#00DFFE"/>
<path d="M117.828 233.098L118.987 231.328C130.456 237.978 143.755 241.76 157.969 241.76V243.835C143.328 243.896 129.602 239.991 117.828 233.098Z" fill="#00DFFE"/>
<path d="M197.928 233.281L196.952 231.389C208.421 224.801 218.365 215.162 225.442 202.839L227.272 203.876C220.012 216.565 209.763 226.509 197.928 233.281Z" fill="#00DFFE"/>
<path d="M198.233 94.9195C210.19 101.874 220.134 111.818 227.028 123.775L225.686 124.446C218.914 112.794 209.153 103.033 197.44 96.2616L198.233 94.9195ZM198.111 94.5535L197.074 96.3837C209.336 103.46 218.975 113.404 225.625 124.873L227.516 123.897C220.683 112.062 210.74 101.813 198.111 94.5535Z" fill="white"/>
<path d="M157.847 83.9995L157.786 85.4636C144.304 85.5246 131.005 89.063 119.231 95.7736L118.499 94.4925C130.456 87.6598 144.06 84.0605 157.847 83.9995ZM157.969 83.6945C144.426 83.6945 130.639 87.1718 118.072 94.4315L119.109 96.2616C131.371 89.185 144.792 85.8297 157.969 85.8297H158.03L158.153 83.7555C158.092 83.6945 158.03 83.6945 157.969 83.6945Z" fill="white"/>
<path d="M88.789 124.08L90.0701 124.873C83.3594 136.586 79.8211 149.886 79.7601 163.429H78.296C78.296 149.581 81.9563 135.976 88.789 124.08ZM88.6669 123.653C81.8343 135.427 77.9299 149.154 77.9299 163.734H80.0041C80.0041 149.52 83.7865 136.22 90.4361 124.751L88.6669 123.653Z" fill="white"/>
<path d="M90.3141 203.205C97.0857 214.857 106.847 224.618 118.56 231.389L117.828 232.671C105.871 225.716 95.9266 215.772 89.033 203.815L90.3141 203.205ZM90.4361 202.778L88.5449 203.754C95.3166 215.589 105.261 225.838 117.889 233.098L118.926 231.267C106.664 224.191 97.0247 214.247 90.4361 202.778Z" fill="white"/>
<path d="M196.769 231.816L197.501 233.098C185.483 239.991 171.879 243.591 158.153 243.652L158.214 242.187C171.696 242.126 185.056 238.527 196.769 231.816ZM196.891 231.389C184.629 238.466 171.208 241.821 158.03 241.821H157.969L157.847 243.896C157.908 243.896 157.969 243.896 158.03 243.896C171.574 243.896 185.361 240.418 197.928 233.159L196.891 231.389Z" fill="white"/>
<path d="M237.765 164.222C237.704 178.07 234.044 191.675 227.211 203.571L225.93 202.778C232.641 191.065 236.179 177.765 236.24 164.222H237.765M238.07 163.917H235.996C235.996 178.131 232.214 191.431 225.564 202.9L227.333 204.059C234.166 192.224 238.07 178.497 238.07 163.917Z" fill="white"/>
<path d="M198.416 144.212C200.438 144.212 202.077 142.573 202.077 140.552C202.077 138.53 200.438 136.891 198.416 136.891C196.395 136.891 194.756 138.53 194.756 140.552C194.756 142.573 196.395 144.212 198.416 144.212Z" stroke="white" stroke-width="0.25" stroke-miterlimit="10" stroke-linecap="round" stroke-linejoin="round"/>
<path d="M184.507 121.579C185.544 123.348 184.934 125.544 183.165 126.582C181.396 127.619 179.199 127.009 178.162 125.239C177.125 123.47 177.735 121.274 179.505 120.237C181.274 119.2 183.47 119.81 184.507 121.579Z" stroke="white" stroke-width="0.25" stroke-miterlimit="10" stroke-linecap="round" stroke-linejoin="round"/>
<path d="M159.861 113.953C161.63 114.99 162.24 117.187 161.203 118.956C160.166 120.725 157.969 121.335 156.2 120.298C154.431 119.261 153.821 117.065 154.858 115.295C155.895 113.526 158.092 112.916 159.861 113.953Z" stroke="white" stroke-width="0.25" stroke-miterlimit="10" stroke-linecap="round" stroke-linejoin="round"/>
<path d="M134.665 119.688C136.678 119.688 138.326 121.335 138.326 123.348C138.326 125.361 136.678 127.009 134.665 127.009C132.652 127.009 131.005 125.361 131.005 123.348C131.005 121.335 132.652 119.688 134.665 119.688Z" stroke="white" stroke-width="0.25" stroke-miterlimit="10" stroke-linecap="round" stroke-linejoin="round"/>
<path d="M117.608 144.087C119.629 144.04 121.229 142.363 121.181 140.342C121.133 138.321 119.456 136.721 117.435 136.769C115.414 136.817 113.815 138.494 113.863 140.515C113.91 142.536 115.587 144.135 117.608 144.087Z" stroke="white" stroke-width="0.25" stroke-miterlimit="10" stroke-linecap="round" stroke-linejoin="round"/>
<path d="M108.067 161.904C109.104 160.135 111.3 159.525 113.069 160.562C114.838 161.599 115.448 163.795 114.411 165.564C113.374 167.333 111.178 167.943 109.409 166.906C107.64 165.869 107.03 163.673 108.067 161.904Z" stroke="white" stroke-width="0.25" stroke-miterlimit="10" stroke-linecap="round" stroke-linejoin="round"/>
<path d="M117.462 190.76C119.483 190.76 121.122 189.121 121.122 187.099C121.122 185.078 119.483 183.439 117.462 183.439C115.44 183.439 113.801 185.078 113.801 187.099C113.801 189.121 115.44 190.76 117.462 190.76Z" stroke="white" stroke-width="0.25" stroke-miterlimit="10" stroke-linecap="round" stroke-linejoin="round"/>
<path d="M131.371 206.072C130.334 204.303 130.944 202.107 132.713 201.07C134.482 200.032 136.678 200.643 137.716 202.412C138.753 204.181 138.143 206.377 136.373 207.414C134.604 208.39 132.347 207.78 131.371 206.072Z" stroke="white" stroke-width="0.25" stroke-miterlimit="10" stroke-linecap="round" stroke-linejoin="round"/>
<path d="M160.53 213.035C161.916 211.564 161.847 209.247 160.376 207.861C158.905 206.474 156.588 206.543 155.202 208.015C153.815 209.486 153.884 211.802 155.355 213.189C156.827 214.575 159.143 214.506 160.53 213.035Z" stroke="white" stroke-width="0.25" stroke-miterlimit="10" stroke-linecap="round" stroke-linejoin="round"/>
<path d="M181.213 207.963C183.234 207.963 184.873 206.324 184.873 204.303C184.873 202.281 183.234 200.643 181.213 200.643C179.191 200.643 177.552 202.281 177.552 204.303C177.552 206.324 179.191 207.963 181.213 207.963Z" stroke="white" stroke-width="0.25" stroke-miterlimit="10" stroke-linecap="round" stroke-linejoin="round"/>
<path d="M200.608 190.096C202.199 188.849 202.477 186.548 201.23 184.957C199.982 183.366 197.682 183.088 196.091 184.336C194.5 185.583 194.222 187.884 195.469 189.475C196.717 191.066 199.018 191.344 200.608 190.096Z" stroke="white" stroke-width="0.25" stroke-miterlimit="10" stroke-linecap="round" stroke-linejoin="round"/>
<path d="M208.311 163.921C208.341 161.9 206.728 160.236 204.706 160.205C202.685 160.174 201.021 161.788 200.991 163.809C200.96 165.831 202.574 167.494 204.595 167.525C206.616 167.556 208.28 165.942 208.311 163.921Z" stroke="white" stroke-width="0.25" stroke-miterlimit="10" stroke-linecap="round" stroke-linejoin="round"/>
<defs>
<radialGradient id="paint0_radial_153_3583" cx="0" cy="0" r="1" gradientUnits="userSpaceOnUse" gradientTransform="translate(158 158) rotate(90) scale(158)">
<stop stop-color="#00DFFE" stop-opacity="0.24"/>
<stop offset="1" stop-color="#00DFFE" stop-opacity="0"/>
</radialGradient>
</defs>
</svg>
