<svg width="24" height="24" viewBox="0 0 24 24" fill="none" xmlns="http://www.w3.org/2000/svg">
<path d="M19.8455 4.29294C17.759 2.16964 14.9729 1 11.9999 1C5.92916 1 1 5.92606 1 11.9999C1.00104 12.0348 1.00293 12.1047 1.00397 12.1397C1.00397 12.1406 1.00363 12.1413 1.00363 12.142C1.08149 18.1637 5.97919 23 12 23C18.0221 23 22.9186 18.1623 22.9963 12.142C22.9963 12.1413 22.996 12.1406 22.996 12.1397C22.996 12.1389 22.9963 12.1382 22.9963 12.1375L22.9998 11.9999C22.9998 9.10127 21.8797 6.36449 19.8457 4.29303C19.8455 4.29303 19.8455 4.29286 19.8455 4.29286L19.8455 4.29294ZM12.3437 1.69317C14.8883 1.77586 17.2685 2.77543 19.1128 4.53584L16.8136 6.83782C15.5825 5.68718 14.0177 5.02407 12.344 4.9443L12.3437 1.69317ZM8.80582 12.4266L7.28332 16.2707C5.72506 14.5495 5.24806 12.1895 5.93084 10.0621L8.80582 12.4266ZM6.66113 9.77291H9.85688L9.0717 11.7552L6.66113 9.77291ZM9.36348 12.8853L11.3868 14.549L7.87585 16.6418L9.36348 12.8853ZM9.62952 12.2139L10.5963 9.77295H13.4039L14.3705 12.2134L11.9996 14.163L9.62952 12.2139ZM13.8709 9.08531L12.5163 5.66495C14.6409 5.83621 16.6026 7.06556 17.6629 9.08531H13.8709ZM17.3384 9.77295L14.9284 11.7549L14.1434 9.77295H17.3384ZM14.6364 12.885L16.1244 16.6418L12.6127 14.5489L14.6364 12.885ZM15.1942 12.4261L18.07 10.0612C18.7692 12.2386 18.2425 14.5851 16.7169 16.2708L15.1942 12.4261ZM13.1315 9.08531H10.8685L12 6.22863L13.1315 9.08531ZM7.28042 3.86137C7.60533 3.53646 8.11064 3.50072 8.47662 3.75261L9.03358 3.19565L8.85594 3.01783C8.7817 2.9436 8.7817 2.82689 8.85594 2.75266C8.92879 2.67963 9.04688 2.67842 9.12111 2.75266L9.29893 2.93048L9.56548 2.66375C9.63972 2.58951 9.7578 2.59089 9.83066 2.66375C9.90368 2.73677 9.90506 2.85469 9.83066 2.92892L9.5641 3.19565L9.71931 3.35068C9.79354 3.42509 9.79216 3.543 9.71931 3.61603C9.64507 3.69026 9.52837 3.69026 9.45396 3.61603L9.29893 3.46083L8.73786 4.02172C8.97006 4.38374 8.92759 4.87456 8.61063 5.19136C8.24463 5.55735 7.64782 5.55735 7.28184 5.19136C6.91446 4.82415 6.91446 4.22736 7.28046 3.86133L7.28042 3.86137ZM11.484 5.66478L10.1293 9.08513H6.33746C7.3902 7.07042 9.35347 5.83639 11.4841 5.66478H11.484ZM4.40297 5.02911L6.70756 7.33091C5.67947 8.49539 4.99598 10.0429 4.93902 11.7934H1.68974C1.73912 9.26797 2.69573 6.88586 4.40297 5.0292V5.02911ZM3.84084 15.4111C3.88452 15.4457 3.90662 15.5007 3.89798 15.556C3.88953 15.6111 3.85241 15.6573 3.80027 15.6772L3.15979 15.922L3.84845 16.5398C3.91198 16.597 3.9175 16.6945 3.86036 16.7586C3.80321 16.8221 3.7055 16.8275 3.6418 16.7703L2.76442 15.9832C2.7242 15.9472 2.7059 15.8928 2.71556 15.8398C2.7254 15.7868 2.76218 15.7426 2.81259 15.7232L3.43548 15.4852L2.60407 14.8283C2.55452 14.7891 2.53381 14.7235 2.55142 14.6631C2.5692 14.6025 2.62203 14.5588 2.68486 14.5526L3.3029 14.4918L2.74214 14.1129C2.70174 14.0854 2.67671 14.0405 2.67412 13.9918C2.67205 13.9426 2.69242 13.8962 2.72988 13.8653L3.25886 13.4266C3.32481 13.3719 3.42218 13.381 3.47691 13.447C3.53146 13.5126 3.52248 13.6103 3.45653 13.6649L3.08639 13.9718L3.83149 14.4756C3.87482 14.5047 3.89969 14.5532 3.89969 14.6038C3.89969 14.6164 3.89813 14.6292 3.89502 14.642C3.87897 14.7052 3.82511 14.7516 3.76002 14.758L3.09673 14.8234L3.84084 15.4111ZM4.11896 16.2324C4.07891 16.1961 4.06027 16.1423 4.07011 16.0889C4.07995 16.0359 4.11672 15.9917 4.16696 15.9724L4.79003 15.7342L3.95862 15.0773C3.90907 15.0381 3.88835 14.9728 3.90596 14.9122C3.92374 14.8516 3.97657 14.808 4.03924 14.8017L4.65763 14.7406L4.09687 14.3615C4.05647 14.3342 4.03127 14.2895 4.02885 14.2408C4.02695 14.1923 4.04715 14.1452 4.08478 14.1139L4.61394 13.6754C4.67972 13.6209 4.77726 13.63 4.83181 13.696C4.88637 13.7616 4.87739 13.8593 4.81144 13.914L4.44147 14.2206L5.18639 14.7244C5.22955 14.7535 5.25459 14.8021 5.25459 14.8526C5.25459 14.8654 5.25303 14.8782 5.24975 14.8908C5.2337 14.954 5.17983 15.0004 5.11492 15.0068L4.45163 15.0724L5.19571 15.6603C5.23939 15.6948 5.26131 15.7499 5.25285 15.8053C5.2444 15.8604 5.2071 15.9064 5.15514 15.9265L4.51466 16.1713L5.20332 16.789C5.26685 16.8463 5.27237 16.9439 5.21523 17.0077C5.15808 17.0713 5.0602 17.0768 4.99667 17.0195L4.11896 16.2324ZM11.6566 22.3062C9.1823 22.2253 6.85247 21.273 5.02984 19.5968L7.3156 17.3085C8.48405 18.3455 9.99444 18.999 11.6565 19.0792L11.6566 22.3062ZM8.30926 17.1835L12.0003 14.9835L15.6915 17.1835C14.6146 17.9538 13.3362 18.3761 12.0003 18.3761C10.6644 18.3761 9.38604 17.9538 8.30926 17.1835ZM17.2792 20.5431C16.9329 20.6686 16.5676 20.6306 16.2662 20.4685L14.8794 20.9707C14.7516 21.2883 14.4952 21.5513 14.1489 21.6768C14.0561 21.7103 13.9525 21.6618 13.9188 21.5689C13.8851 21.476 13.9337 21.3724 14.0265 21.3389C14.4861 21.1725 14.7252 20.6615 14.5588 20.2021C14.3924 19.7426 13.8815 19.5033 13.4219 19.6697C13.3291 19.7032 13.226 19.6564 13.1918 19.5619C13.1581 19.4689 13.2067 19.3655 13.2995 19.3318C13.6459 19.2063 14.0118 19.2458 14.3133 19.408L15.7003 18.9056C15.8279 18.5881 16.0837 18.3234 16.4301 18.1981C16.5231 18.1644 16.6265 18.2129 16.6602 18.3058C16.6945 18.4003 16.6453 18.5023 16.5525 18.5359C16.093 18.7022 15.8538 19.2132 16.0202 19.6728C16.1866 20.1322 16.6975 20.3715 17.1571 20.205C17.2501 20.1716 17.3535 20.2201 17.3872 20.3128C17.4207 20.406 17.3723 20.5096 17.2793 20.5431L17.2792 20.5431ZM19.4616 19.115L17.1769 16.8275C18.2523 15.6698 18.9425 14.1551 19.0502 12.4808H22.2991C22.1847 14.9751 21.187 17.3074 19.4616 19.115H19.4616ZM20.0147 7.71294C20.0272 7.68739 20.0449 7.66443 20.0684 7.64406C20.46 7.32381 21.0228 7.38372 21.3382 7.76318C21.6553 8.1473 21.6013 8.71494 21.2189 9.0331C21.0031 9.21282 20.7276 9.27342 20.4698 9.22301C20.4727 9.48576 20.3621 9.74142 20.1439 9.92289C19.7737 10.2305 19.2061 10.2021 18.876 9.80463C18.5581 9.42206 18.6101 8.85597 18.9942 8.53674C19.0805 8.46579 19.2086 8.47597 19.2798 8.56229C19.3507 8.64879 19.3405 8.77689 19.2532 8.84974C19.0465 9.02065 19.0087 9.33002 19.189 9.54547C19.3654 9.75937 19.6755 9.78492 19.8849 9.60986C20.1019 9.43083 20.1209 9.12079 19.951 8.9148L18.8575 7.59427C18.7855 7.51071 18.7962 7.38002 18.8832 7.30872C18.9695 7.23777 19.0976 7.24796 19.1688 7.33428L20.2624 8.6548C20.4384 8.86439 20.7495 8.89339 20.9601 8.72006C21.1705 8.54673 21.1985 8.23289 21.0252 8.02225C20.8492 7.80887 20.5333 7.78729 20.3275 7.95717C20.2429 8.02899 20.1129 8.01794 20.0418 7.93144C19.9893 7.86791 19.981 7.78246 20.0147 7.71288L20.0147 7.71294Z" fill="#FF4081"/>
<path d="M15.9364 4.23145L16.135 3.93779C16.1978 3.84457 16.1735 3.71889 16.0803 3.65622C15.987 3.59337 15.8615 3.61979 15.7987 3.71094L15.6001 4.00668L14.5709 3.31386L14.9923 3.23082C15.1017 3.20855 15.1727 3.101 15.1523 2.99189C15.13 2.88244 15.0246 2.81148 14.9132 2.83185L14.0118 3.00967C13.9148 3.02452 13.8347 3.12068 13.8518 3.23755C13.8568 3.27208 14.0326 4.18295 14.0281 4.14821C14.0483 4.24558 14.1334 4.31239 14.2287 4.31239C14.3573 4.31239 14.45 4.19464 14.4272 4.07121L14.3442 3.64997L15.3753 4.34088L15.1768 4.63662C15.114 4.72984 15.1404 4.85552 15.2315 4.91819C15.3412 4.98535 15.4574 4.94581 15.5131 4.86346L15.7117 4.56773L16.2504 4.93027C16.3501 4.99484 16.4688 4.96411 16.532 4.87572C16.5928 4.78232 16.5684 4.65681 16.4752 4.59414L15.9364 4.23145Z" fill="#FF4081"/>
<path d="M4.82871 9.00557H4.45649C4.4691 8.65028 4.53056 8.29274 4.64053 7.93745C4.66383 7.86148 4.62154 7.78086 4.54541 7.75773C4.46927 7.73442 4.38675 7.77689 4.36344 7.85285C4.24708 8.23577 4.17941 8.62058 4.16681 9.00557H3.47934C3.46674 8.62058 3.40114 8.23559 3.28271 7.85285C3.2594 7.77689 3.17912 7.73442 3.10282 7.75773C3.02668 7.78086 2.98231 7.86149 3.00562 7.93745C3.11352 8.29274 3.17705 8.65028 3.18966 9.00557H2.81727C2.73682 9.00557 2.67346 9.06893 2.67346 9.14938C2.67346 9.22966 2.73682 9.29319 2.81727 9.29319H3.18948C3.17688 9.64848 3.11335 10.0058 3.00545 10.3611C2.98214 10.4373 3.02651 10.5177 3.10264 10.5431C3.17343 10.5666 3.25802 10.5269 3.28253 10.4457C3.40096 10.0628 3.46657 9.67801 3.47917 9.29319H4.16663C4.17941 9.67801 4.24708 10.063 4.36327 10.4457C4.38226 10.5093 4.43941 10.5495 4.50087 10.5495C4.51571 10.5495 4.53039 10.5472 4.54523 10.5431C4.62137 10.5177 4.66367 10.4373 4.64036 10.3611C4.53038 10.0058 4.46892 9.64848 4.45632 9.29319H4.82853C5.02206 9.29319 5.02206 9.00558 4.82871 9.00558V9.00557Z" fill="#FF4081"/>
<path d="M7.08309 19.4145C7.04252 19.502 7.0805 19.6055 7.16786 19.6462L7.64243 19.8663C7.72996 19.9067 7.83354 19.8689 7.87412 19.7814C8.04606 19.4105 8.48751 19.2488 8.85836 19.4207C9.2292 19.5927 9.39096 20.0341 9.219 20.405C9.17843 20.4923 9.21641 20.5959 9.30377 20.6367L9.77835 20.8566C9.86588 20.8972 9.96946 20.8594 10.01 20.7718C10.0504 20.6843 10.0126 20.5807 9.92509 20.5401L9.59604 20.3875C9.73812 19.882 9.49625 19.3322 9.00492 19.1043C8.51342 18.8766 7.93768 19.0472 7.64364 19.4824L7.31442 19.3296C7.22724 19.2892 7.12365 19.3272 7.08308 19.4145L7.08309 19.4145Z" fill="#FF4081"/>
<path d="M9.68092 21.067L7.07028 19.8568C6.98292 19.8162 6.87917 19.8542 6.83877 19.9415C6.7982 20.0291 6.83618 20.1327 6.92354 20.1732L9.53418 21.3836C9.62154 21.424 9.72529 21.3862 9.76569 21.2987C9.80643 21.2113 9.76828 21.1077 9.68092 21.067V21.067Z" fill="#FF4081"/>
<path d="M19.1074 14.3942C19.1955 14.4329 19.2998 14.3958 19.3407 14.3076C19.3863 14.2048 19.5081 14.1494 19.6274 14.2022C19.7341 14.252 19.7823 14.3797 19.7315 14.4876C19.7155 14.5223 19.6371 14.6924 19.6532 14.6577C19.5924 14.7878 19.586 14.933 19.6305 15.0672C19.4446 15.1129 19.2628 15.254 19.1675 15.4575C19.0021 15.8185 19.1601 16.2411 19.5168 16.4058C20.1412 16.6922 20.7732 16.0175 20.442 15.4124C20.5561 15.3579 20.6505 15.2662 20.7064 15.1435C20.7223 15.1088 20.8005 14.9387 20.7846 14.9734C20.8375 14.8633 20.9626 14.8203 21.0714 14.8681C21.1807 14.9201 21.2252 15.0456 21.1767 15.1549C21.1358 15.2429 21.1753 15.3472 21.2622 15.3872C21.5683 15.5295 21.7287 14.7859 21.2181 14.5506C20.9255 14.4161 20.5948 14.5482 20.4659 14.828C20.4497 14.8626 20.3715 15.0302 20.3875 14.9955C20.3402 15.0998 20.2199 15.1481 20.1156 15.1082C20.1155 15.1082 20.0861 15.0948 20.0784 15.0908C19.9751 15.0449 19.9202 14.915 19.973 14.8039C19.9889 14.7692 20.0659 14.6007 20.05 14.6354C20.1806 14.3512 20.0566 14.0137 19.7726 13.883C19.4919 13.7501 19.1516 13.8771 19.0216 14.1592C18.9833 14.2428 19.0116 14.3464 19.1074 14.3942L19.1074 14.3942ZM19.9542 15.4211C20.1761 15.534 20.2229 15.7453 20.1476 15.91C20.063 16.0912 19.8458 16.1717 19.6647 16.0873C19.489 16.0091 19.3999 15.792 19.4864 15.6056C19.5677 15.4307 19.7662 15.3473 19.9542 15.4211L19.9542 15.4211Z" fill="#FF4081"/>
<path d="M8.34493 4.92678C8.56505 4.70649 8.56366 4.34724 8.34493 4.12834C8.12481 3.90822 7.76539 3.90702 7.54507 4.12713C7.32496 4.34725 7.32634 4.70649 7.54646 4.92681C7.76536 5.14554 8.1248 5.14675 8.3449 4.92681L8.34493 4.92678Z" fill="#FF4081"/>
<path d="M15.6094 19.3213L14.6481 19.6693C14.7552 19.7853 14.8394 19.9229 14.8962 20.0802C14.9532 20.2373 14.9772 20.3986 14.9692 20.5562L15.9305 20.2082C15.8235 20.0921 15.7387 19.9528 15.6817 19.7957C15.6249 19.6386 15.6014 19.4789 15.6094 19.3213V19.3213Z" fill="#FF4081"/>
</svg>
