<svg width="24" height="24" viewBox="0 0 24 24" fill="none" xmlns="http://www.w3.org/2000/svg">
<mask id="mask0_177_15698" style="mask-type:alpha" maskUnits="userSpaceOnUse" x="0" y="0" width="24" height="24">
<rect width="24" height="24" fill="#D9D9D9"/>
</mask>
<g mask="url(#mask0_177_15698)">
<path d="M10.025 20.4C9.05836 20.4 8.23336 20.0583 7.55002 19.375C6.86669 18.6917 6.52502 17.8667 6.52502 16.9C6.52502 15.9333 6.86669 15.1083 7.55002 14.425C8.23336 13.7417 9.05836 13.4 10.025 13.4C10.4084 13.4 10.7667 13.4583 11.1 13.575C11.4334 13.6917 11.7417 13.8667 12.025 14.1V3.60001H17.475V6.87501H13.525V16.9C13.525 17.8667 13.1834 18.6917 12.5 19.375C11.8167 20.0583 10.9917 20.4 10.025 20.4Z" fill="#FF4081"/>
</g>
</svg>
