<svg width="35" height="35" viewBox="0 0 35 35" fill="none" xmlns="http://www.w3.org/2000/svg">
<path d="M35 22.6217C35 22.6217 32.4967 16.8886 30.4736 13.5263C30.6325 11.7461 30.743 8.04532 29.2001 6.49429C28.6358 5.92546 27.8908 5.68596 27.0388 5.79996C25.6178 5.99225 24.5689 6.54495 23.9286 7.44655C23.5153 8.02229 23.3506 8.63602 23.2896 9.14842C21.5152 8.75232 20.1092 8.63602 20.1092 8.63602C20.1092 8.63602 20.0125 4.69339 19.4851 4.45389C19.2076 4.32838 17.1753 6.25018 15.4032 8.19501L15.4066 8.18695C15.4066 8.18695 15.402 8.19501 15.402 8.19616C14.9069 8.74195 14.4313 9.28429 14.0226 9.78979C13.5217 10.24 12.878 10.7524 12.0006 11.3063C6.29392 16.9243 5.34281 24.3225 4.66229 26.2316C3.98177 28.1419 0 30.5231 0 30.5231L4.03129 30.5542C4.03129 30.5542 7.62962 23.2493 8.44486 19.7719C9.06896 21.4749 4.75786 30.5231 4.75786 30.5231C4.75786 30.5231 7.1011 30.5945 7.3406 30.5231C7.58011 30.4506 10.4357 20.5641 10.3713 17.6324C11.1796 20.3246 8.7097 30.5554 8.7097 30.5554C8.7097 30.5554 12.3564 30.5554 13.0035 30.5554C10.7962 28.8281 11.8118 25.8009 11.5722 20.7633C11.4133 17.4355 12.5729 14.1596 13.3789 12.3115C14.6766 12.498 17.2812 11.9845 17.2812 11.9845C17.2812 11.9845 17.12 13.3478 17.3411 15.1084C16.8149 15.0773 15.7947 15.1176 14.8747 15.7728C13.9777 16.4188 13.4215 17.4655 13.2292 18.8841C13.1141 19.7327 13.3536 20.4812 13.9235 21.0454C15.0336 22.1496 17.2421 22.4099 19.0625 22.4099C20.2854 22.4099 21.3344 22.2913 21.7547 22.2418C25.5914 24.524 31.6584 26.4135 31.6584 26.4135L35 22.6217ZM14.7365 20.229C14.421 19.9158 14.3047 19.5347 14.3738 19.0372C14.5212 17.9514 14.9138 17.1672 15.5391 16.7147C16.4073 16.0872 17.477 16.2749 17.4862 16.2772L17.5104 16.1459C17.8604 17.8489 18.6066 19.7316 20.1599 21.0995C20.2048 21.1375 20.2566 21.172 20.3015 21.2135C18.4246 21.3217 15.7475 21.2354 14.7365 20.229ZM28.6508 11.304C27.4752 10.4312 25.8942 9.83585 24.4134 9.42708C24.441 9.0494 24.5447 8.55657 24.8636 8.1144C25.3173 7.4834 26.0992 7.08614 27.1931 6.93876C27.6916 6.87082 28.0705 6.98712 28.3814 7.30262C29.2427 8.16737 29.4292 10.2561 29.3981 12.019C29.1528 11.745 28.9064 11.494 28.6508 11.304Z" fill="white"/>
</svg>
