<svg width="35" height="35" viewBox="0 0 35 35" fill="none" xmlns="http://www.w3.org/2000/svg">
<g clip-path="url(#clip0_181_4977)">
<path d="M31.1733 5.69691C30.5559 6.70998 29.8148 8.13808 29.8406 9.17049C28.763 8.52861 29.7065 6.53727 30.4579 5.27028C30.4309 5.25739 30.4115 5.24193 30.3871 5.22775C29.6395 4.84753 28.9396 4.5833 28.2681 4.41059C27.9601 5.56673 27.6301 7.25003 27.9729 8.27212C26.7214 7.96537 27.0901 5.67757 27.4535 4.24948C26.5113 4.12445 25.6272 4.22112 24.77 4.54463C24.9904 5.72011 25.4158 7.36474 26.1582 8.1355C24.9479 8.38426 24.3009 6.34393 23.9967 4.90295C23.409 5.22388 22.829 5.64535 22.2438 6.1854C22.7516 7.2539 23.5366 8.63817 24.4066 9.17822C23.3587 9.68862 22.2863 8.09297 21.6238 6.8002C20.6688 7.7991 19.6853 9.08284 18.6297 10.6669C18.3256 10.6205 17.8551 10.6205 17.5136 10.6295C17.1668 10.6205 16.6848 10.6192 16.3767 10.6669C15.3186 9.08284 14.3364 7.7991 13.3801 6.8002C12.715 8.09168 11.6478 9.68733 10.596 9.17693C11.466 8.63817 12.251 7.25261 12.7588 6.18411C12.1711 5.64406 11.5898 5.22259 11.0033 4.90166C10.6992 6.34522 10.0521 8.38426 8.83928 8.1355C9.58297 7.36345 10.0083 5.71753 10.2287 4.54335C9.37288 4.21983 8.4887 4.12445 7.54522 4.24819C7.90611 5.67629 8.27345 7.96408 7.0258 8.27083C7.36736 7.24874 7.0374 5.56544 6.72935 4.4093C6.05912 4.5833 5.36054 4.84753 4.61298 5.22775C4.58849 5.24064 4.56658 5.25868 4.54209 5.27028C5.2961 6.53727 6.23828 8.52861 5.15947 9.17049C5.18654 8.13679 4.44671 6.70998 3.82804 5.69691C-0.238427 8.45257 -0.974387 14.8751 1.18967 17.8151C1.87408 18.7083 4.45187 21.5813 7.02966 19.403C9.60746 17.2274 7.2114 14.3712 6.10166 14.1276C5.64152 15.4087 6.94846 16.6667 5.69952 16.5468C2.63839 16.1035 2.59844 13.0423 6.10295 10.4645C9.24528 8.28888 11.7818 12.8812 11.7818 12.8812C11.7818 12.8812 7.91514 10.5444 6.50508 11.3101C5.09503 12.0757 6.58499 12.4378 7.14953 13.4432C7.71278 14.4498 10.4517 15.6601 10.1707 16.5456C9.68737 20.6932 12.9096 23.3935 13.3929 24.5212C13.8763 25.649 14.1985 30.7608 17.2571 30.8046H17.2596C17.2674 30.8046 17.5419 30.8046 17.7404 30.8046H17.743C20.8015 30.7608 21.1238 25.649 21.6071 24.5212C22.0904 23.3935 25.3127 20.6919 24.8293 16.5456C24.5471 15.6588 27.286 14.4511 27.8505 13.4445C28.415 12.4391 29.9076 12.0757 28.495 11.3113C27.0849 10.5457 23.2182 12.8825 23.2182 12.8825C23.2182 12.8825 25.7561 8.29017 28.8971 10.4658C32.4016 13.0436 32.3616 16.1048 29.2992 16.5481C28.0516 16.6693 29.3585 15.41 28.8971 14.1314C27.7899 14.3738 25.3926 17.2325 27.9704 19.4069C30.5482 21.5826 33.126 18.7148 33.8078 17.819C35.9744 14.8764 35.2385 8.45128 31.1733 5.69691ZM10.5097 15.0943C10.065 15.0002 7.93576 13.496 7.64705 13.0166C7.35962 12.5397 6.94331 12.0048 6.97682 11.9068C7.1882 11.3088 11.2302 12.9134 11.2302 13.7641C11.2302 14.3583 11.1412 15.227 10.5097 15.0943ZM12.9096 22.749C12.5603 22.9153 11.3668 20.8956 11.0716 20.1442C10.7765 19.3927 11.3475 18.591 11.894 18.5756C12.2342 18.8372 13.6752 22.3868 12.9096 22.749ZM16.8652 30.1138C16.3948 30.213 15.5145 29.5686 15.5299 29.169C15.5454 28.7695 16.2272 28.8661 16.3935 28.9512C16.5598 29.0388 17.3357 30.0145 16.8652 30.1138ZM18.1335 30.1138C17.6656 30.0145 18.439 29.0388 18.6052 28.9512C18.7715 28.8661 19.4533 28.7682 19.4688 29.169C19.4856 29.5699 18.6052 30.213 18.1335 30.1138ZM28.0232 11.9055C28.0542 12.0035 27.6378 12.5384 27.3517 13.0153C27.0643 13.4947 24.9337 14.9989 24.4891 15.0917C23.8575 15.2257 23.766 14.357 23.766 13.7628C23.7686 12.9134 27.8118 11.3075 28.0232 11.9055ZM23.9271 20.1442C23.6319 20.8969 22.4423 22.9153 22.0891 22.749C21.3235 22.3868 22.7645 18.8372 23.1048 18.5756C23.6526 18.5897 24.2235 19.3914 23.9271 20.1442Z" fill="white"/>
</g>
<defs>
<clipPath id="clip0_181_4977">
<rect width="35" height="35" fill="white"/>
</clipPath>
</defs>
</svg>
