<svg width="35" height="35" viewBox="0 0 35 35" fill="none" xmlns="http://www.w3.org/2000/svg">
<g clip-path="url(#clip0_181_5014)">
<path d="M27.9154 24.0077C28.5246 23.9651 34.1383 23.8098 34.7803 20.7662C34.8317 20.5256 34.695 19.9088 34.3767 20.297C30.573 22.5794 27.1335 19.3751 27.1335 19.3751C27.1335 19.3751 33.1628 13.7942 32.2135 8.55013C31.2642 3.3039 23.1734 -1.3266 20.7739 0.346678C24.4573 2.35571 26.544 7.21041 26.544 7.21041C26.544 7.21041 23.7322 7.71239 20.7739 5.03405C19.7131 11.0043 26.871 11.3958 28.0861 11.5631C28.8899 11.6736 26.3909 16.2078 25.5083 17.0828C25.4033 17.1856 25.3497 17.2949 25.3312 17.4098C24.2758 16.7984 21.0222 15.0715 17.5028 15.0715C13.9846 15.0715 10.7266 16.7984 9.67231 17.4098C9.65153 17.296 9.59903 17.1856 9.49623 17.0828C8.60928 16.2078 6.1103 11.6736 6.91632 11.5631C8.12917 11.3969 15.286 11.0043 14.2263 5.03405C11.2701 7.71239 8.45726 7.21041 8.45726 7.21041C8.45726 7.21041 10.5439 2.3568 14.2263 0.346678C11.8279 -1.3266 3.73599 3.3039 2.7878 8.55013C1.8396 13.7953 7.8656 19.3751 7.8656 19.3751C7.8656 19.3751 4.42499 22.5794 0.623467 20.297C0.305216 19.9088 0.169604 20.5256 0.218818 20.7662C0.859695 23.8098 6.47776 23.9651 7.08474 24.0077C7.74093 24.0548 8.70224 25.0697 8.36759 25.5159C8.05371 25.9347 2.73858 25.8604 0.557849 24.9778C0.4113 24.9177 0.053677 24.9045 0.381771 25.3256C1.7368 27.199 8.80942 27.2657 8.75802 27.5238C8.70552 27.7863 4.05861 32.2976 6.53245 34.8305C6.68884 34.9902 7.16895 35.1717 7.25425 34.6839C8.47586 30.6746 10.7014 28.1341 11.6595 28.0258C12.5267 27.9296 17.4263 28.2784 17.5028 28.2762C17.5772 28.2817 17.6341 28.2741 17.6362 28.2664C18.6632 28.1931 22.4789 27.9296 23.3462 28.0258C24.3031 28.1341 26.5287 30.6746 27.7481 34.6839C27.8356 35.1684 28.3179 34.9869 28.471 34.8305C30.9459 32.302 26.2979 27.7896 26.2443 27.5238C26.1929 27.269 33.2656 27.199 34.6217 25.3256C34.9498 24.9013 34.5922 24.9177 34.4467 24.9778C32.266 25.8637 26.9508 25.9347 26.6337 25.5159C26.2979 25.0686 27.2603 24.0548 27.9154 24.0077Z" fill="white"/>
</g>
<defs>
<clipPath id="clip0_181_5014">
<rect width="35" height="35" fill="white"/>
</clipPath>
</defs>
</svg>
