<svg width="35" height="35" viewBox="0 0 35 35" fill="none" xmlns="http://www.w3.org/2000/svg">
<g clip-path="url(#clip0_181_4998)">
<path d="M33.9597 7.23188C29.7729 -3.43874 21.3969 9.35485 20.5361 9.35485C19.9663 9.35485 18.6625 9.35485 17.8488 9.35485C17.4386 9.35485 17.151 9.35485 17.151 9.35485C16.3383 9.35485 15.0357 9.35485 14.4647 9.35485C13.605 9.35485 5.22911 -3.43874 1.04114 7.23188C-3.14683 17.9025 6.66411 18.8213 6.66411 18.8213C6.66411 18.8213 1.78708 13.9442 3.96692 10.9025C6.14677 7.86298 11.3104 13.2552 11.3104 13.2552C11.3104 13.2552 8.72911 17.7297 9.58989 19.3364C10.4507 20.9431 12.4577 20.6555 12.8591 21.9756C13.2605 23.2936 13.429 29.0084 13.429 29.0084C13.6072 29.4503 14.736 31.6695 17.3927 32.0152C17.42 32.0195 17.4485 32.0174 17.4758 32.0163C17.4846 32.0174 17.4933 32.0152 17.501 32.0163C17.5097 32.0152 17.5185 32.0174 17.525 32.0163C17.5524 32.0174 17.5819 32.0195 17.6082 32.0152C20.2638 31.6695 21.3936 29.4503 21.5719 29.0084C21.5719 29.0084 21.7393 23.2936 22.1418 21.9756C22.5421 20.6555 24.548 20.9431 25.4088 19.3364C26.2696 17.7297 23.6905 13.2552 23.6905 13.2552C23.6905 13.2552 28.8541 7.86188 31.034 10.9025C33.2138 13.9431 28.3368 18.8202 28.3368 18.8202C28.3368 18.8202 38.1477 17.9025 33.9597 7.23188Z" fill="white"/>
</g>
<defs>
<clipPath id="clip0_181_4998">
<rect width="35" height="35" fill="white"/>
</clipPath>
</defs>
</svg>
