<svg width="32" height="35" viewBox="0 0 32 35" fill="none" xmlns="http://www.w3.org/2000/svg">
<g clip-path="url(#clip0_181_4981)">
<path d="M30.777 22.1847C32.2501 20.2154 34.2968 6.43054 24.0661 1.7759C13.8368 -2.87873 8.92644 4.10322 9.00762 6.96761C5.57035 8.30958 4.83314 12.5174 4.83314 12.5174C4.83314 12.5174 -0.159741 15.2027 0.00393819 18.4252C0.167618 21.6476 3.76857 21.8266 3.76857 21.8266L4.86064 23.4679L5.078 21.8266C5.078 21.8266 10.4585 19.1112 10.7047 21.4858C10.9508 23.8575 5.98021 24.691 5.98021 24.691L4.97063 23.8861L5.27835 25.3885C5.27835 25.3885 4.17973 25.7666 4.67077 26.9281C5.65285 28.7184 8.92644 26.3008 8.92644 26.3008C8.92644 26.3008 6.39137 36.7659 13.6718 34.4472C9.16999 31.9408 13.262 28.0911 13.262 28.0911C13.262 28.0911 14.1629 38.1164 23.0828 32.0296C16.0445 32.8359 17.6578 28.9561 18.4185 28.0911C19.178 27.226 23.0828 22.7848 23.0828 22.7848C23.0828 22.7848 25.1294 26.1218 20.1365 30.2136C26.6837 32.1227 27.0111 19.0539 27.0111 19.0539C27.0111 19.0539 28.5667 25.3198 24.4734 29.5261C33.8031 27.289 29.1376 14.4881 29.1376 14.4881C29.1376 14.4881 30.8582 15.1125 30.777 22.1847ZM6.13734 12.1593C5.98021 11.5105 6.43065 10.9949 6.90074 10.9062C7.37083 10.8174 9.08357 11.3702 9.57985 11.6609C10.0761 11.9517 6.29447 12.8081 6.13734 12.1593Z" fill="white"/>
</g>
<defs>
<clipPath id="clip0_181_4981">
<rect width="32" height="35" fill="white"/>
</clipPath>
</defs>
</svg>
