<svg width="35" height="35" viewBox="0 0 35 35" fill="none" xmlns="http://www.w3.org/2000/svg">
<g clip-path="url(#clip0_181_5006)">
<path d="M34.8933 21.9918C34.8942 21.9902 34.8936 21.9882 34.8944 21.9866C35.0082 21.7552 35.0117 21.3992 34.9484 21.2088L30.7785 8.90408C30.6393 8.48552 30.2477 8.20312 29.8061 8.20312H28.7807V6.15234H29.8061C30.3729 6.15234 30.8315 5.69372 30.8315 5.12695C30.8315 4.56019 30.3729 4.10156 29.8061 4.10156H20.3888C20.079 3.23285 19.3956 2.54946 18.5269 2.23966V1.02539C18.5269 0.458623 18.0683 0 17.5015 0C16.9347 0 16.4761 0.458623 16.4761 1.02539V2.23966C15.6074 2.54946 14.924 3.23285 14.6142 4.10156H3.14602C2.57926 4.10156 2.12063 4.56019 2.12063 5.12695C2.12063 5.69372 2.57926 6.15234 3.14602 6.15234H6.2222V8.20312H5.19681C4.7552 8.20312 4.36364 8.48552 4.22446 8.90408L0.0545396 21.2088C-0.0573647 21.5451 0.0751841 21.7864 0.109637 21.9918C0.292088 22.1972 1.99807 26.6602 7.24759 26.6602C12.4998 26.6602 14.1348 22.1971 14.3172 21.9918C14.3771 21.8052 14.4866 21.5526 14.3723 21.2088L10.2707 8.90408C10.1315 8.48552 9.73997 8.20312 9.29837 8.20312H8.27298V6.15234H14.6142C14.924 7.02105 15.6074 7.70444 16.4761 8.01425V21.2909L14.5335 25.1761C14.4624 25.3183 14.4253 25.4756 14.4253 25.6348V29.873C14.4253 31.5693 13.0454 32.9492 11.3491 32.9492C10.7824 32.9492 10.3238 33.4078 10.3238 33.9746C10.3238 34.5414 10.7824 35 11.3491 35H23.6538C24.2206 35 24.6792 34.5414 24.6792 33.9746C24.6792 33.4078 24.2206 32.9492 23.6538 32.9492C21.9576 32.9492 20.5777 31.5693 20.5777 29.873V25.6348C20.5777 25.4756 20.5406 25.3183 20.4695 25.1761L18.5269 21.2909V8.01425C19.3956 7.70444 20.079 7.02105 20.3888 6.15234H26.73V8.20312H25.7046C25.263 8.20312 24.8715 8.48552 24.7323 8.90408L20.6307 21.2088C20.5673 21.3992 20.5709 21.7554 20.6846 21.9866C20.6855 21.9882 20.6849 21.9902 20.6857 21.9918C20.8683 22.1972 22.5058 26.6602 27.7553 26.6602C33.0077 26.6602 34.711 22.1971 34.8933 21.9918ZM6.2222 20.5078H2.44917L5.93577 10.2539H6.22213V20.5078H6.2222ZM8.55933 10.2539L11.9776 20.5078H8.27291V10.2539H8.55933ZM26.73 20.5078H23.0253L26.4436 10.2539H26.7299V20.5078H26.73ZM28.7808 20.5078V10.2539H29.0671L32.5537 20.5078H28.7808Z" fill="white"/>
</g>
<defs>
<clipPath id="clip0_181_5006">
<rect width="35" height="35" fill="white"/>
</clipPath>
</defs>
</svg>
