<svg width="35" height="35" viewBox="0 0 35 35" fill="none" xmlns="http://www.w3.org/2000/svg">
<g clip-path="url(#clip0_181_5026)">
<path d="M16.5719 16.0939C16.5719 16.0939 16.7425 16.4374 16.9011 16.4756C18.0518 16.7469 23.1784 17.9129 24.6528 16.9908C25.4403 16.4669 22.5549 14.0015 22.5549 14.0015C22.5549 14.0015 25.9609 15.5744 26.5417 14.999C28.6506 11.6039 23.2155 6.01907 21.8341 4.70106C21.4874 4.31058 21.2314 4.60372 21.2314 4.60372L14.7825 9.07182L16.5719 16.0939ZM22.5287 9.75325C23.0941 9.75325 23.5513 10.2115 23.5513 10.7759C23.5513 11.3414 23.0941 11.7997 22.5287 11.7997C21.9643 11.7997 21.506 11.3414 21.506 10.7759C21.5071 10.2115 21.9654 9.75325 22.5287 9.75325Z" fill="white"/>
<path d="M14.9181 15.7953C15.6247 15.8347 15.4212 15.0505 15.4212 15.0505L13.797 8.6015L20.6933 4.08745C20.6933 4.08745 21.1527 3.78338 20.7162 3.50884C19.6181 2.57256 16.4023 -0.0853316 15.3195 0.00217117C14.0081 0.107174 14.3231 3.56791 13.3791 3.3579C3.51976 3.82823 0.0207418 20.8377 0.479037 21.3944C0.937333 21.9522 1.31141 22.3449 2.15581 21.7105C3.01662 23.5798 1.02593 27.816 0.362002 29.5486C0.189185 30.0725 0.628886 29.9347 0.931864 29.6754C2.45441 28.154 3.53288 27.6137 4.14321 27.6727C4.75245 27.7329 6.16015 28.2666 6.97721 28.7228C7.36769 29.0104 7.82052 28.9306 7.40707 28.341C1.03468 14.9269 11.9233 15.4869 14.9181 15.7953Z" fill="white"/>
<path d="M18.4281 18.9039C18.4281 18.9039 18.2597 18.5615 18.0989 18.521C16.9504 18.2498 11.8238 17.0849 10.3483 18.0048C9.56188 18.5287 12.4451 20.993 12.4451 20.993C12.4451 20.993 9.03796 19.4223 8.46044 19.9987C6.34944 23.3939 11.7855 28.9787 13.167 30.2967C13.5137 30.6861 13.7697 30.3941 13.7697 30.3941L20.2186 25.9249L18.4281 18.9039ZM12.4713 25.2445C11.907 25.2445 11.4487 24.7862 11.4487 24.2208C11.4487 23.6553 11.907 23.1959 12.4713 23.1959C13.0368 23.1959 13.494 23.6553 13.494 24.2208C13.494 24.7862 13.0368 25.2445 12.4713 25.2445Z" fill="white"/>
<path d="M34.0703 5.32232C32.5478 6.84377 31.4682 7.3841 30.8579 7.32504C30.2464 7.26597 28.8409 6.73111 28.025 6.275C27.6334 5.98734 27.1817 6.06719 27.5929 6.65674C33.9631 20.072 23.0745 19.512 20.0797 19.2024C19.3731 19.1642 19.5777 19.9495 19.5777 19.9495L21.2008 26.3984L14.3056 30.9125C14.3056 30.9125 13.8462 31.2166 14.2827 31.4911C15.3808 32.4252 18.5976 35.0853 19.6805 34.9989C20.9887 34.8906 20.6747 31.4299 21.6187 31.6431C31.478 31.1706 34.9771 14.1645 34.5177 13.6055C34.0583 13.0488 33.6842 12.6561 32.8409 13.2905C31.9801 11.4213 33.9708 7.18394 34.638 5.45248C34.8108 4.92637 34.3722 5.06637 34.0703 5.32232Z" fill="white"/>
</g>
<defs>
<clipPath id="clip0_181_5026">
<rect width="35" height="35" fill="white"/>
</clipPath>
</defs>
</svg>
