<svg width="35" height="35" viewBox="0 0 35 35" fill="none" xmlns="http://www.w3.org/2000/svg">
<g clip-path="url(#clip0_181_4985)">
<path d="M31.1927 27.3372L30.9258 7.66828C31.2146 7.53485 31.4421 7.39156 31.581 7.23406C32.6605 6.0036 33.1986 0.987659 30.1241 0.17719C27.0496 -0.633279 27.2727 3.01547 27.2771 3.42125C28.9472 2.22578 29.248 3.54922 28.9275 4.6375C28.6082 5.72469 22.0008 3.63453 19.2533 6.15235C17.0614 8.16266 15.7446 12.8133 15.3071 14.6059L7.80395 7.49766L10.7013 6.42688L1.08504 3.07016L4.72723 12.5169L5.85707 8.8725L13.1524 15.8222C11.0196 16.4183 7.72082 17.5733 6.09223 19.3473C3.57441 22.0948 5.66566 28.7022 4.57738 29.0227C3.4891 29.3431 2.16566 29.0434 3.36113 27.37C2.95535 27.3623 -0.693399 27.1425 0.11707 30.217C0.811601 32.8486 4.58285 32.8322 6.42691 32.095H28.501L31.8139 34.942L32.4297 32.2689L35 31.6936L31.1927 27.3372ZM22.8999 9.79235C23.8613 9.11641 27.2749 8.72922 29.5685 8.12438L29.8189 26.9369L28.0011 26.6284L17.8271 16.9914C18.8289 15.3431 21.7766 10.5788 22.8999 9.79235ZM7.72848 30.7256C8.5466 28.6169 8.94144 24.1161 9.73441 22.9873C10.3972 22.0434 13.9038 19.7892 15.9743 18.5063L26.5016 28.5338L26.8013 30.6348L26.9096 30.7256H7.72848Z" fill="white"/>
</g>
<defs>
<clipPath id="clip0_181_4985">
<rect width="35" height="35" fill="white"/>
</clipPath>
</defs>
</svg>
