<svg width="35" height="35" viewBox="0 0 35 35" fill="none" xmlns="http://www.w3.org/2000/svg">
<g clip-path="url(#clip0_181_5018)">
<path d="M26.5053 25.0211C25.7965 24.8318 24.3155 24.4599 23.9162 24.3604C23.5181 24.2554 23.0488 22.0875 23.0488 22.0875L22.8115 20.9193C22.8115 20.9193 24.566 21.8053 25.1337 22.0875C25.6981 22.3718 26.5239 20.7366 26.7427 20.5233C26.9603 20.3122 27.6746 20.8646 27.7851 20.5233C27.8956 20.1809 27.1233 19.2424 26.5545 19.4339C25.9847 19.6242 25.4181 20.5703 24.8 20.5233C24.1853 20.4763 22.9996 19.4339 22.9996 19.4339L22.5238 17.3983C22.5238 17.3983 23.6133 18.4407 24.3242 18.5347C25.0352 18.6299 26.0317 17.209 26.2658 16.3569C26.5031 15.5049 26.6913 13.8587 25.8862 13.8948C26.0754 15.0783 25.0658 17.209 24.5605 17.0668C24.0541 16.9246 20.672 14.4657 20.0573 14.5576C21.9047 13.5196 21.1511 11.5726 21.1511 11.5726C21.1511 11.5726 23.5334 12.4728 24.3231 12.7091C25.114 12.9464 25.7243 11.7016 25.7243 11.7016C25.7243 11.7016 26.2942 11.7202 27.0227 11.0038C31.5205 4.75262 24.2761 -0.0306448 23.0904 0.395944C27.5422 4.51636 25.791 7.16777 25.791 7.16777C25.791 7.16777 24.7968 6.93041 24.8449 6.36272C24.8919 5.79394 24.4719 6.51695 22.8093 7.45217C21.1467 8.38738 24.2302 11.5726 24.2302 11.5726C24.2302 11.5726 22.8563 11.2707 22.0808 10.7686C21.4584 10.4831 21.5339 10.4952 20.5834 10.1998C20.5834 10.1998 20.2749 7.42591 19.2544 7.56702C19.4677 8.278 19.7444 9.99092 18.8212 10.062C17.2352 10.085 17.7734 8.14783 18.3651 7.53202C17.1882 7.10543 16.6588 9.36088 16.7955 9.92529C16.4192 10.1495 15.834 10.3092 15.2335 10.6571C14.6341 11.0038 13.3193 11.1941 13.3193 11.1941C13.3193 11.1941 16.4039 8.01001 14.7402 7.07371C13.0754 6.1374 12.6565 5.41657 12.7035 5.98426C12.7505 6.55195 11.7563 6.78931 11.7563 6.78931C11.7563 6.78931 10.004 4.1379 14.4558 0.018577C13.2723 -0.409106 5.54775 6.52898 10.5257 10.6253C11.159 10.9579 11.2236 11.0355 11.4434 11.1307C11.8886 11.1777 11.7803 12.4269 13.0448 12.475C14.3103 12.522 16.3973 11.1941 16.3973 11.1941C16.3973 11.1941 15.5452 13.5141 17.3916 14.5521C16.7758 14.4614 13.4943 16.544 12.9879 16.6862C12.4815 16.8284 11.4719 14.6976 11.6622 13.5141C10.8582 13.478 11.0464 15.1242 11.2826 15.9763C11.5189 16.8284 12.5143 18.2514 13.2242 18.1574C13.9341 18.0611 15.0235 17.0198 15.0235 17.0198L14.5499 19.0543C14.5499 19.0543 13.3664 20.0967 12.7494 20.1437C12.1336 20.1908 11.5659 19.2435 10.9972 19.0543C10.4284 18.8651 9.73489 19.6986 9.7677 20.1437C9.80051 20.5889 10.5913 19.9348 10.8101 20.1437C11.0278 20.3538 11.8547 21.9901 12.4202 21.7079C12.9846 21.4224 14.7402 20.5397 14.7402 20.5397L14.5039 21.7079C14.5039 21.7079 14.0347 23.8769 13.6365 23.9798C13.2373 24.0837 11.7563 24.4556 11.0464 24.6415C10.3365 24.8318 9.89786 25.2923 10.0543 25.5833C10.2107 25.8764 10.5268 25.3995 11.5681 25.825C12.6094 26.2516 14.1255 25.4466 14.505 24.8318C14.8835 24.2171 14.9994 23.6505 14.9994 23.6505C14.9994 23.6505 15.8242 26.2243 17.0164 27.4078C17.291 27.7841 18.1945 32.5695 15.7793 32.6636C14.9272 32.6636 12.8665 30.9911 12.6773 29.6654C12.4869 28.3397 9.12453 25.6391 9.12453 25.6391L8.13135 26.3949C8.13135 26.3949 11.1886 29.124 11.4456 30.3217C11.7027 31.5162 11.9685 33.9258 15.7793 34.919C19.5902 35.9133 20.8568 27.4242 20.8568 27.4242H20.8546C21.8752 26.1499 22.5555 24.029 22.5555 24.029C22.5555 24.029 22.6704 24.5967 23.051 25.2114C23.4306 25.8272 24.9422 26.6345 25.9879 26.2057C27.0292 25.778 27.5849 26.7395 27.7884 26.4901C27.9874 26.2407 27.2141 25.2114 26.5053 25.0211Z" fill="white"/>
<path d="M24.4096 6.01488C24.4096 6.01488 22.7153 3.56911 22.8094 1.20099C20.8219 2.19527 22.3762 7.29356 22.3762 7.29356L24.4096 6.01488Z" fill="white"/>
<path d="M15.2565 6.88338C15.2565 6.88338 16.7244 2.19527 14.7348 1.20099C14.8299 3.56911 13.2188 5.6047 13.2188 5.6047L15.2565 6.88338Z" fill="white"/>
<path d="M8.87075 25.4718C9.23281 25.1644 9.17046 24.3353 8.87075 24.0771C8.56995 23.8157 7.74849 23.0796 6.51904 22.3959C6.87453 23.225 6.56608 24.3615 6.77937 25.1163C6.99157 25.8721 7.75068 26.2057 8.12914 25.9935C8.5076 25.7802 8.5076 25.7802 8.87075 25.4718Z" fill="white"/>
</g>
<defs>
<clipPath id="clip0_181_5018">
<rect width="35" height="35" fill="white"/>
</clipPath>
</defs>
</svg>
