<svg width="35" height="35" viewBox="0 0 35 35" fill="none" xmlns="http://www.w3.org/2000/svg">
<path d="M30.3771 15.2928C30.3771 15.2928 40.0799 8.61224 31.3697 2.24976C31.6675 3.38609 31.7972 4.38755 31.8087 5.28084C32.6562 5.6206 33.5635 6.23267 33.6385 7.31683C33.015 6.57497 32.3559 6.13214 31.7807 5.86619C31.7514 6.43372 31.6687 6.95417 31.5402 7.42627C32.2706 7.79529 32.9578 8.387 33.0112 9.32865C32.4666 8.66568 31.8965 8.24957 31.3722 7.97217C31.2055 8.42263 30.9943 8.81965 30.7576 9.18104C31.2921 9.6366 31.7069 10.2499 31.6344 11.044C31.2603 10.4243 30.8429 9.9789 30.437 9.63914C30.1341 10.0133 29.7982 10.3288 29.4457 10.605C29.8631 11.2399 30.1239 12.0149 29.7702 12.8077C29.5971 12.0149 29.3044 11.4117 28.9888 10.9345C28.476 11.2756 27.9518 11.5301 27.4568 11.7184C27.7024 12.5264 27.7609 13.477 27.0801 14.1807C27.2112 13.2581 27.1094 12.501 26.935 11.9042C25.9539 12.2109 25.2108 12.2707 25.2108 12.2707C25.2108 12.2707 22.111 10.7831 17.5033 10.7831C12.8956 10.7831 9.79325 12.2707 9.79325 12.2707C9.79325 12.2707 9.04757 12.2109 8.06647 11.9029C7.89087 12.4997 7.79161 13.2568 7.92014 14.1794C7.23935 13.4757 7.29661 12.5252 7.54475 11.7171C7.04975 11.5288 6.52675 11.273 6.01139 10.9333C5.69581 11.4105 5.40314 12.0136 5.23262 12.8064C4.87887 12.0136 5.13973 11.2387 5.55711 10.6037C5.2059 10.3288 4.86869 10.0133 4.56584 9.63914C4.15736 9.97762 3.73999 10.4217 3.36714 11.0427C3.29588 10.2487 3.71199 9.63532 4.24644 9.1785C4.00721 8.81965 3.79598 8.42136 3.62928 7.97217C3.10501 8.2483 2.53493 8.66568 1.9903 9.32865C2.04375 8.387 2.7309 7.79529 3.46258 7.42627C3.33279 6.95417 3.25135 6.435 3.22081 5.86619C2.64309 6.13087 1.98521 6.57497 1.36169 7.31683C1.4355 6.2314 2.34406 5.6206 3.19154 5.28084C3.20172 4.38755 3.33024 3.38609 3.62928 2.24976C-5.07968 8.61224 4.6231 15.2928 4.6231 15.2928C4.6231 15.2928 0.526934 15.1732 1.52075 16.8046C2.51457 18.4372 5.33824 19.8662 6.61074 19.9464C7.88323 20.0253 9.5133 18.8711 9.5133 18.8711C9.5133 18.8711 9.95104 24.9155 12.7747 26.585C12.0188 26.744 11.7809 27.0622 11.8 27.659C11.8191 28.2558 12.1003 29.3641 12.3573 29.3883C12.8549 28.4339 15.0219 30.2638 13.5904 30.9394C14.4964 32.4359 16.4471 32.6993 17.2921 32.74C17.2921 32.7413 17.2946 32.7489 17.2946 32.7489C17.2946 32.7489 17.3799 32.7515 17.5008 32.7477C17.6204 32.7515 17.7069 32.7489 17.7069 32.7489C17.7069 32.7489 17.7094 32.7413 17.7094 32.74C18.5544 32.6993 20.5038 32.4359 21.4124 30.9394C19.9809 30.2638 22.1454 28.4339 22.6455 29.3883C22.9012 29.3616 23.1824 28.2545 23.2028 27.659C23.2244 27.0634 22.9839 26.744 22.2281 26.585C25.0517 24.9155 25.4882 18.8711 25.4882 18.8711C25.4882 18.8711 27.1183 20.0227 28.3908 19.9464C29.6633 19.8675 32.4869 18.4346 33.4808 16.8046C34.4746 15.1745 30.3771 15.2928 30.3771 15.2928ZM11.9794 23.064C11.0848 23.4814 10.1495 21.5357 10.0312 20.4019C9.91286 19.2656 10.4689 19.09 10.7069 18.8317C10.9449 18.5733 12.874 22.6466 11.9794 23.064ZM24.969 20.4019C24.8481 21.5383 23.9154 23.4839 23.0208 23.0665C22.1276 22.6504 24.0541 18.5759 24.2933 18.8342C24.53 19.09 25.0874 19.2694 24.969 20.4019Z" fill="white"/>
</svg>
