<svg width="35" height="35" viewBox="0 0 35 35" fill="none" xmlns="http://www.w3.org/2000/svg">
<g clip-path="url(#clip0_181_4993)">
<path d="M11.4904 22.6882C11.5147 22.6868 11.539 22.6868 11.5636 22.6882C11.5873 22.6815 11.6114 22.6764 11.6359 22.6732C12.4074 22.6393 13.1639 22.4478 13.8585 22.1106C14.1674 21.9562 14.5429 22.0817 14.6972 22.3907C14.8516 22.6996 14.7261 23.0751 14.4174 23.2294C13.7703 23.5451 13.0774 23.756 12.3641 23.8543C12.586 25.4506 12.864 29.3894 10.6479 31.307C11.3235 31.8464 12.4191 31.8208 13.906 31.2272C16.3523 30.249 17.8229 28.877 18.2811 27.1501C18.7185 25.4958 18.1692 23.5488 16.7774 21.8094C15.2721 19.9281 15.9024 17.0735 16.5104 14.3129C16.9905 12.1336 17.488 9.87901 16.7299 8.61513C15.1624 6.00459 13.1321 5.12524 9.39843 5.51965C8.91884 5.88469 8.49078 6.31301 8.12574 6.79261L8.06326 6.87512C7.11528 8.14968 6.29522 9.25014 6.11951 10.7065C6.0693 11.109 6.13419 11.5175 6.30696 11.8847C6.37773 12.0786 6.45277 12.2861 6.52086 12.5323C6.68242 13.2172 6.56038 13.9387 6.18199 14.5324C6.01136 14.8079 5.8223 15.0718 5.61588 15.3217C5.34644 15.6654 4.71463 16.471 4.79074 16.7247C4.79581 16.7424 4.86577 16.8243 5.11145 16.906C5.90508 17.1712 6.33447 17.4847 6.50137 17.9237C6.62741 18.3432 6.54703 18.7975 6.28507 19.1486C6.23593 19.226 6.19401 19.3078 6.1601 19.3929C6.37559 19.3892 6.57747 19.4979 6.69256 19.68C6.80686 19.8605 6.81754 20.088 6.72087 20.2787L6.38894 20.9412C6.65117 21.1799 6.79644 21.521 6.78709 21.8756V22.0155C6.74063 22.317 6.80365 22.6251 6.96467 22.8844C7.23198 23.0756 7.5607 23.1616 7.88782 23.1256C9.10042 23.1042 10.3077 22.9573 11.4904 22.6882Z" fill="white"/>
<path d="M23.5154 25.6143C23.1274 21.3417 24.1686 19.8172 25.2706 18.2035C26.2525 16.8935 26.9372 15.385 27.2774 13.7836C27.9188 10.8991 27.745 6.74772 25.3355 3.74384C23.3424 1.25934 20.206 0 16.0128 0C10.9463 0 9.27333 1.13997 8.76249 2.09703C8.44659 2.81349 8.48104 3.63622 8.85569 4.32384C13.3702 3.76146 15.899 4.80397 17.8003 7.97208C18.8148 9.66268 18.2885 12.0529 17.7303 14.5828C17.1853 17.0566 16.6216 19.6143 17.7528 21.0293C19.3942 23.0812 20.0274 25.4282 19.4898 27.467C19.1029 28.9314 17.9015 30.9745 14.3716 32.3863C12.434 33.1621 10.9151 33.1247 9.85948 32.2752C8.73819 31.3721 8.4506 29.7502 8.41695 28.4871C7.59315 29.5806 7.29567 30.9825 7.60436 32.3164C8.04203 33.8046 9.46266 34.7095 11.7052 34.9341C15.3404 35.2989 19.0046 34.1314 21.268 31.8907C22.9434 30.2562 23.7726 27.941 23.5154 25.6143ZM19.4404 4.27016C19.1531 4.07843 19.0757 3.69043 19.2671 3.4031C19.4589 3.11604 19.8469 3.0386 20.1342 3.23006C20.1967 3.27065 26.1799 7.36324 22.8467 14.0298C22.7469 14.2295 22.5479 14.3609 22.325 14.3745C22.102 14.3879 21.8889 14.2816 21.7658 14.0952C21.6424 13.9088 21.628 13.6709 21.7279 13.4709C24.5737 7.77955 19.6517 4.41063 19.4404 4.27016Z" fill="white"/>
<path d="M29.4376 26.0007C27.6934 23.5632 27.1302 20.923 26.8789 18.0436C26.685 18.3504 26.4906 18.6353 26.3032 18.9104C25.2471 20.4573 24.4126 21.6787 24.7608 25.5043C25.0553 28.2048 24.0887 30.8901 22.1406 32.7834C21.3929 33.5084 20.5464 34.1239 19.6262 34.6115C21.104 34.9034 22.6122 35.0129 24.117 34.937C26.5614 34.6599 28.6891 33.1386 29.7421 30.9152C30.5669 29.3488 30.4497 27.4531 29.4376 26.0007Z" fill="white"/>
</g>
<defs>
<clipPath id="clip0_181_4993">
<rect width="35" height="35" fill="white"/>
</clipPath>
</defs>
</svg>
